<?xml version="1.0" encoding="utf-8"?>
<!-- Generator: Adobe Illustrator 27.5.0, SVG Export Plug-In . SVG Version: 6.00 Build 0)  -->
<svg version="1.1" xmlns="http://www.w3.org/2000/svg" xmlns:xlink="http://www.w3.org/1999/xlink" x="0px" y="0px"
	 viewBox="0 0 500 500" style="enable-background:new 0 0 500 500;" xml:space="preserve">
<g id="BACKGROUND">
	<rect x="0" y="0" style="fill:#D7F6ED;" width="500" height="500"/>
</g>
<g id="OBJECTS">
	<g>
		<path style="fill:#C7EFE3;" d="M127.481,126.887c5.2,24.734,37.358,41.177,63.584-17.487S110.552,46.362,127.481,126.887z"/>
		<path style="fill:#C7EFE3;" d="M497.211,409.421h-31.198C490.5,370,493.375,276.553,459,250.902
			c-35.944-26.822-84.832-51.542-80.052-117.909c4.78-66.367-84.535-111.468-147.775-13.411
			c-63.24,98.057-75.024,22.496-146.361,35.286c-99.343,17.811-59.145,206.798-18.6,254.553H2.79c-1.534,0-2.79,1.419-2.79,3.154
			c0,1.735,1.255,3.154,2.79,3.154h494.421c1.534,0,2.789-1.419,2.789-3.154C500,410.841,498.745,409.421,497.211,409.421z"/>
	</g>
	<rect x="0" y="405.591" style="fill:#B3E2D5;" width="500" height="94.409"/>
	<path style="opacity:0.4;fill:#D0D1D3;" d="M466.012,444.992c0,0-97.605,28.674-218.006,28.674S30,444.992,30,444.992
		s97.605-28.674,218.006-28.674S466.012,444.992,466.012,444.992z"/>
	<g>
		<g>
			<path style="fill:#434244;" d="M372.54,420.938l-0.621,4.358c0,0-10.596,5.26-12.326,5.319
				c-1.73,0.059-22.649-4.001-19.663,15.89l51.893-1.768l-1.068-24.42L372.54,420.938z"/>
			<path style="fill:#434244;" d="M409.268,442.043c0,1.727,0,4.805,0,4.805s20.192,6.767,29.801-1.711c0,0,0.141-1.727-0.345-4.255
				c-0.628-3.376-2.355-8.165-6.956-12.263l-1.837-10.787l-15.278,3.831v6.14c0,0-4.82,11.179-5.339,13.864
				C409.283,441.824,409.268,441.95,409.268,442.043z"/>
			<polygon style="fill:#383838;" points="425.8,238.386 433.108,421.464 411.569,423.387 392.844,274.495 392.844,423.387 
				368.876,423.387 362.533,239.155 			"/>
			<path style="fill:#383838;" d="M409.268,442.043c0,1.727,0,4.805,0,4.805s20.192,6.767,29.801-1.711c0,0,0.141-1.727-0.345-4.255
				c-13.425,7.16-28.514,1.146-29.409,0.785C409.283,441.824,409.268,441.95,409.268,442.043z"/>
			<polygon style="fill:#383838;" points="391.824,444.738 391.351,439.873 339.652,442.258 339.93,446.506 			"/>
		</g>
		<path style="fill:#FFFFFF;" d="M445.56,323.801l-21.109,1.724l-28.787,2.36l-4.434-17.468l-3.586,16.61l-37.627-1.18
			l7.503-140.146l-2.682-38.198c0,0,16.454-17.08,36.944-20.795c34.806,2.517,47.315,18.804,47.315,18.804
			s-1.917,30.262-8.462,47.766c-0.148,0.387-0.24,1.079-0.286,2.028c-0.055,1.106-0.046,2.572,0.018,4.351v0.074
			c0.046,1.097,0.12,2.314,0.203,3.641c0,0,0.009,0.065,0.018,0.184c1.908,29.082,13.264,108.382,14.804,119.047
			c0.055,0.387,0.092,0.682,0.12,0.866C445.542,323.69,445.56,323.801,445.56,323.801z"/>
		<path style="opacity:0.4;fill:#D0D1D3;" d="M430.729,150.121c0,0,0,0-0.009,0.037C430.729,150.13,430.729,150.121,430.729,150.121
			z"/>
		<path style="opacity:0.4;fill:#D0D1D3;" d="M430.37,199.731c-0.009,0.009-0.028,0.009-0.046,0.009
			c0.009-0.083,0.019-0.111,0.046-0.083h0.009C430.406,199.703,430.406,199.731,430.37,199.731z"/>
		<path style="opacity:0.4;fill:#D0D1D3;" d="M424.452,325.525c0,0,11.089-30.603-2.867-128.698
			c-4.867-34.198,5.088-45.646,5.448-46.669c-0.037,0.221-0.276,1.641-1.834,10.702c-1.355,7.872,0.728,26.031,1.466,34.447
			c0.24,2.701,3.171,4.397,3.659,4.434c-0.037,0.35,0.055,1.613,0.249,3.632c0,0,0.009,0.065,0.018,0.184
			c1.908,29.082,13.264,108.382,14.804,119.047c0.055,0.387,0.092,0.682,0.12,0.866c0.028,0.221,0.046,0.332,0.046,0.332
			L424.452,325.525z"/>
		<g>
			<path style="fill:#E5B7AC;" d="M434.84,255.271c0,0,30.622-29.508,31.157-35.976c0.535-6.468-12.771-33.019-12.771-33.019
				l-18.725,1.725l14.247,30.747l-21.226,30.358"/>
			<path style="fill:#E5B7AC;" d="M427.522,249.106c0,0-15.152,7.854-14.956,10.112c0.196,2.258,4.108,0.819,6.909-0.824
				c0,0-3.461,11.882-1.929,16.1c0.648,1.783,4.142,0.887,4.891-2.009c0,0,8.225-1.562,9.613-4.018
				c3.276-4.32,3.048-7.319,2.595-14.328L427.522,249.106z"/>
			<path style="fill:#FFFFFF;" d="M438.461,147.863c0,0,32.184,64.739,31.222,70.701c-0.962,5.961-28.569,40.774-28.569,40.774
				l-15.074-15.809l15.074-27.458l-16.922-25.861C424.192,190.21,414.45,152.762,438.461,147.863z"/>
		</g>
		<g>
			<path style="fill:#E5B7AC;" d="M357.826,190.67l-10.389,30.747l15.478,30.358c0,0,13.34,6.624,13.507,8.879
				c0.167,2.255-5.166-0.275-7.396-1.367c0,0,4.477,8.05,3.574,15.457c-0.228,1.873-2.846,1.645-3.777-1.06
				c0,0-6.105,0.002-7.434-2.152c-2.935-3.632-3.181-6.621-3.81-13.591c0,0-22.329-29.508-22.719-35.976
				c-0.39-6.468,9.313-33.019,9.313-33.019L357.826,190.67z"/>
			<path style="fill:#FFFFFF;" d="M354.938,150.532c0,0-23.468,64.739-22.767,70.701c0.701,5.961,20.833,40.774,20.833,40.774
				l10.992-15.809l-10.992-27.458l12.339-25.861C365.343,192.879,372.447,155.431,354.938,150.532z"/>
		</g>
		<polygon style="fill:#E5E5E6;" points="411.605,286.35 423.573,289.272 435.541,286.35 435.541,263.782 411.605,263.782 		"/>
		<polygon style="fill:#E5E5E6;" points="355.636,286.35 366.705,289.272 377.774,286.35 377.774,263.782 355.636,263.782 		"/>
		<polygon style="fill:#E5E5E6;" points="391.835,314.984 392.042,295.556 392.097,276.13 391.967,237.28 391.498,198.432 
			391.143,179.01 390.633,159.588 390.423,179.015 390.368,198.441 390.5,237.291 390.972,276.139 391.327,295.562 		"/>
		<path style="fill:#F1F1F2;" d="M441.114,216.07l-5.789-8.847c3.47,3.656,4.487,4.242,6.542,2.733
			c6.068-4.455,13.442,0.077,19.799,3.876C449.773,210.494,443.403,211.339,441.114,216.07z"/>
		<path style="fill:#F1F1F2;" d="M357.503,162.408l-1.533,50.113l-2.967,6.219l8.763,21.89c0,0-6.213-17.352-14.329-19.212
			s-8.117-1.859-8.117-1.859l8.987-0.922L357.503,162.408z"/>
		<g>
			<path style="fill:#E5B7AC;" d="M409.448,128.607l-1.263,5.697c0,0-0.479,1.337-1.309,3.521
				c-2.747,7.162-9.365,23.404-15.762,30.75c-6.582-13.79-8.794-24.473-9.531-30.087c-0.378-2.839,0.182-4.198,0.182-4.198
				s-0.332-4.893-0.332-6.103c0-1.21-0.044-9.812-0.044-9.812l11.448,1.816l14.075-13.246c0,0-0.111,1.014-0.194,2.553
				c-0.138,2.212-0.24,5.503,0.046,8.443c0.157,1.641,0.507,3.364,0.903,4.931C408.462,126.063,409.448,128.607,409.448,128.607z"/>
			<path style="opacity:0.5;fill:#CA7E86;" d="M407.669,122.873c-8.92,18.139-21.938,10.628-26.28,7.466v-9.089l11.448,1.807
				l13.882-13.559c-0.138,2.212-0.24,5.503,0.046,8.443C406.923,119.582,407.273,121.306,407.669,122.873z"/>
		</g>
		<g>
			<path style="fill:#9CC7ED;" d="M408.812,137.788c-2.148,5.641-6.37,16.113-11.19,24.925c-2.277,4.185-4.692,8.001-7.079,10.739
				c-1.475-3.097-2.692-6.194-3.696-9.227c-4.203-12.628-4.766-24.068-5.457-29.312c7.89,5.844,18.021,6.01,27.34-7.771
				L408.812,137.788z"/>
			<polygon style="fill:#D0D1D3;" points="383.642,148.658 392.097,138.756 400.147,148.992 398.729,152.602 392.097,141.284 
				384.831,153.258 			"/>
			<path style="fill:#59595B;" d="M393.236,147.665l1.865-4.728c-2.601-2.313-3.868-2-6.288-0.044
				c0.439,1.962,0.812,3.167,1.735,4.949l-0.006,0l-3.695,15.773c1.005,3.033,2.221,6.13,3.696,9.227
				c2.387-2.738,4.802-6.554,7.079-10.739L393.236,147.665z"/>
		</g>
		<g>
			<polygon style="fill:#E5E5E6;" points="408.902,126.704 390.541,173.447 412.191,152.845 408.107,144.549 417.254,140.653 
				413.604,131.209 			"/>
			<path style="fill:#E5E5E6;" d="M381.433,128.187c0.42,14.035,4.01,29.496,8.821,44.656l-19.924-20.067l6.397-7.707l-7.599-3.502
				l6.543-9.75L381.433,128.187z"/>
		</g>
		<g>
			<g>
				<g>
					<path style="fill:#808083;" d="M371.035,186.955c-0.71-0.311-1.37-0.74-1.978-1.288c-3.316-2.981-5.069-9.353-5.212-18.938
						c-0.106-7.085,0.756-13.396,0.765-13.459l0.774,0.107c-0.034,0.249-3.353,24.923,4.195,31.709
						c1.79,1.611,4.098,2.077,6.859,1.39l0.188,0.758C374.522,187.758,372.65,187.663,371.035,186.955z"/>
				</g>
				<g>
					<path style="fill:#808083;" d="M363.149,185.047c-1.032-0.452-2.091-1.138-3.175-2.056l0.505-0.596
						c2.758,2.335,5.302,3.055,7.564,2.139c8.541-3.46,11.102-28.452,11.127-28.704l0.778,0.077
						c-0.006,0.064-0.65,6.467-2.373,13.226c-2.335,9.163-5.443,14.588-9.238,16.125
						C366.707,185.918,364.971,185.846,363.149,185.047z"/>
				</g>
				<g>
					<path style="fill:#59595B;" d="M364.648,153.926c-0.253-0.111-0.426-0.369-0.413-0.663c0.012-0.284,0.34-6.988,4.042-10.079
						c1.491-1.245,3.31-1.73,5.406-1.442c2.103,0.291,3.758,1.252,4.92,2.864c2.866,3.97,1.698,10.48,1.647,10.755
						c-0.07,0.375-0.431,0.623-0.806,0.554c-0.374-0.076-0.624-0.43-0.554-0.806c0.011-0.062,1.11-6.21-1.41-9.697
						c-0.932-1.291-2.275-2.066-3.985-2.299c-1.719-0.236-3.136,0.134-4.332,1.133c-3.239,2.705-3.545,9.014-3.547,9.077
						c-0.017,0.381-0.339,0.677-0.72,0.661C364.808,153.98,364.724,153.96,364.648,153.926z"/>
				</g>
				<path style="fill:#BABCBE;" d="M380.691,186.509c0.054,0.905-0.964,1.702-2.274,1.78c-1.309,0.077-2.414-0.594-2.468-1.499
					c-0.054-0.905,0.964-1.702,2.274-1.779C379.533,184.933,380.638,185.604,380.691,186.509z"/>
				<path style="fill:#BABCBE;" d="M360.99,182.917c-0.6,0.68-1.884,0.527-2.867-0.341c-0.983-0.868-1.294-2.123-0.694-2.803
					c0.6-0.68,1.884-0.527,2.867,0.341C361.28,180.982,361.591,182.237,360.99,182.917z"/>
				<g>
					<path style="fill:#59595B;" d="M373.233,142.836c-0.284-0.125-0.458-0.432-0.402-0.752c0.074-0.423,2.094-14.906,8.627-14.942
						c0.115-0.001-0.019,1.385-0.019,1.385c-5.48,0.712-7.23,13.702-7.247,13.796c-0.066,0.376-0.424,0.627-0.8,0.561
						C373.336,142.874,373.283,142.858,373.233,142.836z"/>
				</g>
			</g>
			<g>
				<rect x="414.06" y="180.13" style="fill:#808083;" width="0.96" height="4.554"/>
				<path style="fill:#BABCBE;" d="M418.463,187.568c0,2.432-1.971,4.403-4.403,4.403c-2.432,0-4.403-1.971-4.403-4.403
					c0-2.432,1.971-4.403,4.403-4.403C416.492,183.164,418.463,185.136,418.463,187.568z"/>
				<circle style="fill:#808083;" cx="412.217" cy="186.761" r="2.554"/>
				<path style="fill:#59595B;" d="M413.85,180.841c0.016-1.04,0.064-9.331,1.012-25.399c0.787-13.312-4.396-25.285-6.142-28.899
					l-0.608-2.012c0.075-0.846,9.142,9.506,8.131,30.993c-0.758,16.11-0.923,25.183-0.931,25.271
					C414.918,181.241,413.85,180.841,413.85,180.841z"/>
			</g>
		</g>
		<g>
			<path style="fill:#E5B7AC;" d="M373.18,99.744c-0.477,16.096,7.94,29.405,18.799,29.727
				c10.859,0.322,20.048-12.466,20.525-28.563c0.477-16.096-7.94-29.405-18.799-29.726C382.846,70.86,373.657,83.648,373.18,99.744z
				"/>
			<path style="fill:#434244;" d="M402.867,87.159c0,0-11.495,6.539-14.617,4.091s-2.294-6.051-2.294-6.051
				s-14.991,8.115-19.81,3.013c-4.819-5.102,4.498-8.262,4.498-8.262s-4.932-2.107-3.401-9.26
				c1.744-8.598,14.217-7.594,18.353-6.258c0,0-0.28-5.251,4.448-7.302c4.728-2.052,17.751,7.676,20.328,15.501
				c0,0,4.852-2.305,7.011,1.967c2.159,4.272-1.183,8.45-1.183,8.45s2.344,1.121,2.389,2.994c0.085,3.512-3.399,6.335-3.399,14.286
				c0,0-4.793,2.264-4.714,8.916c0,0-3.346-11.221-0.138-17.994C410.34,91.248,403.099,92.089,402.867,87.159z"/>
			<g>
				<path style="fill:#E5B7AC;" d="M374.854,103.932c0,0-3.5-8.916-9.291-6.949c-5.79,1.967,0.188,16.775,9.086,13.873
					L374.854,103.932z"/>
				<path style="fill:#BE717E;" d="M367.235,101.081c4.096,0.066,6.332,3.815,6.426,3.976c0.095,0.163,0.04,0.372-0.123,0.467
					c-0.057,0.034-0.121,0.049-0.183,0.047c-0.113-0.003-0.223-0.063-0.285-0.169c-0.014-0.022-0.85-1.422-2.379-2.478
					c-1.438,0.88-0.784,3.288-0.777,3.314c0.051,0.181-0.053,0.371-0.234,0.423c-0.035,0.01-0.071,0.015-0.105,0.014
					c-0.145-0.004-0.277-0.1-0.318-0.247c-0.034-0.118-0.722-2.651,0.803-3.89c-0.775-0.426-1.685-0.739-2.727-0.77
					c-0.035-0.001-0.07-0.002-0.105-0.002c-0.169,0.024-0.34-0.157-0.338-0.346C366.891,101.231,367.046,101.079,367.235,101.081z"
					/>
			</g>
			<g>
				<path style="fill:#E5B7AC;" d="M410.34,111.051c5.791,2.28,10.763-3.35,11.778-8.043c0.508-2.367,0.01-4.49-1.884-5.271
					c-4.004-1.624-7.171,2.224-8.693,4.63C410.895,103.375,410.34,111.051,410.34,111.051z"/>
				<path style="fill:#BE717E;" d="M418.323,101.736c-4.092-0.177-6.547,3.434-6.649,3.588c-0.105,0.157-0.063,0.369,0.095,0.474
					c0.055,0.037,0.117,0.056,0.18,0.058c0.113,0.003,0.227-0.05,0.294-0.152c0.015-0.021,0.933-1.369,2.522-2.333
					c1.384,0.964,0.588,3.329,0.579,3.354c-0.062,0.178,0.031,0.373,0.209,0.436c0.034,0.012,0.07,0.019,0.104,0.02
					c0.145,0.004,0.282-0.084,0.332-0.227c0.041-0.116,0.877-2.604-0.571-3.93c0.799-0.38,1.726-0.638,2.768-0.607
					c0.035,0.001,0.07,0.003,0.105,0.005c0.168,0.034,0.349-0.137,0.358-0.326C418.657,101.906,418.512,101.745,418.323,101.736z"/>
			</g>
			<polygon style="fill:#434244;" points="370.644,89.163 373.111,100.716 375.375,105.322 375.875,86.875 			"/>
			<path style="fill:#434244;" d="M385.956,104.462c0,2.204-0.516,3.991-1.153,3.991s-1.153-1.787-1.153-3.991
				s0.516-3.991,1.153-3.991S385.956,102.258,385.956,104.462z"/>
			<path style="fill:#434244;" d="M400.527,104.462c0,2.204-0.516,3.991-1.153,3.991c-0.637,0-1.153-1.787-1.153-3.991
				s0.516-3.991,1.153-3.991C400.011,100.471,400.527,102.258,400.527,104.462z"/>
			<g>
				<g>
					<g>
						<path style="fill:#BE717E;" d="M405.326,107.828c0.037,0.328,0.875,0.504,1.873,0.392c0.997-0.112,1.776-0.469,1.739-0.798
							c-0.037-0.329-0.875-0.504-1.873-0.392C406.068,107.142,405.289,107.5,405.326,107.828z"/>
						<path style="fill:#BE717E;" d="M405.097,109.786c0.056-0.326,0.904-0.451,1.893-0.28c0.989,0.171,1.745,0.573,1.689,0.899
							c-0.056,0.326-0.904,0.451-1.893,0.281C405.797,110.514,405.041,110.112,405.097,109.786z"/>
					</g>
					<g>
						<path style="fill:#BE717E;" d="M379.878,109.039c-0.037-0.328-0.875-0.504-1.873-0.392c-0.998,0.112-1.776,0.469-1.739,0.798
							c0.037,0.328,0.875,0.504,1.873,0.392C379.136,109.725,379.915,109.368,379.878,109.039z"/>
						<path style="fill:#BE717E;" d="M380.107,107.082c-0.056,0.326-0.904,0.451-1.893,0.28c-0.989-0.171-1.745-0.574-1.689-0.899
							c0.056-0.326,0.903-0.451,1.893-0.281C379.407,106.353,380.163,106.756,380.107,107.082z"/>
					</g>
				</g>
				<g>
					<g>
						<path style="fill:#BE717E;" d="M391.859,112.234c0.041,0.001,0.083,0,0.125-0.002c0.515-0.03,1.738-0.433,1.957-3.519
							c0.359-5.051-0.377-7.872-0.409-7.989c-0.048-0.182-0.235-0.292-0.419-0.242c-0.182,0.049-0.29,0.236-0.242,0.419
							c0.008,0.028,0.737,2.84,0.387,7.764c-0.147,2.079-0.775,2.853-1.314,2.884c-0.789,0.055-1.938-1.327-2.372-3.627
							c-0.035-0.185-0.216-0.307-0.4-0.272c-0.186,0.035-0.308,0.214-0.273,0.4C389.357,110.47,390.588,112.196,391.859,112.234z"/>
					</g>
					<g>
						<path style="fill:#BE717E;" d="M391.915,117.865c5.2,0.154,8.446-3.745,8.582-3.911c0.119-0.146,0.098-0.361-0.049-0.481
							c-0.145-0.12-0.361-0.099-0.481,0.048c-0.031,0.038-3.176,3.803-8.032,3.66c-4.84-0.143-7.055-4.034-7.076-4.074
							c-0.092-0.165-0.301-0.224-0.465-0.133c-0.165,0.091-0.225,0.3-0.133,0.465C384.357,113.614,386.689,117.71,391.915,117.865z"
							/>
					</g>
					<g>
						<g>
							<path style="fill:#434244;" d="M381.97,96.966c1.116-0.365,2.377-0.192,3.748,0.513c0.478,0.246,1.064,0.057,1.309-0.421
								c0.245-0.478,0.057-1.064-0.421-1.309c-1.859-0.955-3.63-1.164-5.264-0.625c-2.571,0.852-3.877,4.447-3.395,4.684
								C378.046,99.856,380.197,97.545,381.97,96.966z"/>
						</g>
						<g>
							<path style="fill:#434244;" d="M406.184,100.848c0.508-0.173-0.324-3.906-2.765-5.081c-1.548-0.747-3.33-0.766-5.3-0.058
								c-0.505,0.182-0.767,0.739-0.585,1.244c0.182,0.506,0.74,0.769,1.244,0.586c1.458-0.525,2.736-0.531,3.797-0.02
								C404.262,98.332,406.081,100.884,406.184,100.848z"/>
						</g>
					</g>
				</g>
			</g>
		</g>
	</g>
	<g>
		<g>
			<path style="fill:#C58F80;" d="M153.207,186.393c-1.724,2.185-5.706,3.659-10.121,3.18c-0.138,0-0.267-0.018-0.406-0.037
				c-2.756-0.369-5.66-1.502-8.268-3.724c-1.143-3.447-2.35-7.199-3.567-11.144c-0.701-2.249-1.392-4.572-2.092-6.923
				c-1.899-6.425-3.752-13.135-5.402-19.689c-7.964-44.171,11.651-24.989,17.652-16.26c0.046,0.111,0.083,0.221,0.129,0.332
				c0.083,0.203,0.157,0.406,0.24,0.608c6.24,15.984,9.291,24.667,10.785,38.032c0.313,2.793,0.562,5.789,0.756,9.107
				C153.032,181.923,153.124,184.089,153.207,186.393z"/>
			<path style="opacity:0.2;fill:#C58F80;" d="M134.412,185.812C134.412,185.812,137.021,188.034,134.412,185.812
				c-1.143-3.447-2.35-7.199-3.567-11.144c-0.701-2.249-1.392-4.572-2.092-6.923c6.72-10.831,10.748-23.054,12.379-35.617
				c0.083,0.203,0.157,0.406,0.24,0.608c6.24,15.984,9.291,24.667,10.785,38.032c-2.802-2.323-13.085-7.078-13.55-5.448
				C135.645,175.691,134.412,185.812,134.412,185.812z"/>
			<path style="fill:#9CC7ED;" d="M135.182,162.018c8.296,0,15.173,5.599,17.477,9.217c0-12.02-5.492-28.497-11.656-39.434
				c-6.005-8.736-25.62-27.92-17.649,16.253C123.89,150.189,134.607,159.863,135.182,162.018z"/>
		</g>
		<g>
			<path style="fill:#FFFFFF;" d="M131.23,443.531l-29.031-1.028l1.094-25.981l18.649,0.66l0.636,4.637
				c0,0,10.849,5.596,12.619,5.659"/>
			<path style="fill:#E6E6E7;" d="M135.196,427.479c1.771,0.063,20.344,2.238,20.131,16.906l-24.097-0.853"/>
			<path style="fill:#FFFFFF;" d="M83.287,441.395c0.035,0.182,0.053,0.329,0.053,0.438c0,2.01,0,5.591,0,5.591
				s-22.612,7.876-33.373-1.991c0,0-0.158-2.01,0.387-4.952"/>
			<path style="fill:#FFFFFF;" d="M50.354,440.481c0.703-3.929,2.638-9.502,7.79-14.271l2.057-12.553l17.109,4.458v7.145
				c0,0,5.398,13.01,5.978,16.135"/>
			<path style="fill:#E6E6E7;" d="M83.287,441.395c0,0-1.809-7.506-15.854-8.376c-14.045-0.87-17.08,7.462-17.08,7.462l15.544,8.803
				L83.287,441.395z"/>
			<polygon style="fill:#68AAE3;" points="128.91,247.147 128.91,418.161 98.353,419.998 97.895,367.995 96.989,264.421 
				93.781,299.439 82.738,419.998 54.172,417.343 58.625,298.268 60.68,243.313 			"/>
			<path style="opacity:0.4;fill:#D0D1D3;" d="M128.91,247.147v46.531c-10.098,1.629-22.608,1.217-22.915,4.225
				c-1.378,13.489-2.815,40.332-8.062,75.513l-0.944-108.994l-2.719,29.685c-9.134,0.284-27.792-1.105-27.911,0.03
				c-2.622,24.879-8.814,58.204-11.208,97.031l5.53-147.855L128.91,247.147z"/>
			<polygon style="fill:#FFFFFF;" points="102.198,442.504 102.198,437.305 155.612,439.866 155.327,444.385 			"/>
			<path style="fill:#FFFFFF;" d="M83.34,441.833c0,2.01,0,5.591,0,5.591s-22.612,7.876-33.373-1.991c0,0-0.158-2.01,0.387-4.952
				c15.034,8.332,31.932,1.334,32.934,0.914C83.323,441.578,83.34,441.724,83.34,441.833z"/>
		</g>
		<path style="fill:#9CC7ED;" d="M138.607,288.986l-30.354,0.986l-3.872,0.129l-5.475-17.615l-3.014,18.721l-3.079-0.258
			l-39.35-3.355c0,0,8.102-104.621,5.143-112.852c-4.157-11.55-6.499-28.317-7.669-39.387c-0.719-6.784-1.005-11.43-1.005-11.43
			s12.813-17.329,48.448-20.012c20.979,3.954,37.82,22.132,37.82,22.132s-0.461,32.963-1.327,46.808
			C131.868,220.757,138.607,288.986,138.607,288.986z"/>
		
			<rect x="59.631" y="242.246" transform="matrix(-0.9979 -0.0652 0.0652 -0.9979 126.3249 516.1151)" style="fill:#68AAE3;" width="23.909" height="27.499"/>
		<path style="opacity:0.4;fill:#D0D1D3;" d="M124.122,123.889l7.566,37.438c0,0,3.841,0.538,7.717,1.233
			c4.025,0.722,9.71,4.818,9.71,4.818s-1.606-4.903-5.943-7.339c-2.602-1.462-5.181-1.92-6.554-1.92
			C135.714,158.118,124.122,123.889,124.122,123.889z"/>
		<path style="opacity:0.4;fill:#D0D1D3;" d="M66.653,204.469c-6.059,52.045-5.114,76.933,17.149,85.633l-30.34-2.507
			c0,0,8.102-104.621,5.143-112.852c-4.157-11.55-6.499-28.317-7.669-39.387l3.438-11.467c0,0,24.003,13.854,30.437,30.981
			c6.434,17.136,46.877,6.458,46.877,6.458l3.821,0.577c0,0-2.23,27.162-1.797,36.601
			C134.145,207.944,66.653,204.469,66.653,204.469z"/>
		<path style="opacity:0.4;fill:#D0D1D3;" d="M104.381,290.102l-5.475-17.615c0.267-2.931,1.411-13.156,1.411-13.156
			C100.368,275.509,104.381,290.102,104.381,290.102z"/>
		<path style="fill:#68AAE3;" d="M111.342,108.179c-3.92-1.634-8.067-3.439-12.368-4.251c-7.881,0.593-20.073,3.147-21.579,3.742
			c0,0,0.204,6.802,1.406,11.178c3.766,13.702,11.9,17.549,20.595,25.002c12.906-12.02,11.47-26.583,11.47-26.583
			S111.293,109.305,111.342,108.179z"/>
		<g>
			<g>
				<g>
					<path style="fill:#808083;" d="M90.574,165.768c-0.791-0.057-1.575-0.246-2.349-0.566c-4.219-1.742-8.09-7.292-11.506-16.493
						c-2.525-6.801-3.851-13.186-3.864-13.249l0.783-0.162c0.052,0.252,5.288,25.198,14.892,29.164
						c2.278,0.942,4.665,0.603,7.094-1.004l0.441,0.667C94.214,165.35,92.375,165.899,90.574,165.768z"/>
				</g>
				<g>
					<path style="fill:#808083;" d="M82.312,166.623c-1.151-0.084-2.407-0.383-3.767-0.898l0.283-0.748
						c3.46,1.31,6.161,1.135,8.031-0.523c7.059-6.259,0.983-31.253,0.921-31.504l0.777-0.192c0.016,0.064,1.584,6.463,2.234,13.575
						c0.88,9.64-0.264,15.938-3.4,18.72C86.043,166.247,84.343,166.771,82.312,166.623z"/>
				</g>
				<g>
					<path style="fill:#59595B;" d="M73.115,136.079c-0.282-0.02-0.537-0.211-0.625-0.498c-0.085-0.278-2.062-6.859,0.454-11.109
						c1.012-1.712,2.603-2.802,4.724-3.241c2.129-0.438,4.055-0.077,5.727,1.081c4.124,2.851,5.223,9.533,5.268,9.816
						c0.061,0.386-0.202,0.748-0.588,0.81c-0.386,0.054-0.749-0.201-0.81-0.588c-0.01-0.064-1.052-6.372-4.677-8.875
						c-1.341-0.927-2.902-1.215-4.632-0.856c-1.739,0.36-2.981,1.202-3.793,2.575c-2.201,3.718-0.338,9.91-0.319,9.973
						c0.114,0.373-0.096,0.769-0.469,0.884C73.288,136.076,73.2,136.085,73.115,136.079z"/>
				</g>
				<path style="fill:#D0D1D3;" d="M99.74,162.035c0.361,0.855-0.349,1.972-1.586,2.495c-1.237,0.523-2.533,0.253-2.894-0.602
					c-0.361-0.855,0.349-1.972,1.586-2.495C98.083,160.91,99.378,161.18,99.74,162.035z"/>
				<path style="fill:#BABCBE;" d="M79.5,165.306c-0.347,0.861-1.638,1.153-2.883,0.651c-1.246-0.502-1.975-1.606-1.628-2.468
					c0.347-0.861,1.638-1.153,2.883-0.651C79.118,163.34,79.847,164.445,79.5,165.306z"/>
				<g>
					<path style="fill:#59595B;" d="M77.606,122.441c-0.317-0.023-0.59-0.26-0.646-0.588c-0.073-0.433-3.077-15.101,3.215-17.37
						c0.111-0.04,0.456,1.343,0.456,1.343c-5.045,2.561-2.291,15.695-2.275,15.792c0.065,0.385-0.195,0.75-0.58,0.815
						C77.719,122.442,77.663,122.445,77.606,122.441z"/>
				</g>
			</g>
			<g>
				
					<rect x="117.748" y="160.075" transform="matrix(0.9953 -0.0969 0.0969 0.9953 -15.1809 12.2218)" style="fill:#808083;" width="0.983" height="4.663"/>
				<path style="fill:#BABCBE;" d="M114.74,167.339c-0.169,3.077,2.655,5.4,5.642,4.641c1.861-0.473,3.255-2.168,3.36-4.085
					c0.169-3.077-2.655-5.4-5.642-4.641C116.239,163.727,114.845,165.422,114.74,167.339z"/>
				<path style="fill:#808083;" d="M118.435,166.352c-0.169,1.868,1.562,3.292,3.362,2.765c1-0.292,1.752-1.207,1.846-2.244
					c0.169-1.868-1.562-3.292-3.362-2.765C119.281,164.4,118.529,165.314,118.435,166.352z"/>
				<path style="fill:#59595B;" d="M117.359,161.078c-0.09-1.061-0.888-9.512-1.563-25.977c-0.558-13.641-7.061-25.308-9.209-28.812
					l-0.825-1.987c-0.01-0.869,10.284,8.75,11.449,30.742c0.874,16.488,1.633,25.747,1.633,25.838
					C118.488,161.376,117.359,161.078,117.359,161.078z"/>
			</g>
		</g>
		<g>
			<path style="fill:#C58F80;" d="M80.388,107.559c0,0,1.687,9.238,2.536,11.475c2.812,7.333,8.324,12.873,15.82,19.298
				c10.273-10.934,9.888-22.917,9.888-22.917s0.34-5.009,0.34-6.248c0-1.239,0.522-11.23,0.522-11.23l-12.198,3.043l-16.22-7.941
				L80.388,107.559z"/>
			<path style="opacity:0.4;fill:#AA7168;" d="M80.649,102.047c9.132,18.571,23.539,16.606,27.984,13.369l0.385-13.35l-11.721,1.85
				l-16.22-14.788c0.095,1.527,0.052,6.137-0.11,9.471C80.888,100.211,80.782,101.524,80.649,102.047z"/>
		</g>
		<g>
			<g>
				<path style="fill:#C58F80;" d="M80.339,86.452l-0.46,6.509c-5.646,1.592-9.777-4.155-10.287-8.652
					c-0.254-2.267,0.414-4.211,2.263-4.766c3.908-1.146,6.515,2.761,7.715,5.16C80.081,85.71,80.339,86.452,80.339,86.452z"/>
				<path style="fill:#B56F61;" d="M73.03,82.305c3.571,1.465,4.246,5.524,4.272,5.697c0.028,0.176-0.092,0.34-0.268,0.368
					c-0.062,0.01-0.122,0.001-0.176-0.022c-0.098-0.042-0.174-0.132-0.192-0.247c-0.004-0.024-0.257-1.54-1.236-2.992
					c-1.565,0.278-1.818,2.616-1.82,2.641c-0.017,0.177-0.174,0.307-0.351,0.291c-0.034-0.003-0.067-0.012-0.097-0.024
					c-0.126-0.054-0.208-0.183-0.194-0.326c0.011-0.115,0.278-2.575,2.041-3.138c-0.534-0.64-1.224-1.228-2.129-1.613
					c-0.03-0.013-0.061-0.025-0.092-0.038c-0.157-0.037-0.245-0.255-0.178-0.42C72.676,82.318,72.865,82.238,73.03,82.305z"/>
			</g>
			<g>
				<path style="fill:#C58F80;" d="M114.396,84.866l-0.395,6.513c5.389,2.317,10.237-2.842,11.33-7.233
					c0.548-2.215,0.14-4.229-1.621-5.021c-3.724-1.647-6.82,1.886-8.324,4.108C114.748,84.164,114.396,84.866,114.396,84.866z"/>
				<path style="fill:#B56F61;" d="M122.184,81.71c-3.732,0.986-4.931,4.922-4.98,5.09c-0.05,0.171,0.047,0.35,0.218,0.4
					c0.06,0.018,0.121,0.017,0.178,0.001c0.103-0.029,0.19-0.108,0.222-0.219c0.007-0.023,0.456-1.493,1.617-2.805
					c1.515,0.48,1.461,2.831,1.459,2.856c-0.006,0.178,0.132,0.327,0.31,0.334c0.034,0.001,0.068-0.003,0.099-0.011
					c0.132-0.037,0.23-0.154,0.235-0.298c0.005-0.116,0.061-2.589-1.613-3.378c0.612-0.565,1.374-1.057,2.321-1.321
					c0.032-0.009,0.064-0.017,0.096-0.025c0.16-0.016,0.276-0.221,0.231-0.393C122.533,81.77,122.357,81.666,122.184,81.71z"/>
			</g>
			<path style="fill:#C58F80;" d="M117.423,73.594c0.169,5.717-1.724,20.904-2.236,23.516c-0.512,2.612-7.82,15.049-10.114,15.27
				c-2.294,0.221-10.443,0.861-13.287-0.675S80.014,98.954,79.369,96.803c-0.644-2.151-2.046-16.589-2.206-22.016
				c-0.488-16.479,8.129-23.652,19.246-23.982C107.527,50.476,116.935,57.115,117.423,73.594z"/>
			<path style="fill:#434244;" d="M104.343,83.676c0,1.593,0.529,2.885,1.181,2.885c0.652,0,1.18-1.292,1.18-2.885
				s-0.529-2.885-1.18-2.885C104.871,80.791,104.343,82.083,104.343,83.676z"/>
			<path style="fill:#434244;" d="M89.424,83.676c0,1.593,0.529,2.885,1.181,2.885c0.652,0,1.18-1.292,1.18-2.885
				s-0.529-2.885-1.18-2.885C89.953,80.791,89.424,82.083,89.424,83.676z"/>
			<path style="fill:#996158;" d="M111.691,97.474c-1.055,0.527,0.724-4.242-13.391-3.925c-12.678,0.284-12.231,3.398-14.812,3.398
				c-2.581,0-5.117-7.175-5.117-7.175v0c0.369,3.39,0.744,6.178,0.999,7.032c0.644,2.151,9.572,13.366,12.416,14.902
				s10.993,0.896,13.287,0.675c2.294-0.221,9.602-12.658,10.114-15.27c0.231-1.178,0.743-4.915,1.22-9.186
				C116.406,87.926,112.745,96.947,111.691,97.474z M98.672,105.642c-5.839,0-11.511-3.116-11.511-6.059s5.673-4.599,11.511-4.599
				c5.838,0,11.656,1.32,11.656,4.263S104.51,105.642,98.672,105.642z"/>
			<g>
				<g>
					<g>
						<path style="fill:#B56F61;" d="M84.512,88.324c-0.038,0.336-0.896,0.516-1.917,0.401c-1.021-0.115-1.818-0.48-1.781-0.817
							c0.038-0.336,0.896-0.516,1.917-0.401C83.753,87.622,84.55,87.988,84.512,88.324z"/>
						<path style="fill:#B56F61;" d="M84.746,90.328c-0.058-0.334-0.925-0.462-1.938-0.287c-1.013,0.175-1.787,0.587-1.729,0.92
							c0.058,0.333,0.925,0.462,1.938,0.287C84.03,91.074,84.804,90.662,84.746,90.328z"/>
					</g>
					<g>
						<path style="fill:#B56F61;" d="M110.566,89.564c0.038-0.336,0.896-0.516,1.917-0.401c1.021,0.115,1.818,0.48,1.781,0.817
							c-0.038,0.336-0.896,0.516-1.917,0.402C111.325,90.266,110.528,89.9,110.566,89.564z"/>
						<path style="fill:#B56F61;" d="M110.331,87.56c0.058,0.333,0.925,0.462,1.938,0.287c1.013-0.175,1.787-0.587,1.729-0.921
							c-0.058-0.334-0.925-0.462-1.938-0.287C111.048,86.814,110.273,87.226,110.331,87.56z"/>
					</g>
				</g>
				<g>
					<g>
						<path style="fill:#B56F61;" d="M98.299,92.835c-0.042,0.001-0.085,0-0.128-0.002c-0.528-0.03-1.779-0.443-2.004-3.602
							c-0.367-5.172,0.386-8.059,0.419-8.179c0.049-0.186,0.241-0.299,0.428-0.248c0.186,0.05,0.297,0.242,0.248,0.429
							c-0.008,0.028-0.755,2.908-0.396,7.949c0.151,2.129,0.793,2.92,1.345,2.953c0.808,0.057,1.984-1.358,2.428-3.713
							c0.036-0.189,0.221-0.314,0.409-0.279c0.19,0.035,0.315,0.219,0.279,0.409C100.861,91.029,99.601,92.796,98.299,92.835z"/>
					</g>
					<g>
						<path style="fill:#B56F61;" d="M99.429,101.701c-4.913,0.146-7.979-3.538-8.108-3.695c-0.113-0.138-0.092-0.341,0.046-0.454
							c0.137-0.114,0.341-0.093,0.455,0.045c0.03,0.036,3.001,3.593,7.588,3.457c4.573-0.135,6.665-3.811,6.685-3.849
							c0.087-0.156,0.285-0.212,0.44-0.125c0.156,0.086,0.212,0.283,0.125,0.44C106.569,97.685,104.365,101.555,99.429,101.701z"/>
					</g>
					<g>
						<g>
							<path style="fill:#996158;" d="M108.423,77.203c-1.143-0.373-2.434-0.197-3.837,0.525c-0.489,0.252-1.089,0.059-1.341-0.431
								c-0.251-0.489-0.058-1.09,0.431-1.341c1.903-0.978,3.716-1.192,5.389-0.64c2.632,0.872,3.969,4.553,3.476,4.795
								C112.441,80.162,110.239,77.796,108.423,77.203z"/>
						</g>
						<g>
							<path style="fill:#996158;" d="M83.633,81.178c-0.52-0.177,0.332-3.999,2.83-5.202c1.585-0.764,3.409-0.784,5.426-0.059
								c0.517,0.186,0.785,0.757,0.599,1.274c-0.187,0.518-0.758,0.787-1.274,0.6c-1.493-0.538-2.801-0.544-3.887-0.02
								C85.601,78.601,83.739,81.214,83.633,81.178z"/>
						</g>
					</g>
				</g>
			</g>
		</g>
		<g>
			<g>
				<g>
					<path style="fill:#C58F80;" d="M115.557,163.279c0,0,7.526-1.738,14.586-0.943c3.802,0.981,8.186,5.419,8.985,6.086
						c1.458,1.786,2.842,7.844,2.603,9.353c0.234,2.156-0.989,4.222-2.732,2.034c-1.821-3.697-3.554-7.701-3.554-7.701l-3.959-4.155
						c0,0,3.236,3.071,4.034,4.229c0.798,1.158,2.387,11.317,1.69,12.591c-0.697,1.274-3.104,0.24-3.397-2.177
						c0,0,0.063,2.398-0.63,2.968c-0.693,0.569-1.533,0.182-2.281-2.923c0,0-0.624,1.946-1.544,2.017
						c-1.904-0.149-2.564-6.913-2.945-7.335c-0.381-0.423-6.37,2.485-9.81-4.989C112.581,165.869,115.557,163.279,115.557,163.279z"
						/>
					<path style="fill:#AA7168;" d="M133.814,182.597c0.02-1.373-0.154-2.701-0.344-4.023c-0.248-1.299-0.486-2.631-1.046-3.797
						C132.837,177.411,133.158,180.029,133.814,182.597z"/>
					<path style="fill:#AA7168;" d="M130.903,182.641c0.006-1.129-0.183-2.203-0.389-3.27c-0.258-1.043-0.529-2.106-1.061-3.005
						C129.852,178.51,130.232,180.597,130.903,182.641z"/>
				</g>
			</g>
			<path style="fill:#C58F80;" d="M137.777,195.297c-0.313-0.018-0.618-0.055-0.931-0.092c-9.273-1.106-52.836-12.942-52.836-12.942
				l-0.12-2.673l-0.258-5.779l6.425-1.816c0,0,14.951-0.083,36.355,2.424c1.53,0.028,3.005,0.111,4.434,0.249
				c9.669,0.922,16.951,4.139,20.325,7.826c1.171,1.272,1.871,2.599,2.037,3.899C153.917,191.85,146.635,196.035,137.777,195.297z"
				/>
			<path style="fill:#C58F80;" d="M137.777,195.297c-0.313-0.018-0.618-0.055-0.931-0.092c-9.273-1.106-52.836-12.942-52.836-12.942
				l-0.12-2.673l-0.258-5.779l6.425-1.816c0,0,15.076-1.675,36.479,0.832c18.057,1.95,21.261,5.98,24.634,9.667
				c1.171,1.272,1.871,2.599,2.037,3.899C153.917,191.85,146.635,196.035,137.777,195.297z"/>
			<path style="opacity:0.3;fill:#C58F80;" d="M136.904,174.402c0,0-6.238-1.694-14.571-1.444c0,0,13.417,1.333,20.583,4.75
				C142.917,177.708,139.673,175.264,136.904,174.402z"/>
			<path style="opacity:0.2;fill:#C58F80;" d="M137.777,195.297c-0.313-0.018-0.618-0.055-0.931-0.092
				c-9.273-1.106-52.836-12.942-52.836-12.942l-0.12-2.673c7.485,2.461,14.942,5.061,22.639,6.775
				c11.78,2.636,23.689,5.392,35.571,3.309c0.184-0.037,0.384-0.095,0.581-0.138c9.393-2.05,9.669-9.015,9.974-9.946
				c0.083,0.083,0.166,0.175,0.258,0.286c0.12,2.046,0.212,4.212,0.295,6.517C153.917,191.85,146.635,196.035,137.777,195.297z"/>
			<g>
				<g>
					<path style="fill:#C58F80;" d="M45.849,147.577c5.434,23.082,8.994,31.227,22.098,51.735
						c4.403,1.343,11.636-2.25,14.001-11.024c-3.172-10.943-6.376-25.438-11.128-38.134c-9.12-20.129-15.055-26.418-18.749-24.469
						C48.295,127.677,43.977,134.426,45.849,147.577z"/>
				</g>
			</g>
			<g>
				<g>
					<path style="fill:#9CC7ED;" d="M52.224,180.838c2.984-1.168,29.83-18.939,29.723-19.225
						c-9.12-20.129-26.143-43.269-29.324-40.563c-5.853,4.98-8.647,13.375-6.775,26.527
						C46.784,152.217,51.22,177.263,52.224,180.838z"/>
				</g>
			</g>
			<g>
				<path style="fill:#C58F80;" d="M93.046,179.118c0,0-4.811-11.957-6.485-14.228c-2.755-3.313-9.484-6.012-10.486-6.518
					c-2.347-0.688-7.876,0.148-9.142,1.005c-2.089,0.662-3.876,2.624-1.022,3.424c4.275,0.254,9.118-0.009,9.118-0.009l5.731,3.104
					c0,0-4.393-1.896-5.843-2.198c-1.45-0.302-11.53,2.34-12.357,3.548c-0.826,1.208,1.296,3.135,3.653,2.423
					c0,0-2.227,0.93-2.41,1.842c-0.183,0.913,0.582,1.575,3.791,1.024c0,0-1.478,1.414-1.094,2.343
					c1.066,1.801,7.584-0.347,8.156-0.149c0.573,0.198,0.834,7.258,9.359,7.534C91.901,183.528,93.046,179.118,93.046,179.118z"/>
				<path style="opacity:0.3;fill:#C58F80;" d="M76.325,172.984c-0.473,0.148-5.505,2.413-9.826,1.896
					c1.066,1.801,7.584-0.347,8.156-0.149c0.573,0.198,0.834,7.258,9.359,7.534c3.029,0.485,8.898-4.206,10.255-4.824
					C82.218,178.779,79.586,181.284,76.325,172.984z"/>
				<path style="opacity:0.3;fill:#C58F80;" d="M66.212,169.67c1.248-0.587,2.549-0.965,3.853-1.326
					c1.311-0.294,2.647-0.611,3.988-0.545C71.438,168.483,68.883,169.251,66.212,169.67z"/>
				<path style="opacity:0.3;fill:#C58F80;" d="M67.592,172.536c1.031-0.472,2.107-0.73,3.184-0.97
					c1.081-0.178,2.187-0.353,3.27-0.203C71.89,171.857,69.792,172.347,67.592,172.536z"/>
			</g>
			<path style="fill:#C58F80;" d="M123.442,162.912l-7.885,0.368c0,0-11.168,4.509-28.996,13.595
				c-13.282,5.106-20.783,14.156-19.823,19.754c0.96,5.598,8.946,7.207,16.665,3.252c7.718-3.955,41.61-29.813,41.61-29.813
				L123.442,162.912z"/>
			<path style="opacity:0.2;fill:#C58F80;" d="M83.403,199.88c0.184-0.094,0.386-0.204,0.598-0.322
				c10.593-6.683,37.476-26.248,37.476-26.248s-2.031,1.352-5.337,3.457c0,0,0,0,0,0c-1.056,0.672-2.249,1.426-3.543,2.234
				c-0.093,0.058-0.185,0.115-0.279,0.174c-0.644,0.401-1.31,0.814-2.002,1.241c-0.019,0.012-0.039,0.024-0.058,0.035
				c-0.64,0.395-1.305,0.801-1.981,1.213c-0.155,0.094-0.31,0.189-0.467,0.284c-1.413,0.859-2.895,1.749-4.429,2.655
				c-0.202,0.119-0.405,0.239-0.609,0.359c-0.672,0.396-1.353,0.794-2.042,1.195c-0.109,0.063-0.216,0.126-0.325,0.189
				c-0.775,0.449-1.56,0.899-2.351,1.35c-0.212,0.12-0.424,0.241-0.637,0.361c-0.657,0.372-1.318,0.744-1.982,1.114
				c-0.176,0.098-0.352,0.197-0.528,0.295c-0.801,0.444-1.605,0.885-2.411,1.322c-0.199,0.108-0.398,0.214-0.597,0.321
				c-0.66,0.355-1.32,0.707-1.979,1.055c-0.206,0.108-0.412,0.218-0.617,0.325c-0.808,0.423-1.614,0.839-2.416,1.246
				c-0.166,0.084-0.331,0.166-0.496,0.249c-0.671,0.338-1.338,0.669-2.001,0.993c-0.21,0.103-0.421,0.206-0.63,0.307
				c-0.797,0.385-1.588,0.762-2.369,1.122c-0.102,0.047-0.202,0.091-0.303,0.137c-0.689,0.316-1.37,0.62-2.042,0.914
				c-0.203,0.089-0.407,0.177-0.608,0.264c-3.564,1.278-4.902-0.109-5.255-0.393c-0.027-0.022-0.054-0.046-0.081-0.068
				c-0.151-0.124-0.304-0.253-0.459-0.389c-0.038-0.034-0.077-0.069-0.116-0.103c-0.148-0.133-0.299-0.27-0.451-0.413
				c-0.038-0.036-0.076-0.072-0.114-0.108c-0.162-0.155-0.326-0.316-0.491-0.482c-0.025-0.025-0.05-0.049-0.075-0.075
				c-0.993-1.008-2.023-2.204-2.996-3.487c-0.003-0.004-0.006-0.008-0.009-0.012c-0.195-0.257-0.388-0.518-0.577-0.782h0
				c-2.184-3.036-6.142-11.334-6.142-11.334s0.149-2.244,4.077-7.54l-9.719,6.183c2.835,5.896,6.241,11.674,11.282,19.599
				c0,0,0,0,0,0c0,0,0,0,0,0c0.074,0.144,0.155,0.284,0.239,0.421c0.114,0.181,0.231,0.361,0.365,0.528
				c0.001,0.001,0.002,0.003,0.003,0.004c0,0,0.001,0.001,0.001,0.002c0,0,0,0,0,0.001c0.008,0.013,0.016,0.026,0.025,0.039
				c0.001,0,0.002,0,0.003,0.001l0,0h0c0.065,0.08,0.142,0.15,0.211,0.227c0.001,0.001,0.002,0.002,0.003,0.003
				c0.132,0.145,0.265,0.289,0.412,0.422c0,0,0,0,0,0c0.098,0.089,0.205,0.172,0.31,0.255c0,0,0,0,0,0
				c0.136,0.109,0.276,0.215,0.422,0.315c0,0,0,0,0,0c0.116,0.078,0.234,0.154,0.356,0.227c0,0,0.001,0,0.001,0
				c0.213,0.127,0.436,0.243,0.667,0.352c0.063,0.032,0.125,0.064,0.191,0.093c0,0,0,0,0,0c0.213,0.094,0.436,0.176,0.662,0.254
				c0,0,0,0,0.001,0c0.088,0.031,0.171,0.066,0.26,0.095c0.777,0.244,1.628,0.394,2.528,0.461c0.008,0.001,0.015,0.001,0.022,0.002
				h0c0.339,0.025,0.684,0.037,1.037,0.036c0.046,0,0.092,0.002,0.138,0.001c0,0,0,0,0,0c0.33-0.004,0.666-0.021,1.006-0.048
				c0.069-0.004,0.138-0.007,0.209-0.013c0,0,0,0,0,0c0.408-0.038,0.822-0.091,1.241-0.162c0,0,0,0,0.001,0
				c0.1-0.017,0.201-0.042,0.302-0.06c0.001,0,0.002,0,0.003-0.001c0.326-0.061,0.655-0.129,0.986-0.21c0.001,0,0.001,0,0.002,0
				c0.126-0.031,0.252-0.066,0.379-0.101c0.316-0.084,0.633-0.177,0.951-0.279c0,0,0.001,0,0.001,0c0.11-0.035,0.22-0.073,0.33-0.11
				c0.354-0.121,0.709-0.254,1.065-0.398c0,0,0,0,0,0c0.142-0.057,0.283-0.11,0.424-0.171c0,0,0,0,0.001,0
				c0.442-0.19,0.884-0.393,1.325-0.619C83.398,199.882,83.401,199.881,83.403,199.88z"/>
		</g>
	</g>
	<g>
		<g>
			<g>
				<path style="fill:#C58F80;" d="M262.715,179.357c0,0-13.932,44.057-14.642,96.865c0,0,5.074,2.27,10.661-0.074
					c0,0,6.075-48.403,18.714-74.905c2.856-5.665,2.35-13.263,0.906-17.588C265.332,162.564,262.715,179.357,262.715,179.357z"/>
			</g>
			<g>
				<path style="fill:#A87067;" d="M251.494,285.467c0,0,2.883,5.773,3.405,6.327c0.522,0.555,4.308,2.124,4.624,3.076
					c0.316,0.952-0.942,2.045-3.733,0.961c-2.79-1.084-3.57-1.399-4.097-1.954c-0.527-0.555-3.667-6.573-3.667-6.573
					L251.494,285.467z"/>
				<path style="fill:#B78074;" d="M250.491,286.9c0,0,2.408,7.084,2.925,7.796c0.516,0.712,4.66,3.029,4.872,4.176
					c0.212,1.147-1.429,2.254-4.495,0.633c-3.066-1.622-3.921-2.09-4.442-2.803c-0.522-0.713-3.189-8.115-3.189-8.115L250.491,286.9
					z"/>
				<path style="fill:#C58F80;" d="M248.082,275.958c0,0-2.997,8.159-3.449,10.635c-0.452,2.476,4.231,12.095,4.841,14.949
					c0.976,2.929,3.651,2.415,3.136-1.609c-0.465-4.34-2.308-11.447-2.365-12.053c-0.057-0.606,3.534-3.978,4.03-4.168
					c0.495-0.19,2.654,2.963,2.796,3.563c0.142,0.6-1.432,4.599,1.237,6.612c2.67,2.013,4.093-6.639,3.767-8.293
					c-0.326-1.654-0.833-7.43-4.24-10.609l-8.239-0.209L248.082,275.958z"/>
			</g>
		</g>
		<g>
			<path style="fill:#9CC7ED;" d="M273.552,157.742c0,0-4.826,3.01-5.849,4.744c-5.821,7.291-16.623,41.879-16.623,41.879
				l18.553,7.4l6.422-27.079L273.552,157.742z"/>
			<path style="opacity:0.4;fill:#D0D1D3;" d="M260.581,208.154c0,0-3.392-13.87-0.744-20.595c2.648-6.725,9.85-22.846,9.85-22.846
				s-9.85,14.354-13.212,27.354c-1.16,4.484,1.639,15.104,1.639,15.104L260.581,208.154z"/>
		</g>
		<g>
			<path style="fill:#C58F80;" d="M298.393,149.285c23.224,6.134,29.612,13.373,29.612,13.373l-15.614,43.198
				c0,0-3.188,16.679,1.311,24.589c15.808,13.215,3.506,34.954,3.506,34.954c-10.599,7.478-33.683-2.916-33.683-2.916
				s-11.191-3.058-19.279-13.199c0,0,4.31-16.693,1.577-28.239c-5.487-16.247-6.451-30.04-2.653-41.948
				C267.503,170.982,277.134,149.979,298.393,149.285z"/>
			<polygon style="fill:#C58F80;" points="308.516,133.419 310.071,154.592 285.054,156.538 285.532,147.981 285.93,140.994 
				286.064,140.626 291.637,131.729 			"/>
			<g>
				<g>
					<path style="fill:#C58F80;" d="M311.289,122.91c0,0,3.004-8.562,8.555-6.901c5.55,1.661,0.405,15.887-8.12,13.449
						L311.289,122.91z"/>
					<path style="fill:#CA7E86;" d="M318.403,119.947c-3.875,0.204-5.862,3.831-5.945,3.987c-0.085,0.158-0.025,0.354,0.133,0.438
						c0.055,0.03,0.115,0.042,0.174,0.038c0.107-0.007,0.209-0.068,0.264-0.17c0.012-0.022,0.755-1.376,2.166-2.428
						c1.392,0.784,0.857,3.086,0.85,3.11c-0.042,0.174,0.063,0.349,0.237,0.392c0.033,0.009,0.067,0.011,0.099,0.009
						c0.137-0.009,0.258-0.105,0.293-0.245c0.028-0.113,0.591-2.535-0.895-3.654c0.719-0.43,1.569-0.758,2.555-0.824
						c0.033-0.002,0.066-0.004,0.1-0.006c0.161,0.017,0.316-0.16,0.308-0.339C318.734,120.076,318.582,119.938,318.403,119.947z"/>
				</g>
				<path style="opacity:0.3;fill:#C58F80;" d="M309.291,141.093c-0.206,0.356-9.464,21.003-23.834,9.652l0.416-8.741l0.175,0.524
					C286.047,142.528,297.975,146.713,309.291,141.093z"/>
				<path style="fill:#C58F80;" d="M313.198,118.846c1.01,15.222-8.559,27.974-16.764,28.795
					c-8.085,0.416-19.413-11.105-20.423-26.327c-1.01-15.222,6.495-28.114,16.764-28.796
					C303.043,91.838,312.187,103.625,313.198,118.846z"/>
				<g>
					<g>
						<g>
							<path style="fill:#CA7E86;" d="M282.908,127.591c-0.024,0.312-0.811,0.508-1.759,0.437c-0.948-0.071-1.698-0.383-1.674-0.695
								c0.023-0.312,0.811-0.508,1.759-0.436C282.182,126.968,282.932,127.279,282.908,127.591z"/>
							<path style="fill:#CA7E86;" d="M283.193,129.436c-0.065-0.306-0.871-0.396-1.802-0.2c-0.93,0.196-1.632,0.603-1.568,0.91
								c0.064,0.306,0.871,0.396,1.801,0.2C282.556,130.15,283.258,129.743,283.193,129.436z"/>
						</g>
						<g>
							<path style="fill:#CA7E86;" d="M307.042,127.853c0.023-0.312,0.811-0.508,1.759-0.436c0.948,0.071,1.698,0.382,1.674,0.695
								c-0.023,0.312-0.811,0.508-1.759,0.436C307.768,128.477,307.019,128.166,307.042,127.853z"/>
							<path style="fill:#CA7E86;" d="M306.758,126.008c0.064,0.306,0.871,0.396,1.801,0.2c0.93-0.196,1.632-0.604,1.568-0.91
								c-0.065-0.306-0.871-0.396-1.802-0.2C307.395,125.294,306.693,125.701,306.758,126.008z"/>
						</g>
					</g>
					<path style="fill:#434244;" d="M287.283,123.351c-0.164-2.471-0.816-4.439-1.456-4.396l-3.132,0.323
						c0,0,0.547,0.922,2.408,1.005c-0.161,0.826-0.22,1.968-0.137,3.222c0.164,2.47,0.816,4.439,1.456,4.396
						C287.061,127.858,287.447,125.821,287.283,123.351z"/>
					<path style="fill:#434244;" d="M302.433,122.082c-0.083-1.25-0.291-2.371-0.559-3.168c1.841-0.326,2.251-1.322,2.251-1.322
						l-3.148,0.094c-0.64,0.042-1.026,2.079-0.862,4.55c0.164,2.471,0.816,4.439,1.455,4.396
						C302.211,126.59,302.597,124.553,302.433,122.082z"/>
					<g>
						<g>
							<path style="fill:#CA7E86;" d="M294.886,131.923c-0.039,0.002-0.078,0.003-0.119,0.003c-0.489-0.01-1.66-0.349-1.975-3.263
								c-0.515-4.77,0.084-7.465,0.11-7.578c0.039-0.174,0.213-0.285,0.388-0.243c0.174,0.04,0.283,0.213,0.244,0.388
								c-0.007,0.026-0.599,2.714-0.097,7.363c0.212,1.963,0.833,2.674,1.344,2.685c0.749,0.025,1.789-1.323,2.12-3.516
								c0.027-0.176,0.193-0.298,0.369-0.272c0.177,0.026,0.299,0.192,0.272,0.369C297.194,130.166,296.088,131.843,294.886,131.923
								z"/>
						</g>
						<g>
							<path style="fill:#CA7E86;" d="M295.539,136.704c-4.128,0.274-6.82-2.73-6.934-2.858c-0.099-0.113-0.088-0.284,0.025-0.383
								c0.111-0.1,0.284-0.089,0.384,0.024c0.026,0.029,2.635,2.93,6.489,2.674c3.842-0.255,5.488-3.411,5.504-3.443
								c0.068-0.134,0.233-0.187,0.366-0.119c0.134,0.068,0.187,0.231,0.119,0.366C301.421,133.106,299.686,136.429,295.539,136.704
								z"/>
						</g>
						<g>
							<g>
								<path style="fill:#583B1C;" d="M303.377,114.014c-1.089-0.438-2.358-0.349-3.772,0.264
									c-0.493,0.214-1.065-0.013-1.278-0.507c-0.213-0.493,0.014-1.065,0.506-1.278c1.917-0.829,3.697-0.921,5.291-0.274
									c2.508,1.02,3.573,4.692,3.076,4.896C307.101,117.156,305.108,114.709,303.377,114.014z"/>
							</g>
						</g>
						<g>
							<g>
								<path style="fill:#583B1C;" d="M283.692,115.315c1.073-0.475,2.345-0.431,3.779,0.132c0.5,0.197,1.063-0.05,1.26-0.551
									c0.196-0.5-0.051-1.064-0.55-1.26c-1.945-0.762-3.727-0.792-5.298-0.09c-2.471,1.106-3.407,4.813-2.904,5
									C280.08,118.584,281.986,116.069,283.692,115.315z"/>
							</g>
						</g>
					</g>
				</g>
			</g>
			<g>
				<path style="fill:#4B804D;" d="M281.541,366.596"/>
				<path style="fill:#C58F80;" d="M295.478,406.482l-0.504-51.939c-2.028-2.364-3.491-5.14-4.08-8.196
					c-1.662-8.619-3.626-17.502-3.025-26.317c0.344-5.052,2.014-9.674,4.78-13.368c-1.144-5.496-2.29-10.993-3.35-16.505
					c-1.555-8.085-2.353-16.291-4.47-24.264c-0.738-2.78-0.915-5.532-0.617-8.169l-5.435,13.608l-0.186,2.711l-5.514,78.904
					l7.933,70.226l1.621,14.444c5.82,0.638,7.322-0.226,13.155,0.013l-0.146-14.457L295.478,406.482z"/>
				<path style="opacity:0.4;fill:#CA7E86;" d="M291.068,347.123l-1.556,4.175l5.966,55.185l-0.504-51.939
					C293.12,352.382,291.74,349.874,291.068,347.123z"/>
				<g>
					<path style="fill:#FFFFFF;" d="M252.629,447.013h46.422l-2.839-14.924c0,0-5.171,5.615-9.124,3.768
						c-3.952-1.357-6.004-5.416-6.004-5.416s-7.638,3.359-15.184,6.44c-0.012,0-0.023,0.011-0.035,0.011c0,0,0,0,0,0.011
						C258.934,439.728,251.192,442.264,252.629,447.013z"/>
					<path style="fill:#E6E6E7;" d="M252.629,447.013h17.12l0.8-0.601c0,0-1.02-5.661-4.648-9.531c-0.012,0-0.023,0.011-0.035,0.011
						c0,0,0,0,0,0.011C258.934,439.728,251.192,442.264,252.629,447.013z"/>
					<rect x="252.493" y="446.405" style="fill:#FFFFFF;" width="46.562" height="4.21"/>
				</g>
			</g>
			<g>
				<path style="fill:#4B804D;" d="M316.447,366.596"/>
				<path style="fill:#C58F80;" d="M330.384,412.013l-0.504-51.939c-2.028-2.364-3.491-5.14-4.08-8.196
					c-1.662-8.618-3.626-17.502-3.025-26.317c0.344-5.052,2.014-9.674,4.779-13.368c-1.144-5.496-2.29-10.993-3.35-16.505
					c-1.555-8.085-2.353-16.291-4.47-24.264c-0.738-2.78-0.915-5.532-0.617-8.169l-5.435,13.608l-0.186,2.711l-5.515,78.904
					l7.933,70.226l1.621,14.444c5.82,0.638,7.322-0.226,13.155,0.013l-0.146-14.457L330.384,412.013z"/>
				<path style="fill:#FFFFFF;" d="M338.728,453.858c-0.618-3.929-3.355-11.234-7.882-16.003c0,0-2.834,4.65-8.098,4.091
					c-1.617-0.172-5.651-3.646-5.651-3.646s-6.792,13.346-7.302,16.471"/>
				<path style="fill:#E6E6E7;" d="M309.795,454.772c0,0,1.589-7.506,13.928-8.376c12.339-0.87,15.005,7.462,15.005,7.462
					l-13.655,8.803L309.795,454.772z"/>
				<path style="fill:#FFFFFF;" d="M309.749,455.21c0,2.01,0,5.591,0,5.591s19.866,7.876,29.319-1.991c0,0,0.139-2.01-0.34-4.952
					c-13.208,8.332-28.053,1.334-28.933,0.914C309.764,454.955,309.749,455.101,309.749,455.21z"/>
				<path style="opacity:0.4;fill:#CA7E86;" d="M325.973,347.123l-1.556,4.175l5.966,55.185l-0.504-51.939
					C328.025,352.382,326.646,349.874,325.973,347.123z"/>
			</g>
			<polygon style="fill:#68AAE3;" points="332.946,430.613 311.745,431.719 295.464,311.712 297.531,428.791 274.257,427.685 
				264.698,250.834 327.397,261.619 328.706,300.72 			"/>
			<path style="fill:#F1F1F2;" d="M327.401,430.361L327.401,430.361c0-32.151-6.327-114.366-12.863-114.56
				c-39.267-1.171-45.683-6.259-45.683-6.259l59.851-8.821l0.396-0.055l3.844,129.948L327.401,430.361z"/>
			<g>
				<path style="fill:#9CC7ED;" d="M264.978,308.987c0.422,0.068,3.082,0.433,3.88,0.557c0.721,0.081,1.44,0.162,1.653,0.184
					c1.719,0.183,3.44,0.346,5.163,0.486c12.845,1.048,25.771,0.924,38.605-0.219c3.098-0.276,6.332-0.437,9.394-1.015
					c-0.085,0.016-0.159,0.03-0.238,0.045c0.563-0.102,1.099-0.197,1.394-0.243c1.704-0.263,3.406-0.542,5.106-0.836
					c0.498-0.086,0.994-0.183,1.492-0.272c-0.563-9.223-0.986-18.034-1.059-24.546c-0.259-22.393-7.298-32.335-7.298-32.335
					s-4.061-0.613-10.057-1.341c-0.939-0.115-1.925-0.23-2.95-0.345c-16.283-1.791-42.459-3.63-45.754,2.768
					c-0.057,0.125-0.115,0.249-0.163,0.374c-1.167,3.293-1.862,30.528-2.263,56.204C262.914,308.637,263.945,308.82,264.978,308.987
					z"/>
			</g>
			<g>
				
					<rect x="294.536" y="263.42" transform="matrix(-1 -1.224647e-16 1.224647e-16 -1 615.524 554.3384)" style="fill:#68AAE3;" width="26.453" height="27.499"/>
				<g>
					<g>
						<g>
							<path style="fill:#BBBCBF;" d="M306.507,305.572c0.069-0.001,6.927-0.157,8.84-6.8c1.823-6.33,3.095-21.768,3.149-22.422
								l-1.024-0.084c-0.013,0.159-1.317,15.991-3.112,22.221c-1.704,5.917-7.803,6.057-7.865,6.058L306.507,305.572z"/>
						</g>
						<path style="fill:#A6A8AA;" d="M302.645,305.058c0,0.62,0.991,1.123,2.214,1.123c1.223,0,2.214-0.503,2.214-1.123
							c0-0.62-0.991-1.123-2.214-1.123C303.636,303.935,302.645,304.438,302.645,305.058z"/>
					</g>
					<g>
						<g>
							<path style="fill:#BBBCBF;" d="M312.89,305.572c-0.069-0.001-6.927-0.157-8.84-6.8c-1.823-6.33-3.095-21.768-3.149-22.422
								l1.024-0.084c0.013,0.159,1.317,15.991,3.112,22.221c1.704,5.917,7.803,6.057,7.865,6.058L312.89,305.572z"/>
						</g>
						<path style="fill:#A6A8AA;" d="M316.752,305.058c0,0.62-0.991,1.123-2.214,1.123s-2.214-0.503-2.214-1.123
							c0-0.62,0.991-1.123,2.214-1.123S316.752,304.438,316.752,305.058z"/>
					</g>
					<path style="fill:#434244;" d="M308.672,265.718v-3.727c0,0,0.146-0.822,1.027-0.822c0.864,0,1.027,0.822,1.027,0.822v3.727
						c4.614,0.763,8.215,6.592,8.215,13.653h-2.054c0-6.337-3.292-11.69-7.188-11.69s-7.188,5.353-7.188,11.69h-2.054
						C300.457,272.31,304.058,266.481,308.672,265.718z"/>
				</g>
			</g>
			<path style="fill:#9CC7ED;" d="M323.069,250.794c0.603,6.417,1.034,10.258,1.034,10.258s-2.739-0.115-7.049-0.354
				c-2.892-0.153-6.484-0.364-10.44-0.622c-17.7-1.188-42.459-3.458-42.335-6.858c0.01-0.431,0.029-0.881,0.029-1.341
				c0.259-10.9-0.69-30.937-1.676-35.525c-1.58-7.605-3.947-15.972-3.497-26.134c0-6.686,14.128-31.937,14.463-32.396
				c0.01,0,0.01-0.019,0.01-0.019c1.772-0.948,3.64-1.829,5.23-2.557c2.146-0.987,3.755-1.657,3.879-1.676
				c-0.22,0.182-2.749,14.97-0.824,15.679c4.923,1.609,28.226-16.666,28.226-16.666s2.797,0.824,6.388,2.27
				c3.802,1.533,8.486,3.764,11.628,6.436l0.019,0.019c1.647,1.398,2.854,2.912,3.285,4.521c2.193,3.716-5.019,11.446-8.591,22.738
				c-0.958,3.027-1.58,6.139-1.963,9.405c-0.297,2.385-0.469,4.856-0.556,7.433c-0.01,0.029-0.01,0.057-0.01,0.086
				c-0.105,3.151-0.086,6.465-0.048,9.999C321.163,229.799,322.274,242.462,323.069,250.794z"/>
			<path style="opacity:0.4;fill:#D0D1D3;" d="M312.649,245.431c-0.287,1.025-0.086,2.442,0.364,4.023
				c1.054,3.736,3.477,8.41,4.042,11.245c0.029,0.144,0.048,0.278,0.067,0.402c2.898,20.272,0.988,36.296-3.654,48.96
				c0.271-0.023,0.542-0.04,0.812-0.064c3.098-0.276,6.332-0.437,9.394-1.015c-0.085,0.016-0.159,0.03-0.238,0.045
				c0.563-0.102,1.099-0.197,1.394-0.243c1.704-0.263,3.406-0.542,5.106-0.836c0.498-0.086,0.994-0.183,1.492-0.272
				c-0.563-9.223-0.986-18.034-1.059-24.546c-0.259-22.393-7.298-32.335-7.298-32.335c-0.795-8.333-1.906-20.995-2.797-35.304
				c-0.038-3.534-0.058-6.848,0.048-9.999c0-0.029,0-0.057,0.01-0.086c0.086-2.576,0.259-5.048,0.556-7.433l-12.905-20.174
				C307.98,177.798,320.33,217.549,312.649,245.431z"/>
		</g>
		<g>
			<g>
				<path style="fill:#C58F80;" d="M332.587,166.027c0,0,12.665,25.334,21.885,63.262c-4.164,1.562-8.45,1.934-12.865,2.331
					c-1.756,0.158-3.163,0.692-4.291,1.448c-3.77-10.43-8.226-20.64-13.343-28.914C305.564,174.386,332.587,166.027,332.587,166.027
					z"/>
			</g>
		</g>
		<g>
			
				<rect x="271.598" y="209.159" transform="matrix(0.7318 -0.6815 0.6815 0.7318 -82.5278 262.8892)" style="fill:#6D6E70;" width="42.331" height="54.291"/>
			<g>
				<g>
					<polygon style="fill:#FFFFFF;" points="313.504,239.873 317.473,244.738 295.658,265.235 262.285,230.743 288.969,205.671 
						317.571,237.136 					"/>
				</g>
				<g>
					<path style="fill:#DF922F;" d="M290.808,212.077l-21.561,20.259c-0.142,0.133-0.365,0.126-0.498-0.016l-0.159-0.169
						c-0.133-0.142-0.126-0.365,0.016-0.498l21.561-20.259c0.142-0.133,0.365-0.126,0.498,0.016l0.159,0.169
						C290.957,211.721,290.95,211.944,290.808,212.077z"/>
				</g>
				<g>
					<g>
						<path style="fill:#CFD1D2;" d="M292.578,214.174l-15.002,14.096c-0.091,0.085-0.235,0.081-0.321-0.01l-0.102-0.109
							c-0.086-0.091-0.081-0.236,0.01-0.321l15.003-14.096c0.091-0.085,0.235-0.081,0.321,0.01l0.102,0.109
							C292.673,213.944,292.669,214.088,292.578,214.174z"/>
					</g>
					<g>
						<path style="fill:#CFD1D2;" d="M293.792,215.518l-14.951,14.048c-0.105,0.099-0.272,0.094-0.371-0.012l-0.054-0.057
							c-0.099-0.105-0.094-0.272,0.012-0.371l14.951-14.048c0.105-0.099,0.272-0.094,0.371,0.011l0.054,0.057
							C293.902,215.252,293.897,215.419,293.792,215.518z"/>
					</g>
					<g>
						<path style="fill:#CFD1D2;" d="M295.057,216.813l-15.003,14.096c-0.091,0.086-0.235,0.081-0.321-0.01l-0.102-0.109
							c-0.086-0.091-0.081-0.235,0.01-0.321l15.003-14.096c0.091-0.085,0.236-0.081,0.321,0.01l0.102,0.109
							C295.153,216.583,295.148,216.727,295.057,216.813z"/>
					</g>
					<g>
						<path style="fill:#CFD1D2;" d="M288.701,225.269l-7.406,6.959c-0.091,0.086-0.236,0.081-0.321-0.01l-0.102-0.109
							c-0.086-0.091-0.081-0.235,0.01-0.321l7.406-6.959c0.091-0.085,0.235-0.081,0.321,0.01l0.102,0.109
							C288.796,225.039,288.792,225.184,288.701,225.269z"/>
					</g>
					<g>
						<path style="fill:#CFD1D2;" d="M279.212,234.667l-4.189,3.936c-0.141,0.133-0.363,0.126-0.496-0.016l-4.133-4.398
							c-0.133-0.141-0.126-0.363,0.016-0.496l4.189-3.936c0.141-0.133,0.363-0.126,0.496,0.016l0.63,0.67
							c0.133,0.141,0.126,0.363-0.016,0.496c-0.142,0.133-0.363,0.126-0.496-0.016l-0.389-0.414l-3.677,3.455l3.652,3.887
							l3.678-3.455l-1.629-1.734c-0.133-0.141-0.126-0.363,0.015-0.496c0.141-0.133,0.363-0.126,0.496,0.016l1.869,1.99
							C279.361,234.312,279.354,234.534,279.212,234.667z"/>
					</g>
					<g>
						<path style="fill:#6CB476;" d="M276.146,235.816c-0.008,0.008-0.017,0.015-0.027,0.022c-0.076,0.059-0.174,0.084-0.27,0.068
							l-2.415-0.391c-0.191-0.031-0.321-0.211-0.29-0.403c0.031-0.191,0.21-0.321,0.403-0.29l2.047,0.331l0.496-4.943
							c0.019-0.193,0.191-0.334,0.384-0.314c0.193,0.019,0.333,0.191,0.314,0.384l-0.533,5.314
							C276.246,235.679,276.207,235.758,276.146,235.816z"/>
					</g>
				</g>
				<g>
					<g>
						<path style="fill:#CFD1D2;" d="M298.894,220.896l-15.002,14.096c-0.091,0.085-0.235,0.081-0.321-0.01l-0.102-0.109
							c-0.086-0.091-0.081-0.235,0.01-0.321l15.003-14.097c0.091-0.085,0.236-0.081,0.321,0.01l0.102,0.109
							C298.99,220.667,298.986,220.811,298.894,220.896z"/>
					</g>
					<g>
						<path style="fill:#CFD1D2;" d="M300.134,222.216l-15.002,14.096c-0.091,0.085-0.236,0.081-0.321-0.01l-0.102-0.109
							c-0.086-0.091-0.081-0.235,0.01-0.321l15.003-14.097c0.091-0.086,0.235-0.081,0.321,0.01l0.102,0.109
							C300.23,221.986,300.225,222.13,300.134,222.216z"/>
					</g>
					<g>
						<path style="fill:#CFD1D2;" d="M301.374,223.536l-15.002,14.096c-0.091,0.085-0.236,0.081-0.321-0.01l-0.102-0.109
							c-0.086-0.091-0.081-0.235,0.01-0.321l15.003-14.096c0.091-0.085,0.236-0.081,0.321,0.01l0.102,0.109
							C301.469,223.305,301.465,223.45,301.374,223.536z"/>
					</g>
					<g>
						<path style="fill:#CFD1D2;" d="M295.018,231.992l-7.406,6.959c-0.091,0.085-0.235,0.081-0.321-0.01l-0.103-0.109
							c-0.086-0.091-0.081-0.235,0.01-0.321l7.407-6.959c0.091-0.085,0.235-0.081,0.321,0.01l0.102,0.109
							C295.113,231.762,295.109,231.906,295.018,231.992z"/>
					</g>
					<g>
						<path style="fill:#CFD1D2;" d="M285.529,241.389l-4.189,3.936c-0.141,0.133-0.363,0.126-0.496-0.016l-4.133-4.398
							c-0.133-0.141-0.126-0.363,0.016-0.496l4.189-3.936c0.141-0.133,0.363-0.126,0.496,0.016l0.63,0.67
							c0.133,0.141,0.126,0.363-0.016,0.496c-0.141,0.133-0.363,0.126-0.496-0.015l-0.389-0.414l-3.677,3.455l3.652,3.887
							l3.678-3.455l-1.629-1.734c-0.133-0.141-0.126-0.363,0.015-0.496c0.142-0.133,0.363-0.126,0.496,0.016l1.87,1.99
							C285.677,241.034,285.671,241.256,285.529,241.389z"/>
					</g>
					<g>
						<path style="fill:#6CB476;" d="M282.462,242.538c-0.008,0.008-0.017,0.016-0.027,0.023c-0.076,0.059-0.174,0.084-0.27,0.068
							l-2.415-0.391c-0.191-0.031-0.321-0.211-0.29-0.403c0.031-0.191,0.21-0.321,0.403-0.29l2.047,0.332l0.496-4.944
							c0.018-0.194,0.191-0.334,0.384-0.314c0.193,0.019,0.333,0.191,0.314,0.384l-0.533,5.315
							C282.563,242.402,282.524,242.48,282.462,242.538z"/>
					</g>
				</g>
				<g>
					<g>
						<path style="fill:#CFD1D2;" d="M305.211,227.619l-15.002,14.096c-0.091,0.085-0.235,0.081-0.321-0.01l-0.102-0.109
							c-0.086-0.091-0.081-0.235,0.01-0.321l15.003-14.096c0.091-0.086,0.236-0.081,0.321,0.01l0.102,0.109
							C305.307,227.389,305.302,227.534,305.211,227.619z"/>
					</g>
					<g>
						<path style="fill:#CFD1D2;" d="M306.451,228.939l-15.003,14.096c-0.091,0.085-0.235,0.081-0.321-0.01l-0.102-0.109
							c-0.086-0.091-0.081-0.235,0.01-0.321l15.003-14.096c0.091-0.085,0.235-0.081,0.321,0.01l0.102,0.109
							C306.546,228.709,306.542,228.853,306.451,228.939z"/>
					</g>
					<g>
						<path style="fill:#CFD1D2;" d="M307.691,230.258l-15.002,14.096c-0.091,0.086-0.236,0.081-0.321-0.01l-0.102-0.109
							c-0.086-0.091-0.081-0.235,0.01-0.321l15.003-14.097c0.091-0.086,0.235-0.081,0.321,0.01l0.102,0.109
							C307.786,230.028,307.782,230.173,307.691,230.258z"/>
					</g>
					<g>
						<path style="fill:#CFD1D2;" d="M301.334,238.715l-7.406,6.959c-0.091,0.085-0.235,0.081-0.321-0.01l-0.103-0.109
							c-0.086-0.091-0.081-0.235,0.01-0.321l7.407-6.959c0.091-0.085,0.236-0.081,0.321,0.01l0.102,0.109
							C301.43,238.485,301.425,238.629,301.334,238.715z"/>
					</g>
					<g>
						<path style="fill:#CFD1D2;" d="M291.846,248.112l-4.189,3.936c-0.141,0.133-0.363,0.126-0.496-0.015l-4.133-4.398
							c-0.133-0.141-0.126-0.363,0.016-0.496l4.189-3.936c0.141-0.133,0.363-0.126,0.496,0.015l0.63,0.67
							c0.133,0.141,0.126,0.364-0.016,0.496c-0.141,0.133-0.363,0.126-0.496-0.015l-0.389-0.414l-3.678,3.456l3.652,3.886
							l3.677-3.455l-1.629-1.734c-0.133-0.141-0.126-0.363,0.016-0.496c0.141-0.133,0.363-0.126,0.496,0.015l1.869,1.99
							C291.994,247.757,291.987,247.979,291.846,248.112z"/>
					</g>
					<g>
						<path style="fill:#6CB476;" d="M288.779,249.261c-0.008,0.008-0.017,0.015-0.027,0.022c-0.076,0.059-0.174,0.084-0.27,0.068
							l-2.415-0.391c-0.191-0.031-0.321-0.211-0.29-0.403c0.031-0.191,0.21-0.321,0.403-0.29l2.047,0.332l0.496-4.943
							c0.019-0.194,0.191-0.335,0.384-0.314c0.193,0.019,0.333,0.191,0.314,0.384l-0.533,5.314
							C288.88,249.125,288.84,249.203,288.779,249.261z"/>
					</g>
				</g>
				<g>
					<g>
						<path style="fill:#CFD1D2;" d="M311.502,234.366l-14.951,14.048c-0.105,0.099-0.272,0.094-0.371-0.011l-0.054-0.057
							c-0.099-0.105-0.094-0.272,0.012-0.371l14.951-14.048c0.105-0.099,0.272-0.094,0.371,0.011l0.054,0.057
							C311.612,234.1,311.607,234.267,311.502,234.366z"/>
					</g>
					<g>
						<path style="fill:#CFD1D2;" d="M312.768,235.661l-15.003,14.096c-0.091,0.086-0.235,0.081-0.321-0.01l-0.102-0.109
							c-0.086-0.091-0.081-0.235,0.01-0.321l15.002-14.096c0.091-0.086,0.235-0.081,0.321,0.01l0.102,0.109
							C312.863,235.432,312.859,235.576,312.768,235.661z"/>
					</g>
					<g>
						<path style="fill:#CFD1D2;" d="M314.007,236.981l-15.002,14.096c-0.091,0.085-0.236,0.081-0.321-0.01l-0.102-0.109
							c-0.086-0.091-0.081-0.236,0.01-0.321l15.003-14.097c0.091-0.085,0.235-0.081,0.321,0.01l0.102,0.109
							C314.103,236.751,314.098,236.896,314.007,236.981z"/>
					</g>
					<g>
						<path style="fill:#CFD1D2;" d="M307.651,245.438l-7.406,6.959c-0.091,0.085-0.236,0.081-0.321-0.01l-0.102-0.109
							c-0.086-0.091-0.081-0.236,0.01-0.321l7.406-6.959c0.091-0.085,0.235-0.081,0.321,0.01l0.102,0.109
							C307.746,245.208,307.742,245.352,307.651,245.438z"/>
					</g>
					<g>
						<path style="fill:#CFD1D2;" d="M298.162,254.835l-4.189,3.936c-0.141,0.133-0.363,0.126-0.496-0.015l-4.133-4.398
							c-0.133-0.142-0.126-0.364,0.015-0.496l4.189-3.936c0.142-0.133,0.363-0.126,0.496,0.015l0.63,0.67
							c0.133,0.141,0.126,0.363-0.015,0.496c-0.141,0.133-0.363,0.126-0.496-0.016l-0.389-0.414l-3.677,3.455l3.652,3.886
							l3.678-3.455l-1.629-1.734c-0.133-0.141-0.126-0.363,0.016-0.496c0.141-0.133,0.363-0.126,0.496,0.015l1.87,1.99
							C298.311,254.48,298.304,254.702,298.162,254.835z"/>
					</g>
					<g>
						<path style="fill:#6CB476;" d="M295.096,255.984c-0.009,0.008-0.018,0.016-0.027,0.022c-0.077,0.059-0.174,0.084-0.27,0.068
							l-2.416-0.391c-0.191-0.031-0.321-0.211-0.29-0.403c0.031-0.19,0.211-0.32,0.403-0.29l2.047,0.332l0.496-4.943
							c0.019-0.193,0.191-0.334,0.384-0.314c0.193,0.019,0.333,0.191,0.314,0.384l-0.533,5.315
							C295.197,255.848,295.157,255.926,295.096,255.984z"/>
					</g>
				</g>
				<g>
					<polygon style="fill:#BABCBE;" points="317.473,244.738 317.571,237.136 313.504,239.873 					"/>
				</g>
			</g>
			<path style="fill:#9B7B53;" d="M280.091,210.558l2.708,2.908l-12.109,11.277l-2.708-2.908c-0.767-0.823-0.721-2.109,0.102-2.875
				l4.004-3.729c0.295,0.122,0.646,0.072,0.9-0.165c0.25-0.232,0.325-0.579,0.224-0.882l4.004-3.729
				C278.039,209.689,279.325,209.735,280.091,210.558z"/>
			<path style="fill:#9B7B53;" d="M271.124,213.064c-0.726,0.676-0.767,1.819-0.091,2.545l1.981,2.127
				c0.676,0.726,1.823,0.771,2.549,0.095c0.721-0.672,0.762-1.824,0.086-2.549l-1.981-2.127
				C272.993,212.429,271.845,212.392,271.124,213.064z M272.988,215.066c-0.254,0.237-0.605,0.287-0.9,0.165
				c-0.115-0.04-0.215-0.111-0.301-0.203c-0.323-0.347-0.304-0.882,0.043-1.205c0.342-0.319,0.878-0.3,1.201,0.047
				c0.086,0.092,0.15,0.197,0.181,0.315C273.313,214.488,273.238,214.834,272.988,215.066z"/>
			
				<rect x="267.731" y="217.223" transform="matrix(0.7318 -0.6815 0.6815 0.7318 -74.7589 246.6397)" style="fill:#7F5E40;" width="16.547" height="2.173"/>
		</g>
		<path style="fill:#C58F80;" d="M292.469,250.527c0,0-2.203-3.792-0.647-9.864c0,0,10.94-3.622,25.002-8.912
			c5.851-2.176,12.233-4.661,18.6-7.289c0.86-0.368,1.745-0.739,2.618-1.097c5.063-2.14,12.879-2.424,14.682,1.478
			c0.717,1.552,3.986,5.972,0.548,11.601C348.543,243.6,315.434,247.126,292.469,250.527z"/>
		<path style="fill:#C58F80;" d="M267.135,245.418c1.218-1.473,14.925-6.651,14.925-6.651c-2.869-1.574-6.135-4.215-4.283-5.551
			c1.729-1.248,14.332,5.92,15.922,6.859c0.092,0.546-0.359,0.964-0.255,1.509c-0.046,2.711,0.135,8.108,0.135,8.108
			c-5.829,4.014-8.306,5.761-13.736,5.159c-2.842,0.068-8.443-6.24-8.443-6.24C268.508,249.459,265.917,246.891,267.135,245.418z"/>
		<path style="fill:#9CC7ED;" d="M322.442,166.027l5.174-5.121l5.612,4.154c0,0,11.693,24.861,17.894,43.643l-23.254,10.825
			l-11.371-21.305C316.498,198.224,309.708,179.424,322.442,166.027z"/>
		<path style="fill:#68AAE3;" d="M279.63,172.618c4.903,3.986,36.874-17.766,36.874-17.766c-3.588-1.448-6.392-2.272-6.392-2.272
			s-23.294,18.271-28.21,16.663c-1.94-0.704,0.598-15.494,0.811-15.68c-0.12,0.027-1.728,0.691-3.88,1.674
			C277.717,162.771,277.212,170.665,279.63,172.618z"/>
		<g>
			<path style="fill:#3B3B3B;" d="M267.991,126.799c0,0-3.291,4.86-1.851,7.515c1.44,2.654,2.527,0.824,2.483,4.451
				c-0.044,3.627,3.516,2.409,4.261,1.19c3.249-2.618,3.797,4.6,9.736,1.071c4.283-1.959-4.784-18.765-4.784-18.765l-7.701-1.218
				L267.991,126.799z"/>
			<path style="fill:#3B3B3B;" d="M325.585,124.652c0,0,1.83,3.705,0.473,7.312c-1.356,3.607-4.127,1.292-4.537,2.045
				c-0.41,0.753-0.428,3.823-2.767,4.334c-2.339,0.511-2.482-1.782-3.994-0.733c-0.588,0.529-1.46,3.621-4.322,3.268
				c-4.614-0.221-5.473-5.302-3.354-10.5c2.119-5.198,10.128-14.027,10.384-14.153c0.256-0.127,7.599,2.055,7.599,2.055
				L325.585,124.652z"/>
			<g>
				<ellipse style="fill:#C58F80;" cx="295.415" cy="123.874" rx="18.322" ry="27.158"/>
				<g>
					<g>
						<path style="fill:#3B3B3B;" d="M305.225,120.064c-1.044-0.492-2.294-0.478-3.717,0.042c-0.496,0.182-1.044-0.074-1.225-0.571
							c-0.181-0.496,0.075-1.045,0.57-1.225c1.93-0.704,3.682-0.691,5.209,0.035c2.403,1.145,3.237,4.81,2.738,4.982
							C308.699,123.363,306.884,120.846,305.225,120.064z"/>
					</g>
					<g>
						<path style="fill:#3B3B3B;" d="M280.858,123.594c-0.101,0.001-0.03-3.889,2.355-5.072c1.513-0.751,3.264-0.789,5.207-0.116
							c0.499,0.173,0.762,0.718,0.59,1.216c-0.173,0.499-0.719,0.764-1.217,0.59c-1.438-0.5-2.694-0.491-3.731,0.023
							C282.414,121.052,281.258,123.591,280.858,123.594z"/>
					</g>
				</g>
				<g>
					<g>
						<g>
							<path style="fill:#B56F61;" d="M283.585,130.515c-0.044,0.305-0.829,0.445-1.755,0.314c-0.926-0.132-1.641-0.486-1.597-0.791
								c0.044-0.305,0.829-0.445,1.755-0.313C282.913,129.856,283.628,130.21,283.585,130.515z"/>
							<path style="fill:#B56F61;" d="M283.744,132.344c-0.043-0.305-0.829-0.445-1.754-0.313c-0.926,0.132-1.641,0.486-1.597,0.791
								c0.044,0.305,0.829,0.445,1.755,0.313C283.073,133.003,283.788,132.649,283.744,132.344z"/>
						</g>
						<g>
							<path style="fill:#B56F61;" d="M307.245,132.344c0.043-0.305,0.829-0.445,1.754-0.313c0.926,0.132,1.641,0.486,1.597,0.791
								c-0.043,0.305-0.829,0.445-1.754,0.313C307.916,133.003,307.201,132.649,307.245,132.344z"/>
							<path style="fill:#B56F61;" d="M307.085,130.515c0.043,0.305,0.829,0.445,1.754,0.314c0.926-0.132,1.641-0.486,1.597-0.791
								c-0.043-0.305-0.829-0.445-1.754-0.313C307.757,129.856,307.042,130.21,307.085,130.515z"/>
						</g>
					</g>
					<g>
						<g>
							<path style="fill:#B56F61;" d="M295.585,134.777c-0.039,0-0.077-0.002-0.116-0.005c-0.479-0.042-1.606-0.451-1.725-3.33
								c-0.195-4.713,0.568-7.319,0.601-7.427c0.05-0.168,0.227-0.265,0.396-0.213c0.168,0.05,0.264,0.228,0.214,0.396
								c-0.008,0.025-0.765,2.624-0.574,7.218c0.08,1.94,0.643,2.677,1.144,2.721c0.733,0.073,1.841-1.182,2.308-3.311
								c0.038-0.171,0.209-0.279,0.379-0.243c0.172,0.037,0.281,0.208,0.243,0.38C297.963,133.204,296.77,134.777,295.585,134.777z"
								/>
						</g>
					</g>
				</g>
			</g>
			<g>
				<path style="fill:#434244;" d="M325.889,113.193c0.187-1.673,2.249-4.392,0.844-7.215c-1.406-2.823-4.031-1.987-4.312-4.287
					c-0.281-2.3-1.125-5.855-4.874-5.542c-3.749,0.314-1.781-1.882-4.03-5.333c-2.25-3.451-5.624-0.314-6.749-0.837
					c-1.125-0.523-1.312-6.483-6.936-7.738c-5.624-1.255-7.311,5.228-7.874,5.333c-0.563,0.105-1.687-1.778-3.655-1.255
					c-1.968,0.523-1.125,2.823-2.531,2.719c-1.406-0.105-4.874-0.837-6.936,0c-2.062,0.836-2.718,4.914-2.718,4.914
					s-3.281-1.359-5.249,0c-1.968,1.36-1.406,3.974-1.968,5.96c-0.563,1.987-3.187,1.359-6.186,4.601
					c-3,3.242-0.469,9.724-1.781,10.456c-1.313,0.732-2.906,2.928-2.531,5.96c0.375,3.033,5.343,3.241,5.249,6.065
					c-0.094,2.823-2.156,4.601,1.406,5.646c3.562,1.046,5.811-6.588,5.811-6.588c1.5,1.15,4.968,0.837,7.78-1.464
					c2.812-2.3,0.75-7.11,0.469-8.783c-0.281-1.673,0.996-1.427,3.808-2.264c2.812-0.837,3.55-5.229,3.55-5.229
					c3.283,1.489,4.108-2.275,6.03-0.889c-2.126,1.945-1.349,4.953-1.078,7.126c0.014,0.115,0.016,0.224,0.018,0.333
					c-0.026,0.093-0.054,0.203-0.085,0.353c-0.337,1.665-2.627,2.465-3.405,1.838c-0.778-0.628-0.097-1.838-0.097-1.838
					c-1.264,0.358-1.555,3.249,1.086,3.214c0.152-0.002,0.294-0.015,0.431-0.034c2.774,0.343,3.443-3.466,3.989-6.306
					c0.307-1.596,1.853-2.705,3.196-3.384c0.717-0.173,1.436-0.48,2.099-0.834l0.001,0v0c1.706-0.91,3.046-2.125,3.046-2.125l0,0
					l0,0c0,0-1.718,5.159,2.343,8.156c4.062,2.998,2.937,6.274,2.187,6.901c-0.75,0.628-2.079,0.418-2.079,0.418
					s2.079,1.185,3.829-0.418c1.75-1.603,0.937-4.895,0-5.654c-0.571-0.463-0.932-1.756-0.944-2.886
					c2.418,0.956,5.246-1.245,4.505,2.371c-0.75,3.66,0.563,6.588,3.656,7.842c3.093,1.255,5.159-3.553,6.284-2.717
					c1.125,0.836,0.84,2.717,2.621,4.285c1.781,1.568,4.874,0.314,4.968-2.196C329.169,119.362,325.701,114.866,325.889,113.193z"/>
				<path style="fill:#3B3B3B;" d="M303.927,103.888c1,0.443,2.055,0.651,3.087,0.623c0.515-0.016,1.028-0.076,1.526-0.21
					c0.251-0.055,0.494-0.147,0.742-0.219c0.262-0.083,0.545-0.171,0.823-0.23c0.561-0.122,1.137-0.153,1.705-0.137
					c0.57,0.038,1.132,0.131,1.674,0.308c0.537,0.186,1.058,0.488,1.431,0.963c0.373,0.474,0.559,1.097,0.563,1.709l-0.013,0.459
					c-0.015,0.151-0.047,0.297-0.071,0.447c-0.046,0.316-0.116,0.556-0.162,0.832c-0.099,0.537-0.175,1.083-0.226,1.631
					c-0.098,1.098-0.086,2.205-0.014,3.294c0.068,1.088,0.228,2.178,0.609,3.155c0.193,0.487,0.457,0.934,0.834,1.265
					c0.371,0.341,0.88,0.506,1.424,0.524l0.011,0.095c-0.535,0.148-1.173,0.108-1.701-0.211c-0.534-0.308-0.934-0.807-1.221-1.333
					c-0.586-1.064-0.821-2.249-0.941-3.41c-0.104-1.17-0.035-2.34,0.134-3.491c0.085-0.576,0.199-1.149,0.37-1.71
					c0.078-0.277,0.2-0.569,0.271-0.807c0.039-0.125,0.088-0.251,0.12-0.379l0.069-0.386c0.054-0.512-0.004-1.058-0.306-1.486
					c-0.29-0.432-0.765-0.717-1.268-0.862c-1.034-0.269-2.114-0.02-3.098,0.304c-0.253,0.075-0.484,0.186-0.745,0.264
					c-0.276,0.088-0.546,0.197-0.834,0.242c-0.565,0.133-1.15,0.169-1.726,0.124c-1.147-0.092-2.277-0.511-3.121-1.289
					L303.927,103.888z"/>
				<path style="fill:#3B3B3B;" d="M306.311,98.606c1.129,0.858,2.557,0.985,3.843,0.71c0.634-0.143,1.323-0.38,2.011-0.55
					c0.689-0.181,1.398-0.324,2.135-0.361c0.728-0.021,1.519,0.049,2.21,0.462c0.332,0.218,0.627,0.517,0.79,0.878
					c0.041,0.09,0.091,0.174,0.129,0.263l0.084,0.277c0.068,0.182,0.083,0.372,0.114,0.558c0.099,0.739,0.142,1.455,0.26,2.172
					c0.104,0.712,0.275,1.422,0.584,2.015c0.164,0.29,0.361,0.547,0.605,0.745c0.252,0.189,0.52,0.355,0.826,0.466
					c0.144,0.068,0.31,0.101,0.462,0.158c0.165,0.057,0.373,0.138,0.556,0.214c0.359,0.204,0.712,0.465,0.95,0.822
					c0.517,0.695,0.666,1.548,0.683,2.335c0.013,0.799-0.141,1.574-0.397,2.308c-0.13,0.367-0.299,0.722-0.495,1.066
					c-0.144,0.244-0.153,0.373-0.09,0.632c0.081,0.247,0.257,0.523,0.468,0.783c0.208,0.264,0.443,0.526,0.683,0.787
					c0.482,0.523,0.975,1.069,1.401,1.681c0.418,0.607,0.757,1.341,0.744,2.097l-0.092,0.008c-0.143-0.71-0.553-1.287-1.015-1.799
					c-0.463-0.518-1.008-0.959-1.541-1.44c-0.523-0.496-1.11-0.942-1.489-1.79c-0.084-0.219-0.139-0.479-0.117-0.747
					c0.01-0.265,0.137-0.534,0.229-0.711c0.149-0.289,0.284-0.594,0.384-0.915c0.222-0.632,0.342-1.307,0.362-1.965
					c0.016-0.653-0.086-1.315-0.421-1.798c-0.149-0.259-0.384-0.43-0.623-0.599c-0.14-0.064-0.256-0.123-0.42-0.193
					c-0.175-0.075-0.352-0.13-0.521-0.229c-0.345-0.163-0.669-0.406-0.95-0.686c-0.28-0.29-0.487-0.642-0.636-1.001
					c-0.297-0.727-0.356-1.476-0.439-2.202c-0.078-0.725-0.124-1.464-0.244-2.163c-0.117-0.687-0.484-1.318-1.063-1.558
					c-0.574-0.25-1.246-0.23-1.904-0.137c-0.663,0.087-1.333,0.241-2.009,0.392c-0.681,0.15-1.336,0.35-2.085,0.457
					c-0.733,0.097-1.494,0.055-2.204-0.167c-0.705-0.226-1.37-0.619-1.822-1.215L306.311,98.606z"/>
				<path style="fill:#3B3B3B;" d="M301.902,100.119c-0.799-0.47-1.643-0.856-2.507-1.107c-0.43-0.134-0.869-0.208-1.303-0.263
					c-0.434-0.024-0.869-0.032-1.28,0.065c-0.418,0.067-0.796,0.254-1.154,0.46c-0.38,0.243-0.759,0.509-1.135,0.78
					c-0.752,0.543-1.517,1.097-2.347,1.573c-0.828,0.468-1.745,0.854-2.718,0.966c-0.975,0.149-1.962-0.207-2.78-0.59
					c-0.84-0.345-1.75-0.53-2.654-0.515c-0.902,0.011-1.802,0.242-2.554,0.689c-0.766,0.444-1.263,1.206-1.469,2.031
					c-0.066,0.203-0.061,0.429-0.098,0.641c-0.025,0.224-0.042,0.49-0.064,0.734c-0.067,0.498-0.16,1.001-0.341,1.489
					c-0.322,0.995-1.034,1.85-1.794,2.463c-0.763,0.631-1.57,1.103-2.339,1.62l-0.58,0.378c-0.177,0.119-0.305,0.228-0.431,0.365
					c-0.23,0.276-0.36,0.628-0.409,1.035c-0.081,0.825,0.145,1.754,0.375,2.66c0.24,0.913,0.511,1.842,0.678,2.81
					c0.082,0.483,0.122,0.984,0.068,1.484c-0.055,0.497-0.236,0.997-0.568,1.354l-0.072-0.061c0.251-0.394,0.347-0.854,0.341-1.309
					c-0.01-0.459-0.112-0.913-0.227-1.363c-0.24-0.902-0.608-1.775-0.917-2.689c-0.3-0.915-0.62-1.865-0.574-2.965
					c0.028-0.545,0.212-1.138,0.582-1.597c0.183-0.22,0.411-0.417,0.619-0.564l0.582-0.404c1.543-1.059,3.253-1.887,3.852-3.545
					c0.169-0.4,0.256-0.843,0.346-1.286l0.1-0.692c0.055-0.257,0.07-0.519,0.163-0.767c0.294-1.014,1.044-1.871,1.937-2.286
					c0.887-0.444,1.857-0.566,2.796-0.552c0.943,0.028,1.874,0.218,2.759,0.55c0.221,0.09,0.444,0.168,0.651,0.237
					c0.208,0.084,0.425,0.129,0.643,0.162c0.215,0.051,0.439,0.023,0.655,0.04c0.218-0.029,0.436-0.03,0.648-0.088
					c0.857-0.186,1.651-0.616,2.403-1.126c0.76-0.499,1.5-1.059,2.278-1.588c0.389-0.266,0.78-0.527,1.192-0.776
					c0.454-0.244,0.938-0.437,1.44-0.493c1.002-0.145,1.985,0.076,2.86,0.45c0.445,0.177,0.861,0.413,1.263,0.665
					c0.402,0.252,0.786,0.529,1.139,0.849L301.902,100.119z"/>
				<path style="fill:#3B3B3B;" d="M303.227,95.653c-0.921-0.976-1.915-1.879-2.984-2.646c-1.063-0.756-2.233-1.411-3.448-1.562
					c-0.301-0.038-0.6-0.026-0.892,0.011c-0.292,0.055-0.558,0.133-0.847,0.275c-0.576,0.243-1.098,0.577-1.529,1.02
					c-0.436,0.441-0.78,0.987-1.23,1.55c-0.423,0.583-1.148,1.056-1.867,1.191c-0.718,0.143-1.428,0.091-2.088-0.002
					c-0.669-0.088-1.327-0.216-1.975-0.363c-1.297-0.281-2.574-0.662-3.871-0.68c-0.642,0.002-1.291,0.1-1.851,0.409
					c-0.563,0.304-1.008,0.787-1.374,1.346c-0.75,1.109-1.137,2.41-1.747,3.666c-0.308,0.62-0.72,1.267-1.378,1.667
					c-0.169,0.078-0.335,0.179-0.513,0.233c-0.178,0.043-0.359,0.118-0.539,0.129l-0.977,0.096
					c-1.193,0.239-2.313,0.946-3.181,1.859c-0.874,0.896-1.52,2.105-1.498,3.268c0.019,0.141,0.014,0.287,0.047,0.424
					c0.041,0.138,0.075,0.264,0.112,0.413c0.055,0.192,0.113,0.383,0.16,0.579c0.014,0.214,0.06,0.421,0.034,0.643
					c-0.022,0.449-0.211,0.876-0.443,1.213c-0.241,0.322-0.508,0.592-0.773,0.814c-0.531,0.454-1.041,0.84-1.447,1.302
					c-0.408,0.457-0.698,0.983-0.849,1.572c-0.173,0.579-0.167,1.231-0.127,1.886c0.047,0.658,0.143,1.325,0.256,1.993
					c0.226,1.338,0.5,2.69,0.632,4.077c0.065,0.692,0.075,1.402-0.045,2.1c-0.109,0.693-0.421,1.391-0.963,1.823l-0.061-0.073
					c0.462-0.48,0.68-1.134,0.727-1.792c0.053-0.662-0.023-1.332-0.124-1.997c-0.21-1.332-0.589-2.642-0.882-3.989
					c-0.147-0.674-0.282-1.358-0.364-2.063c-0.067-0.703-0.107-1.448,0.079-2.195c0.156-0.743,0.531-1.447,1.013-2.002
					c0.477-0.562,1.035-0.996,1.513-1.424c0.243-0.214,0.452-0.425,0.617-0.643c0.146-0.221,0.243-0.436,0.255-0.678
					c0.02-0.118-0.019-0.253-0.018-0.38l-0.113-0.408c-0.051-0.181-0.103-0.386-0.15-0.578c-0.04-0.196-0.037-0.397-0.053-0.595
					c-0.005-0.797,0.232-1.542,0.566-2.197c0.333-0.661,0.781-1.236,1.285-1.737c0.999-1.009,2.269-1.751,3.688-1.971l0.999-0.056
					c0.151,0.001,0.285-0.052,0.43-0.073c0.142-0.032,0.267-0.103,0.404-0.151c0.514-0.266,0.909-0.778,1.235-1.346
					c0.325-0.572,0.598-1.198,0.904-1.811c0.306-0.613,0.637-1.221,1.03-1.788c0.395-0.555,0.882-1.097,1.501-1.417
					c0.614-0.327,1.305-0.454,1.978-0.461c0.677-0.017,1.343,0.069,2.001,0.164l1.963,0.3c0.651,0.1,1.299,0.18,1.945,0.22
					c0.65,0.052,1.28,0.032,1.854-0.109c0.577-0.144,1.023-0.459,1.408-0.963c0.39-0.492,0.768-1.106,1.293-1.613
					c0.517-0.515,1.149-0.902,1.799-1.162c0.311-0.146,0.688-0.245,1.048-0.296c0.365-0.035,0.73-0.031,1.084,0.027
					c0.708,0.111,1.364,0.382,1.967,0.715c0.605,0.334,1.163,0.736,1.684,1.176c0.526,0.435,1.008,0.917,1.469,1.416
					c0.459,0.501,0.898,1.02,1.29,1.578L303.227,95.653z"/>
			</g>
			<path style="fill:#434244;" d="M305.9,125.778c-0.173-0.451-0.429-0.871-0.783-1.212c-0.283-0.288-0.641-0.488-1.022-0.63
				c-0.388-0.11-0.794-0.138-1.187-0.08c-0.783,0.149-1.458,0.587-1.965,1.15c-0.515,0.554-0.909,1.224-1.117,1.978
				c0.582-0.431,1.112-0.843,1.651-1.181c0.536-0.335,1.072-0.598,1.594-0.676c1.038-0.224,2.058,0.441,3.051,1.532l1.796-1.624
				L305.9,125.778z"/>
			<path style="fill:#434244;" d="M284.068,125.491c0.184-0.447,0.451-0.86,0.813-1.192c0.291-0.28,0.654-0.471,1.038-0.603
				c0.391-0.1,0.798-0.118,1.189-0.05c0.779,0.169,1.443,0.624,1.935,1.2c0.501,0.567,0.877,1.246,1.066,2.006
				c-0.571-0.446-1.09-0.871-1.62-1.223c-0.527-0.348-1.057-0.626-1.576-0.717c-1.032-0.25-2.069,0.388-3.089,1.454l-1.754-1.669
				L284.068,125.491z"/>
			<g>
				<path style="fill:#B56F61;" d="M295.993,141.212c-4.213,0.218-6.941-3.406-7.055-3.56c-0.1-0.136-0.088-0.339,0.027-0.453
					c0.114-0.116,0.291-0.098,0.392,0.038c0.026,0.035,2.669,3.535,6.603,3.331c3.921-0.203,5.621-3.897,5.637-3.934
					c0.071-0.157,0.239-0.215,0.374-0.132c0.136,0.084,0.19,0.279,0.119,0.436C302.016,137.103,300.226,140.992,295.993,141.212z"/>
			</g>
		</g>
	</g>
	<g>
		<path style="fill:#583C1C;" d="M216.11,95.916c-8.789-11.233-18.387-2.213-18.387-2.213l6.845,7.417c0,0,2.298,8.162,9.635,13.342
			c0,0,0.087,0.474,0.206,1.244l-35.16-3.332c0,0,4.223,6.874-8.083,20.333c-12.64,13.825-10.603,30.999-10.603,30.999l57.603,2.941
			l0.544-41.218c0.018-0.032,0.035-0.056,0.054-0.089C221.778,120.061,224.9,107.148,216.11,95.916z"/>
		<g>
			<path style="fill:#E5B7AC;" d="M228.457,183.457c0,0,12.622,44.45,11.768,97.256c0,0-5.14,2.119-10.654-0.39
				c0,0-4.639-48.562-16.488-75.427c-2.687-5.747-1.956-13.327-0.385-17.607C226.338,166.594,228.457,183.457,228.457,183.457z"/>
			<g>
				<path style="fill:#E5B7AC;" d="M236.531,289.853c0,0-3.053,5.685-3.591,6.224c-0.538,0.539-4.369,1.996-4.713,2.938
					c-0.344,0.942,0.881,2.072,3.702,1.071c2.821-1,3.61-1.293,4.153-1.832c0.543-0.539,3.86-6.462,3.86-6.462L236.531,289.853z"/>
				<path style="fill:#E5B7AC;" d="M237.492,291.314c0,0-2.617,7.01-3.154,7.706c-0.537,0.697-4.747,2.889-4.993,4.03
					c-0.246,1.14,1.361,2.296,4.474,0.765c3.113-1.53,3.981-1.973,4.524-2.67c0.543-0.697,3.428-8.017,3.428-8.017L237.492,291.314z
					"/>
				<path style="fill:#E5B7AC;" d="M240.223,280.448c0,0,2.754,8.245,3.132,10.732c0.378,2.488-4.587,11.964-5.282,14.799
					c-1.063,2.899-3.721,2.306-3.087-1.701c0.594-4.324,2.646-11.373,2.721-11.978c0.075-0.604-3.415-4.081-3.904-4.285
					c-0.49-0.204-2.741,2.883-2.901,3.479c-0.16,0.595,1.296,4.64-1.433,6.573c-2.729,1.933-3.895-6.757-3.519-8.401
					c0.375-1.644,1.053-7.402,4.552-10.479l8.242,0.035L240.223,280.448z"/>
			</g>
			<path style="fill:#FFFFFF;" d="M243.178,279.187c0,0-8.093,3.644-13.607,1.135c0,0-4.639-48.562-16.488-75.427
				c-2.687-5.747-1.956-13.327-0.385-17.607c3.978-6.036,10.733-14.205,10.733-14.205S242.328,193.262,243.178,279.187z"/>
			<path style="opacity:0.4;fill:#D0D1D3;" d="M241.142,279.953c0,0-6.057,2.879-11.571,0.37c0,0-4.639-48.562-16.488-75.427
				c-2.687-5.747-1.956-13.327-0.385-17.607c3.978-6.036,10.733-14.205,10.733-14.205s9.143,7.249,9.924,32.018
				C234.057,227.328,239.942,274.715,241.142,279.953z"/>
		</g>
		<path style="fill:#E5B7AC;" d="M190.566,152.176c-22.504,6.39-33.358,14.689-33.358,14.689l20.743,40.647
			c0,0,3.403,16.184-0.836,23.967c-15.156,13.151-11.909,27.512-11.909,27.512c10.455,7.091,41.868,3.144,41.868,3.144
			s10.842-3.179,18.536-13.198c0,0-3.394-20.301-0.939-31.594c5.051-15.918,6.538-27.212,2.626-38.739
			C222.932,170.781,211.279,152.471,190.566,152.176z"/>
		<g>
			<path style="fill:#E5B7AC;" d="M203.088,243.069l0.475,7.435l0.164,2.662l0.165,2.715l5.786,91.585l5.293,69.443l0.407,5.297
				c0,0-0.479,9.725-0.979,11.224c-2.526,4.348,0.865,12.156,1.206,15.774c0.278,3.829,22.573,7.992,23.18,1.414
				c-1.361-4.805-10.209-17.845-10.606-20.099c-0.397-2.241-0.531-9.613-0.531-9.613l1.952-58.423l0.503-15.17l4.363-90.52
				l0.011-0.315l-5.216-15.114l-9.757,0.519l-4.262,0.229L203.088,243.069z"/>
			<path style="fill:#434244;" d="M235.087,441.925c0,0-0.45,4.867-7.559,4.698c-7.108-0.168-11.309-5.77-11.309-5.77
				s-1.174-5.942-1.449-6.397c-0.275-0.455-0.351-6.777-0.351-6.777s-2.509,7.856-1.516,11.45c0,0,1.861,9.204,3.28,11.665
				c1.42,2.461,8.852,4.617,15.747,4.607C238.826,455.391,242.892,450.814,235.087,441.925z"/>
			<path style="fill:#E5B7AC;" d="M164.132,415.041l-0.585,5.27c0,0-2.277,9.473-3.042,10.859
				c-3.288,3.802-1.406,12.103-1.739,15.717c-0.435,3.821,20.702,12.046,22.51,5.698c-0.447-4.975-6.719-19.431-6.69-21.72
				c0.027-2.274,1.576-9.408,1.264-9.545l16.063-71.858l13.237-72.503l5.6-31.766l-28.872-15.027c0,0-8.125,7.335-8.942,16.907
				c-2.066,27.048-1.114,98.751-1.114,98.751L164.132,415.041z"/>
			<path style="fill:#D7A39B;" d="M171.55,327.37l23.471,4.009c0,0-3.443,19.579-5.342,27.904
				c-2.836,13.727-12.145,54.736-12.145,54.736l11.846-78.766L171.55,327.37z"/>
			<path style="fill:#D7A39B;" d="M230.943,330.347l-2.471,67.126l-0.882,24.58l-1.483-86.96l-17.238-2.654
				C219.297,332.364,230.683,330.624,230.943,330.347z"/>
			<path style="fill:#434244;" d="M179.153,444.709c0,0-1.48,4.658-8.388,2.975c-6.908-1.684-9.815-8.053-9.815-8.053
				s0.123-6.056-0.049-6.559c-0.172-0.503,1.105-6.695,1.105-6.695s-4.13,7.138-3.927,10.862c0,0-0.149,9.389,0.712,12.096
				c0.861,2.708,7.661,6.402,14.399,7.865C179.929,458.663,184.879,455.06,179.153,444.709z"/>
		</g>
		<path style="fill:#434244;" d="M177.445,237.296c0,0-10.191,16.658-12.028,37.887c-1.837,21.229-4.853,71.17-4.853,71.17
			s47.285,9.265,79.355,1.563l-5.084-88.339L177.445,237.296z"/>
		<polygon style="fill:#E5B7AC;" points="184.822,136.386 179.25,158.291 203.685,158.999 203.736,144.443 196.831,134.96 		"/>
		<path style="opacity:0.5;fill:#CA7E86;" d="M186,140.519c0.085,0.428,1.037,8.132,9.302,10.585
			c3.116,0.926,6.334,1.261,8.407,1.135l0.028-7.797l0,0C203.736,144.443,194.734,145.91,186,140.519z"/>
		<path style="fill:#4B804D;" d="M230.673,357.35"/>
		<path style="fill:#E38669;" d="M162.22,253.398c0,0,7.531,4.592,19.78,8.277c0,0,0,0,0.015,0.011
			c3.631,1.089,7.687,2.095,12.091,2.873c0.795,0.151,1.614,0.285,2.446,0.416c14.181,2.563,24.744-0.244,28.488-1.5
			c0.983-0.331,1.491-0.56,1.491-0.56c1.27-4.976,1.13-12.846,0.695-20.816c-0.544-10.211-1.554-20.586-0.647-25.264
			c1.592-8.336,8.57-17.223,6.343-28.969c-1.511-8.461-11.583-23.526-11.583-23.526c-5.557-4.299-13.965-7.488-13.965-7.488
			s0.245,7.787,1.211,12.535c0.995,4.849-9.247,6.415-15.048,1.676c-7.366-6.04-14.324-15.462-14.324-15.462
			s-19.81,7.435-22.398,10.338c-3.975,2.953,10.21,21.116,10.21,21.116s1.499,2.788,5.342,10.128
			c4.724,8.938,9.105,26.291,3.431,33.213C170.109,237.308,162.22,253.398,162.22,253.398z"/>
		<path style="fill:#FFFFFF;" d="M224.524,335.342l20.497-5.926c0,0-17.216-118.908-15.358-119.965
			c1.847-1.056,6.002-15.656,5.09-20.781c-0.914-5.136-12.157-23.677-14.338-25.684c-2.169-1.999-16.534-8.54-16.534-8.54
			l0.014,0.019c0.329,0.854,11.041,28.34,13.199,42.316c0.542,3.488,0.611,9.807,0.411,17.364
			C216.917,237.295,224.524,335.342,224.524,335.342z"/>
		<path style="fill:#E5E5E6;" d="M217.095,196.78c0.542,3.488,0.611,9.807,0.411,17.364l0.397,1.206l3.754-42.031l-8.381-3.515
			l3.54-4.189l-12.921-11.151C204.225,155.318,214.936,182.804,217.095,196.78z"/>
		<path style="fill:#FFFFFF;" d="M201.567,335.342l-47.192-4.995c0,0,8.145-88.979,6.597-97.561
			c-0.415-2.277-1.595-6.95-2.996-12.794c-3.872-16.195-9.411-41.369-4.812-49.195c2.931-10.711,27.515-18.141,27.515-18.141
			s18.343,30.077,20.961,44.18c0.756,4.13,2.111,12.241,3.641,21.662v0.009C208.987,241.275,201.567,335.342,201.567,335.342z"/>
		<path style="opacity:0.4;fill:#D0D1D3;" d="M154.375,330.347c0,0,8.145-88.979,6.597-97.561c-0.415-2.277-1.595-6.95-2.996-12.794
			l11.402-10.084c0,0,2.589,33.826,0.59,66.358c-3.053,49.674,8.104,49.884,23.395,58.208L154.375,330.347z"/>
		<path style="fill:#E5E5E6;" d="M186.346,168.481l-7.102,7.518l26.037,42.497c-1.531-9.423-2.882-17.531-3.643-21.656
			c-2.617-14.105-20.961-44.181-20.961-44.181l-5.316,10.912L186.346,168.481z"/>
		<g>
			<polygon style="fill:#599C8D;" points="142.555,259.331 140.724,301.622 193.121,304.892 195.016,302.777 196.795,261.68 			"/>
			<polygon style="fill:#4B8C7B;" points="141.633,259.331 139.802,301.622 193.185,303.412 194.108,302.461 195.873,261.68 			"/>
			
				<rect x="145.751" y="255.427" transform="matrix(0.0433 -0.9991 0.9991 0.0433 -122.6125 437.1091)" style="fill:#72C7B5;" width="42.331" height="54.291"/>
			<path style="fill:#FFFFFF;" d="M190.171,280.697c0,3.352-2.717,6.068-6.068,6.068c-3.351,0-6.068-2.717-6.068-6.068
				c0-3.351,2.717-6.068,6.068-6.068C187.454,274.628,190.171,277.345,190.171,280.697z"/>
			<path style="fill:#E5B7AC;" d="M173.011,306.246c0.33-1.883-4.63-15.67-4.63-15.67c3.06,1.161,7.189,1.93,7.003-0.346
				c-0.173-2.125-10.658-7.282-12.405-7.883c-0.475,0.284-10.639,1.575-10.639,1.575c-0.768,8.373,0.664,15.273,4.647,19.012
				c1.793,2.206,10.826,2.141,10.826,2.141C169.045,307.825,172.681,308.129,173.011,306.246z"/>
			<path style="fill:#E5B7AC;" d="M152.072,177.075c0,0-7.878,49.942-0.021,107.193c0,0,5.861,1.628,11.522-1.822
				c0,0-1.333-53.361,8.013-84.099c2.165-6.596,0.376-14.733-1.892-19.177C152.161,158.479,152.072,177.075,152.072,177.075z"/>
			<path style="fill:#FFFFFF;" d="M172.365,197.187c-9.347,30.732-5.964,84.149-5.964,84.149c-1.512,0.922-3.484,1.585-5.568,2.065
				c-5.724,1.327-12.269,1.254-12.269,1.254c-7.863-57.251,3.355-112.659,3.355-112.659s4.627-14.509,18.039,2.019
				c1.208,2.36,2.415,6.867,2.959,11.577C173.416,189.767,173.379,194.09,172.365,197.187z"/>
			<path style="opacity:0.4;fill:#D0D1D3;" d="M172.365,197.187c-9.347,30.732-5.964,84.149-5.964,84.149
				c-1.512,0.922-3.484,1.585-5.568,2.065c-0.359-54.2,2.01-60.395,6.084-81.346c1.346-6.923,4.305-7.135,4.673-19.56
				c0.544,1.06,0.995,2.074,1.327,3.097C174.015,188.854,174.015,192.163,172.365,197.187z"/>
			<polygon style="fill:#C53E5D;" points="187.431,279.746 185.244,279.651 185.339,277.464 183.152,277.368 183.057,279.555 
				180.869,279.46 180.774,281.647 182.961,281.742 182.866,283.93 185.053,284.025 185.148,281.838 187.335,281.933 			"/>
		</g>
		<g>
			<path style="fill:#E5B7AC;" d="M176.088,122.808c2.269,15.805,12.753,27.376,23.415,25.845
				c10.663-1.531,17.466-15.585,15.197-31.39c-2.27-15.805-12.753-27.376-23.416-25.845
				C180.623,92.95,173.819,107.003,176.088,122.808z"/>
			<g>
				<g>
					<g>
						<path style="fill:#CA7E86;" d="M210.715,127.858c0.049,0.324,0.886,0.467,1.87,0.32c0.984-0.148,1.742-0.53,1.694-0.854
							c-0.049-0.324-0.886-0.467-1.87-0.32C211.425,127.151,210.667,127.534,210.715,127.858z"/>
						<path style="fill:#CA7E86;" d="M210.56,129.806c0.044-0.325,0.879-0.48,1.865-0.348c0.986,0.133,1.75,0.504,1.706,0.829
							c-0.044,0.325-0.879,0.48-1.865,0.348C211.281,130.502,210.517,130.131,210.56,129.806z"/>
					</g>
					<g>
						<path style="fill:#CA7E86;" d="M185.544,129.994c-0.048-0.324-0.886-0.467-1.87-0.32c-0.984,0.148-1.743,0.53-1.694,0.854
							s0.886,0.467,1.87,0.32C184.834,130.701,185.593,130.318,185.544,129.994z"/>
						<path style="fill:#CA7E86;" d="M185.699,128.046c-0.044,0.325-0.879,0.48-1.865,0.348c-0.986-0.133-1.75-0.504-1.707-0.829
							c0.044-0.325,0.879-0.48,1.865-0.348C184.979,127.35,185.743,127.721,185.699,128.046z"/>
					</g>
				</g>
				<g>
					<g>
						<path style="fill:#CA7E86;" d="M200.38,133.189c0.041-0.003,0.082-0.009,0.123-0.016c0.505-0.087,1.664-0.621,1.533-3.686
							c-0.214-5.017-1.256-7.713-1.301-7.825c-0.068-0.174-0.264-0.261-0.439-0.191c-0.174,0.068-0.259,0.265-0.192,0.44
							c0.011,0.026,1.046,2.715,1.254,7.605c0.089,2.065-0.443,2.897-0.97,2.989c-0.771,0.143-2.058-1.089-2.744-3.307
							c-0.055-0.178-0.247-0.278-0.424-0.223c-0.179,0.055-0.279,0.245-0.224,0.424C197.716,131.733,199.123,133.295,200.38,133.189
							z"/>
					</g>
					<g>
						<path style="fill:#CA7E86;" d="M198.602,138.144c4.273-0.36,6.566-3.856,6.662-4.004c0.084-0.131,0.046-0.305-0.085-0.389
							c-0.13-0.085-0.305-0.047-0.39,0.084c-0.022,0.034-2.245,3.411-6.235,3.747c-3.977,0.335-6.154-2.645-6.175-2.675
							c-0.091-0.127-0.268-0.155-0.393-0.065c-0.127,0.09-0.156,0.266-0.065,0.393C192.016,135.369,194.309,138.506,198.602,138.144
							z"/>
					</g>
					<g>
						<g>
							<path style="fill:#583C1C;" d="M188.245,114.613c1.248-0.476,2.719-0.403,4.373,0.215c0.576,0.216,1.232-0.031,1.465-0.551
								c0.232-0.519-0.046-1.115-0.623-1.33c-2.242-0.837-4.305-0.904-6.131-0.202c-2.873,1.108-4,4.969-3.42,5.175
								C184.027,117.963,186.262,115.369,188.245,114.613z"/>
						</g>
					</g>
					<g>
						<g>
							<path style="fill:#583C1C;" d="M209.196,114.799c-1.185-0.324-2.494-0.078-3.89,0.729c-0.486,0.282-1.109,0.115-1.39-0.373
								c-0.281-0.486-0.114-1.109,0.372-1.39c1.893-1.093,3.733-1.403,5.468-0.923c2.73,0.758,4.28,4.447,3.789,4.719
								C213.446,117.617,211.079,115.313,209.196,114.799z"/>
						</g>
					</g>
				</g>
				<path style="fill:#434244;" d="M204.814,122.967c-0.139-2.167,0.516-3.788,1.228-3.892l3.516,0.106c0,0-0.6,0.729-2.544,0.881
					c0.286,0.677,0.311,1.427,0.382,2.528c0.138,2.167-0.327,4.009-1.04,4.113C205.643,126.808,204.953,125.135,204.814,122.967z"/>
				<path style="fill:#434244;" d="M189.653,122.863c0.005-1.07,0.172-2.041,0.435-2.747c-2.229-0.062-2.809-0.846-2.809-0.846
					l3.789-0.29c0.772-0.039,1.39,1.635,1.381,3.74c-0.009,2.105-0.643,3.843-1.415,3.882
					C190.263,126.643,189.644,124.968,189.653,122.863z"/>
			</g>
			<g>
				<g>
					<path style="fill:#434244;" d="M207.908,129.696c-5.159-0.013-6.732-7.266-6.844-11.099l-0.015-0.523l0.428-0.142
						c7.712-2.547,14.309,0.081,14.585,0.193l0.479,0.196l-0.112,0.581c-0.081,0.416-1.933,9.646-7.464,10.696
						C208.627,129.664,208.275,129.698,207.908,129.696z M202.229,119.075c0.157,2.03,1.044,9.278,5.682,9.289
						c4.644,0.001,6.748-7.033,7.275-9.159C213.565,118.675,208.242,117.233,202.229,119.075z"/>
				</g>
				<g>
					<path style="fill:#434244;" d="M190.635,130.26c-6.76-0.137-8.794-11.229-8.876-11.701l-0.104-0.584l0.483-0.185
						c0.296-0.112,7.374-2.756,15.564,0.15l0.427,0.151l-0.024,0.523c-0.173,3.786-1.738,10.68-6.35,11.556
						C191.399,130.236,191.026,130.268,190.635,130.26z M182.996,118.89c0.509,2.236,2.63,9.936,7.659,10.038
						c5.01,0.1,6.079-7.744,6.278-9.866C190.484,116.928,184.7,118.364,182.996,118.89z"/>
				</g>
				<g>
					<path style="fill:#434244;" d="M201.567,122.256l0.847-0.886c-1.711-2.256-4.36-1.17-5.522-0.281l0.619,1.116
						C197.614,122.129,200.078,120.29,201.567,122.256z"/>
				</g>
				<g>
					<polygon style="fill:#434244;" points="182.142,119.242 182.012,117.921 177.04,118.138 177.148,119.46 					"/>
				</g>
			</g>
			<path style="fill:#583C1C;" d="M175.652,91.954c9.106-18.177,45.182-6.626,45.765,16.463l-3.026,4.601
				C218.39,113.017,181.985,111.898,175.652,91.954z"/>
			<path style="fill:#583C1C;" d="M163.941,150.753c3.129-0.633,13.337-3.961,15.386-10.76c2.048-6.799,0.423-21.112,0.423-21.112
				c-0.5-13.239,10.967-16.631,10.967-16.631c2.313-8.015-2.656-17.618-14.667-11.038c-10.649,5.834-14.272,11.006-11.46,27.669
				c0.978,5.795,2.218,13.661,0.91,22.994C164.638,145.423,163.98,148.358,163.941,150.753z"/>
		</g>
	</g>
</g>
</svg>
