<?xml version="1.0" encoding="utf-8"?>
<!-- Generator: Adobe Illustrator 27.5.0, SVG Export Plug-In . SVG Version: 6.00 Build 0)  -->
<svg version="1.1" id="Layer_1" xmlns="http://www.w3.org/2000/svg" xmlns:xlink="http://www.w3.org/1999/xlink" x="0px" y="0px"
	 viewBox="0 0 1320 1100" style="enable-background:new 0 0 1320 1100;" xml:space="preserve">
<rect style="fill:#FFFFFF;" width="1320" height="1100"/>
<g>
	<g>
		<path style="fill:#B9F9F9;" d="M1240.6,674.796c-0.198,1.602-0.463,3.203-0.797,4.791c-2.746,13.527-9.848,26.284-19.333,35.027
			c-4.893,4.518-9.684,9.166-14.413,13.895c-9.227,9.207-18.223,18.679-27.374,27.974c11.905,10.038,21.091,20.287,27.94,30.611
			c68.174,102.711-93.838,213.627-94.52,216.033c-3.857,4.048-14.631,7.462-31,10.317H217.56c-4.457-4.137-8.607-8.58-12.403-13.138
			c-15.421-18.474-27.374-41.303-32.997-65.585c-4.272-18.441-5.042-38.612,3.796-55.723c7.503-14.549,17.193-27.505,27.381-40.017
			c-0.122-4.198,0.027-8.402,0.463-12.58c-6.167,1.574-12.375,2.937-18.597,4.082c-10.828,2.235-21.738,3.073-32.737,2.528
			c-3.36-0.784-6.719-1.56-10.079-2.338c-6.543-3.094-5.466-8.041-2.61-12.498c-7.578-2.358-14.972-5.315-22.046-8.941
			c-10.004-5.131-21.132-12.362-28.826-22.141c-3.278-4.171-5.936-8.811-7.619-13.943c-4.553-13.889,1.949-30.107,14.031-36.765
			c4.272-2.344,8.361-4.995,12.307-7.878c5.424-3.966,10.59-8.368,15.558-13.023c7.939-8.294,15.565-16.955,23.347-25.426
			c2.576-3.346,5.404-6.283,8.464-8.839c-4.069-0.136-8.11-0.62-11.946-1.635c-3.871-1.015-7.544-2.556-10.836-4.791
			c-0.225-0.157-0.45-0.314-0.667-0.47c-11.19-8.055-9.568-22.141-3.707-33.229c2.957-5.581,6.692-10.781,10.91-15.592
			c-2.385-2.753-4.334-5.867-5.745-9.302c-1.874-4.614-2.753-9.806-2.303-15.476c1.554-11.824,5.99-22.243,13.316-31.239
			c4.648-4.995,9.295-9.997,13.936-14.992c1.935-1.492,3.795-3.067,5.615-4.702c7.537-9.384,14.161-19.551,20.704-29.807
			c-3.285,1.015-6.57,1.997-9.889,2.95c-10.44,2.992-21.03,5.077-31.77,6.27l-9.533-0.17c-11.094-2.147,3.067-12.525,5.063-13.97
			c3.898-2.821,7.959-5.418,12.13-7.857c15.401-15.851,27.334-35.525,40.882-53.23c-2.992-2.835-5.561-6.044-7.469-9.69
			c-6.065-11.558,0.749-24.485,11.026-29.61c10.686-5.336,20.513-12.403,29.732-20.28c38.197-36.302,67.043-82.765,98.268-125.813
			c9.493-13.091,28.342-17.759,42.394-20.226c22.591-3.959,46.19-3.012,68.631,1.595c0.62,0.122,1.247,0.252,1.874,0.388
			c6.147-6.181,12.437-12.212,18.904-18.045c6.753-2.303,13.091-1.404,18.999,2.699c5.629-1.976,11.448-3.312,17.262-4.055
			c1.765-0.225,3.544-0.395,5.323-0.518c6.644-8.362,13.384-16.607,20.519-24.39c11.292-12.328,29.753-10.863,43.614-6.358
			c17.759,5.779,33.896,17.303,47.505,31.02c9.493-9.629,20.226-17.357,32.199-23.176c7.503-2.78,14.992-5.561,22.488-8.334
			c19.763-5.036,41.944-4.838,60.487,5.152c15.981,8.613,27.307,24.819,28.342,44.541c0.218,9.138-1.111,17.848-3.966,26.121
			c0.6,0.518,1.193,1.036,1.778,1.547c1.956,1.731,3.871,3.53,5.738,5.384c7.571-4.103,15.667-6.018,24.301-5.718
			c6.263,0.388,12.518,0.777,18.774,1.159c12.28,1.676,24.479,4.777,36.336,8.995c6.692-7.782,21.235-5.731,29.139-4.75
			c20.935,2.603,41.584,9.799,61.033,18.331c19.449,8.518,38.911,18.917,55.655,32.82c7.217,5.295,12.941,12.042,17.166,20.226
			c0.164,2.624,0.341,5.247,0.504,7.871c-3.912,7.08-8.45,13.766-12.921,20.431c-5.057,7.544-10.201,15.006-15.408,22.42
			c10.297-6.024,19.463-14.25,28.553-22.155c11.878-7.489,24.697-11.551,38.448-12.164c7.422,0.449,14.849,0.899,22.271,1.349
			c22.91,4.013,45.106,15.667,61.604,33.514c13.766,14.884,24.144,35.123,23.804,56.787c-0.3,13.772-4.573,25.909-12.791,36.397
			c-4.709,4.286-9.418,8.573-14.127,12.873c-2.542,2.208-5.084,4.436-7.659,6.617c2.133,0.334,4.266,0.716,6.371,1.152
			c15.981,3.305,34.66,10.529,44.18,26.107c7.66,12.512,6.12,31.456-4.232,41.944c-5.759,5.826-11.483,11.701-17.173,17.602
			c1.963-0.477,3.925-0.954,5.895-1.431c21.936-2.91,45.297,0.505,64.76,12.423c0.777,0.477,1.547,0.961,2.304,1.472
			c14.951,9.915,26.965,25.548,29.153,45.038C1241.248,665.726,1241.173,670.278,1240.6,674.796z"/>
		<path style="fill:#4BA3B7;" d="M183.242,863.091c-2.932,4.548-5.687,9.229-8.194,14.09c-8.838,17.111-8.068,37.282-3.796,55.723
			c5.622,24.281,17.575,47.111,32.997,65.585c3.796,4.559,7.946,9.002,12.403,13.138h863.543c16.369-2.855,27.143-6.269,31-10.316
			c0.508-1.796,90.897-64.049,108.356-138.22H183.242z"/>
		<path style="fill:#4BA3B7;" d="M146.869,686.711c-0.418,0.507-0.841,1.006-1.247,1.533c-7.782,8.471-15.408,17.132-23.347,25.426
			c-4.968,4.655-10.134,9.057-15.558,13.023c-3.946,2.883-8.035,5.534-12.307,7.878c-12.083,6.658-18.584,22.877-14.031,36.765
			c1.683,5.131,4.341,9.772,7.619,13.943c3.701,4.703,8.199,8.812,12.981,12.386h1111.847c-2.019-4.137-4.377-8.268-7.111-12.386
			c-6.849-10.324-16.035-20.574-27.94-30.611c9.152-9.295,18.147-18.768,27.375-27.975c4.729-4.729,9.52-9.377,14.413-13.895
			c7.359-6.783,13.272-15.986,16.841-26.087H146.869z"/>
	</g>
	<ellipse style="fill:#84A5A4;" cx="660" cy="1010.669" rx="535.958" ry="25.153"/>
	<g>
		<g>
			<g>
				<path style="fill:#14A7D2;" d="M336.016,576.445v27.071c0,0.586-0.229,1.114-0.594,1.486c-0.349,0.351-0.814,0.566-1.33,0.566
					h-23.406c-1.063,0-1.925-0.918-1.925-2.053v-27.071c0-1.134,0.861-2.053,1.925-2.053h23.406
					C335.156,574.392,336.016,575.311,336.016,576.445z"/>
				<rect x="308.761" y="586.801" style="fill:#C3E1E1;" width="27.255" height="9.698"/>
				<path style="opacity:0.7;fill:#14A7D2;" d="M336.016,576.445v27.071c0,0.586-0.229,1.114-0.594,1.486
					c-0.349,0.35-0.814,0.566-1.33,0.566h-7.251c1.063,0,1.924-0.919,1.924-2.053v-27.071c0-1.134-0.861-2.053-1.924-2.053h7.251
					C335.156,574.392,336.016,575.311,336.016,576.445z"/>
				<g>
					<g>
						<g>
							<path style="fill:#AAC1C0;" d="M335.636,566.941h-2.83c0.635,0.543,1.001,1.392,1.001,2.31v6.816
								c0,1.133-0.576,2.062-1.485,2.675h3.313c1.571,0,2.846-1.287,2.846-2.86v-6.091
								C338.481,568.217,337.207,566.941,335.636,566.941z"/>
							<path style="fill:#C3E1E1;" d="M333.807,576.067v-6.816c0-0.918-0.367-1.768-1.001-2.31h-23.915
								c-1.573,0-2.868,1.276-2.868,2.85v6.091c0,1.573,1.296,2.86,2.868,2.86h23.432
								C333.231,578.128,333.807,577.2,333.807,576.067z"/>
						</g>
						<path style="fill:#E2F7F6;" d="M312.046,574.594c0,1.025-0.83,1.855-1.854,1.855h-0.06c-1.026,0-1.855-0.829-1.855-1.855
							v-3.421c0-1.026,0.829-1.856,1.855-1.856h0.06c1.024,0,1.854,0.831,1.854,1.856V574.594z"/>
					</g>
				</g>
			</g>
			<g>
				<path style="fill:#511709;" d="M364.74,562.653l-5.017-6.454h-12.962l-5.017,6.454c-1.046,1.756-1.599,3.763-1.599,5.808v32.159
					c0,0.457,0.065,0.897,0.174,1.32c0.586,2.248,2.623,3.909,5.055,3.909h15.736c2.432,0,4.469-1.661,5.055-3.909
					c0.11-0.422,0.174-0.863,0.174-1.32V568.46C366.338,566.416,365.787,564.409,364.74,562.653z"/>
				<path style="fill:#796BBF;" d="M344.849,552.387v0.165c0,1.15,1.918,2.082,1.918,2.082v1.564h12.956v-1.564
					c0,0,2.01-0.932,2.01-2.082v-0.165H344.849z"/>
				<path style="fill:#796BBF;" d="M366.34,568.46v32.16c0,0.457-0.065,0.897-0.176,1.32c-0.587,2.246-2.624,3.908-5.055,3.908
					h-15.734c-1.566,0-2.971-0.688-3.927-1.783c-0.527-0.604-0.92-1.328-1.129-2.126c-0.11-0.422-0.176-0.863-0.176-1.32v-32.16
					c0-2.044,0.554-4.052,1.598-5.808l4.849-6.239l0.167-0.214h12.966l5.017,6.453C365.785,564.408,366.34,566.416,366.34,568.46z"
					/>
				<path style="fill:#FCE9BB;" d="M352.046,552.387h-7.297c-0.424,0-0.768-0.344-0.768-0.769l0,0c0-0.424,0.344-0.767,0.768-0.767
					h7.297c0.424,0,0.767,0.343,0.767,0.767l0,0C352.813,552.042,352.47,552.387,352.046,552.387z"/>
				<path style="fill:#F9E19B;" d="M361.722,552.387h-4.218c-0.425,0-0.768-0.344-0.768-0.769l0,0c0-0.424,0.344-0.767,0.768-0.767
					h4.218c0.424,0,0.769,0.343,0.769,0.767l0,0C362.49,552.042,362.146,552.387,361.722,552.387z"/>
				<path style="fill:#F9E19B;" d="M362.49,551.619c0,0.423-0.343,0.768-0.768,0.768H344.75c-0.424,0-0.767-0.345-0.767-0.768
					c0-0.425,0.343-0.769,0.767-0.769h0.697v-10.253c0-0.889,0.434-1.678,1.103-2.163c0.228-0.168,0.485-0.299,0.761-0.386
					c0.256-0.081,0.529-0.126,0.813-0.126h10.164c0.361,0,0.705,0.072,1.019,0.202c0.281,0.116,0.539,0.278,0.763,0.477
					c0.548,0.491,0.893,1.203,0.893,1.997v10.253h0.759C362.146,550.85,362.49,551.194,362.49,551.619z"/>
				<rect x="340.144" y="579.617" style="fill:#F9E19B;" width="14.877" height="8.772"/>
				<path style="opacity:0.6;fill:#380E06;" d="M366.34,568.46v32.16c0,0.458-0.065,0.898-0.177,1.32
					c-0.586,2.246-2.623,3.908-5.054,3.908h-6.582c0.622,0,1.216-0.108,1.768-0.308c1.609-0.58,2.85-1.93,3.284-3.6
					c0.111-0.422,0.177-0.862,0.177-1.32v-32.16c0-2.043-0.555-4.052-1.599-5.808l-5.018-6.453h6.586l5.017,6.453
					C365.785,564.408,366.34,566.417,366.34,568.46z"/>
				<path style="opacity:0.4;fill:#F9E19B;" d="M354.37,544.852c0,2.88-0.758,5.512-2.011,7.534h-7.609
					c-0.424,0-0.767-0.345-0.767-0.768c0-0.425,0.343-0.769,0.767-0.769h0.697v-10.253c0-0.889,0.434-1.678,1.103-2.163
					c0.228-0.168,0.485-0.299,0.761-0.386c0.256-0.081,0.529-0.126,0.813-0.126h4.585
					C353.752,539.851,354.37,542.252,354.37,544.852z"/>
			</g>
			<polygon style="fill:#B7B7B7;" points="301.017,601.281 306.356,623.534 419.392,623.534 425.876,601.281 			"/>
		</g>
		<g>
			<path style="fill:#5B7574;" d="M1086.062,1006.583c0,5.198-188.313,9.411-420.609,9.411c-232.297,0-420.612-4.213-420.612-9.411
				c0-5.198,188.315-9.411,420.612-9.411C897.749,997.172,1086.062,1001.385,1086.062,1006.583z"/>
			<g>
				<g>
					<g>
						<rect x="303.138" y="638.519" style="fill:#BCBCBC;" width="80.811" height="365.773"/>
						<polygon style="fill:#E6E7E9;" points="801.579,638.519 801.579,1004.292 551.419,1004.292 551.419,723.774 314.947,723.774 
							314.947,1004.292 298.444,1004.292 298.444,638.519 						"/>
						<rect x="596.074" y="638.519" style="fill:#BCBCBC;" width="205.505" height="365.773"/>
					</g>
					<g>
						<path style="fill:#E6E7E9;" d="M821.072,634.051c0,5.933-2.339,10.74-5.221,10.74H284.174c-2.883,0-5.225-4.807-5.225-10.74
							c0-2.971,0.586-5.652,1.532-7.598c0.946-1.938,2.251-3.141,3.693-3.141H815.85
							C818.733,623.311,821.072,628.117,821.072,634.051z"/>
						<path style="fill:#BCBCBC;" d="M821.072,634.051c0,5.933-3.448,10.74-7.696,10.74H567.849c-4.251,0-7.698-4.807-7.698-10.74
							c0-2.971,0.862-5.652,2.255-7.598c1.393-1.938,3.317-3.141,5.442-3.141h245.528
							C817.624,623.311,821.072,628.117,821.072,634.051z"/>
						<rect x="286.562" y="644.722" style="fill:#BCBCBC;" width="468.444" height="8.08"/>
					</g>
				</g>
				<g>
					<g>
						<path style="fill:#FFB278;" d="M793.681,578.076c-0.028,1.123-0.142,2.21-0.341,3.261c-0.462,2.487-1.372,4.76-2.686,6.835
							c-1.25,1.989-2.863,3.794-4.788,5.435c-2.53,2.153-5.592,4.021-9.087,5.641c-37.372,17.3-123.874,5.811-125.899,4.405
							c-3.851-2.671-1.748-11.531-3.041-15.716c14.039-5.755,75.34-18.629,94.921-25.713c0.846-0.298,1.62-0.597,2.302-0.881
							c0.419-0.171,0.811-0.341,1.158-0.505c0.668-0.313,1.215-0.604,1.634-0.881l20.434,8.079L793.681,578.076z"/>
						<g>
							<path style="fill:#FFB278;" d="M654.901,587.13c-12.278,2.408-15.356-1.078-28.828,4.311
								c-9.497-4.731-21.016,1.616-26.156,3.021c-3.369,0.921-4.121-8.742-9.948-5.715c-2.49,1.293,0.21,7.28,0.392,9.58
								c11.283,3.152,23.508,9.064,34.634,6.766c6.59-1.362,12.946-2.84,19.398-4.198c5.449-1.146,14.58-1.186,18.591-4.065
								L654.901,587.13z"/>
							<path style="fill:#FFB278;" d="M663.076,587.13c-12.278,2.408-15.357-1.078-28.828,4.311
								c-9.497-4.731-21.016,1.616-26.155,3.021c-3.37,0.921-4.122-8.742-9.949-5.715c-2.49,1.293,0.21,7.28,0.392,9.58
								c11.283,3.152,23.507,9.064,34.634,6.766c6.59-1.362,12.947-2.84,19.398-4.198c5.448-1.146,14.58-1.186,18.591-4.065
								L663.076,587.13z"/>
							<path style="fill:#FFB278;" d="M671.639,586.741c-12.278,2.408-15.356-1.078-28.828,4.31
								c-9.497-4.73-21.015,1.616-26.156,3.021c-3.369,0.921-4.121-8.742-9.947-5.715c-2.491,1.293,0.21,7.279,0.391,9.58
								c11.284,3.152,23.508,9.064,34.634,6.766c6.59-1.362,12.947-2.84,19.399-4.198c5.448-1.147,14.58-1.185,18.591-4.064
								L671.639,586.741z"/>
							<path style="fill:#FFB278;" d="M627.56,582.36c-9.343,3.503-14.644-2.13-18.686,3.114c0.779,3.503,7.032,3.911,11.809,4.931
								c4.064,0.867,6.218,2.294,10.189,3.825c9.806,3.779,19.734-1.662,27.44-1.749v-8.564
								C648.531,583.993,636.336,579.07,627.56,582.36z"/>
						</g>
						<path style="fill:#FFB278;" d="M807.55,538.921c-2.757,11.098-6.388,26.004-12.214,38.431c-0.64,1.364-1.3,2.693-1.996,3.986
							c-1.095,2.046-2.259,4-3.496,5.819c-0.021,0.028-0.042,0.049-0.056,0.078l-8.661-2.657l-16.903-5.179l-27.723-8.505
							c2.778-1.811,5.271-4.583,7.545-7.964c0.349-0.511,0.689-1.044,1.017-1.584c0.142-0.228,0.284-0.455,0.419-0.682
							c1.315-2.188,2.551-4.569,3.716-7.07c0.412-0.881,0.81-1.776,1.215-2.685c5.101-11.73,8.881-25.301,12.377-33.301
							c5.016-11.495,12.262-28.81,24.157-34.814C814.264,469.008,810.256,528.022,807.55,538.921z"/>
						<g>
							<path style="fill:#425B28;" d="M834.456,467.736c-1.379-7.693-6.518-15.22-20.899-16.205
								c-14.718-1.008-19.942,5.703-24.928,12.586c-7.444,10.274-37.533,66.02-46.686,78.841c0,0,53.578,23.965,56.945,19.455
								C808.274,549.852,837.311,483.68,834.456,467.736z"/>
							<path style="fill:#6B8E43;" d="M748.858,530.229l-10.642,14.912c9.763,7.022,55.9,24.32,60.673,17.271
								c3.047-4.498,6.807-12.495,9.205-17.133C798.112,542.582,754.759,534.741,748.858,530.229z"/>
						</g>
						<g>
							<path style="fill:#306E87;" d="M795.336,577.351c-0.64,1.364-1.3,2.693-1.996,3.986c-0.462,2.487-1.372,4.76-2.686,6.835
								c-0.263-0.341-0.533-0.682-0.81-1.016c-5.271-6.459-11.666-11.844-18.75-16.15c-7.666-4.661-16.143-8.05-24.874-10.167
								c-0.249-0.064-0.49-0.121-0.739-0.178c1.315-2.188,2.551-4.569,3.716-7.07c0.412-0.881,0.81-1.776,1.215-2.685
								C767.577,555.305,783.428,564.314,795.336,577.351z"/>
							<path style="fill:#306E87;" d="M785.866,593.607c-2.53,2.153-5.592,4.021-9.087,5.641
								c-3.29-7.325-7.482-13.982-12.555-19.851c-5.647-6.536-12.383-12.085-20.178-16.469c-0.426-0.234-0.852-0.469-1.286-0.703
								c0.846-0.298,1.62-0.597,2.302-0.881c0.142-0.228,0.284-0.455,0.419-0.682c1.315-2.188,2.551-4.569,3.716-7.07
								c7.084,3.936,13.485,8.803,19.091,14.445c0.959,0.966,1.897,1.954,2.806,2.97c3.766,4.17,7.125,8.71,10.032,13.57
								C782.875,587.476,784.459,590.495,785.866,593.607z"/>
						</g>
					</g>
					<g>
						<path style="fill:#FFFF97;" d="M725.565,611.27c0,6.76-5.139,12.24-11.479,12.24H538.055c-6.34,0-11.48-5.48-11.48-12.24l0,0
							c0-6.76,5.14-12.24,11.48-12.24h176.031C720.426,599.03,725.565,604.51,725.565,611.27L725.565,611.27z"/>
						<path style="fill:#E0DD85;" d="M802.101,611.27c0,6.76-4.31,12.24-9.626,12.24H644.881c-5.317,0-9.627-5.48-9.627-12.24l0,0
							c0-6.76,4.31-12.24,9.627-12.24h147.594C797.791,599.03,802.101,604.51,802.101,611.27L802.101,611.27z"/>
					</g>
					<g>
						<path style="fill:#FFB278;" d="M658.797,539.157c-6.596-3.556-11.179-0.578-14.302,6.515
							c-1.032,2.347-2.942,7.875-1.917,10.193c1.391,3.146,7.587,5.262,10.455,6.619c6.548,3.099,14.866,6.069,21.893,4.62
							l0.474-20.368C671.314,548.195,662.639,541.229,658.797,539.157z"/>
						<g>
							<path style="fill:#EDEFEA;" d="M715.655,543.727c-8.186-3.401-17.122,1.935-24.4,5.404l-23.847,20.538
								c13.082-2.811,26.199,4.092,39.324,0.02c6.149-1.911,12.021-4.697,14.291-11.483
								C722.967,552.397,721.604,546.199,715.655,543.727z"/>
							<path style="fill:#FFFFFF;" d="M711.117,535.83c-2.966-0.003-6.543-0.813-9.358-0.429c-3.286,0.446-6.113,2.739-8.9,4.239
								c-4.159,2.235-8.286,4.606-12.404,6.785c-2.651,1.404-6.266,4.164-8.984,4.271l17.04,6.731
								c3.608-1.45,19.406-11.454,24.115-11.833c5.368-0.432,6.256,4.656,11.431,6.165c8.408,2.454,3.819-5.546,2.133-9.374
								C723.435,536.115,717.365,535.836,711.117,535.83z"/>
							<path style="fill:#FFFFFF;" d="M724.618,549.119l0.128,2.121c-1.169,3.92-5.309,6.84-7.162,10.458
								c-3.019,5.898,3.031,4.607,6.7,2.408c3.206-1.921,7.175-4.718,7.467-8.861C731.977,552.081,727.652,545.655,724.618,549.119z
								"/>
							<path style="fill:#FFFFFF;" d="M726.458,556.834l-1.034,1.856c-3.099,2.672-8.158,2.903-11.669,4.953
								c-5.723,3.343,0.071,5.514,4.349,5.638c3.735,0.109,8.586-0.109,11.065-3.443
								C731.062,563.293,730.882,555.55,726.458,556.834z"/>
							<path style="fill:#FFFFFF;" d="M721.802,560.51l-1.032,1.854c-3.099,2.674-8.16,2.903-11.669,4.954
								c-5.722,3.342,0.073,5.513,4.348,5.637c3.737,0.108,8.586-0.109,11.066-3.442
								C726.406,566.968,726.225,559.225,721.802,560.51z"/>
							<g>
								<polygon style="fill:#CCCCCC;" points="688.694,582.329 688.287,581.833 703.524,569.286 703.933,569.782 								"/>
								<g>
									
										<rect x="696.534" y="561.112" transform="matrix(0.7717 -0.6359 0.6359 0.7717 -195.8385 580.9067)" style="fill:#FFFFDE;" width="29.547" height="4.304"/>
									
										<rect x="721.597" y="548.37" transform="matrix(0.7721 -0.6355 0.6355 0.7721 -187.3622 585.5036)" style="fill:#FFFFDE;" width="2.007" height="11.188"/>
								</g>
							</g>
							<path style="fill:#FFFFFF;" d="M718.293,556.741c-1.76-3.535-9.752-5.771-12.933-7.989
								c-9.118-6.362-24.874,2.664-33.343-5.797c-5.461,6.619-7.482,17.479-4.818,25.304c0,0,12.096,5.68,14.1,5.333
								c3.282-0.568,5.807-3.321,8.478-5.289c2.403-1.77,3.344-7.946,6.736-8.152c2.685-0.162,6.526,1.92,9.23,2.551
								C709.691,563.621,722.011,564.222,718.293,556.741z"/>
							<path style="fill:#FFFFFF;" d="M719.769,542.968l0.14,2.119c-1.161,3.924-5.29,6.858-7.131,10.484
								c-3.001,5.908,3.045,4.595,6.707,2.385c3.2-1.932,7.161-4.741,7.438-8.886C727.138,545.905,722.792,539.493,719.769,542.968z
								"/>
						</g>
						<g>
							<path style="fill:#FFFFFF;" d="M665.452,543.418c-7.694,6.273-16.484,12.718-24.42,19.041
								c-2.032,1.613-4.007,3.226-5.898,4.824c-12.312-12.497-23.744-29.151-29.811-48.889c-6.232-20.27-7.958-41.997-10.921-62.871
								l18.039-57.358l23.525-74.787c8.092,16.462,11.307,27.982,9.588,45.823c-1.861,19.24-12.465,53.93-11.484,73.533
								c0.959,19.212,2.693,38.856,6.188,57.542c1.527,8.199,3.268,16.064,7.432,23.446
								C650.361,528.455,662.446,540.619,665.452,543.418z"/>
							<path style="fill:#DFEAE8;" d="M641.032,562.459c-2.032,1.613-4.007,3.226-5.898,4.824
								c-19.419-11.587-34.666-37.674-40.733-57.412c-6.231-20.27,2.964-33.474,0.001-54.348l18.039-57.358l3.276-3.474
								c-11.78,23.063-10.341,69.668-6.397,95.998C613.797,520.623,624.463,539.759,641.032,562.459z"/>
						</g>
					</g>
					<g>
						<path style="fill:#FFFFFF;" d="M564.998,576.686c-19.262,46.859-21.394,139.573-15,143.835
							c-16.065,1.368-148.129-8.525-164.401-33.356c15.814-54.88,73.802-101.12,94.761-154.54
							c11.498-29.31,21.64-59.227,31.811-89.172c1.202-3.553,2.415-7.112,3.624-10.663c8.26-24.271,12.66-51.175,22.397-74.285
							l88.513-52.176c0.889,3.176,11.89,11.138,14.674,17.558c3.612,8.326,0.548,21.839-0.997,30.416
							c-4.135,22.815-13.861,59.359-20.581,81.885C604.005,489.097,585.935,525.754,564.998,576.686z"/>
						<path style="fill:#C7D3D1;" d="M503.942,722.44c-0.2,0.287-0.403,0.569-0.615,0.852c-16.066,1.368-30.163-4.838-45.189-10.834
							c-13.738-5.478-58.373-19.661-72.541-25.292c15.814-54.88,73.802-101.12,94.761-154.54
							c11.498-29.31,21.64-59.227,31.811-89.172l99.504-50.548c-1.666,6.841-6.616,12.763-10.007,18.794
							c-4.957,8.832-9.898,17.923-14.129,27.124c-9.417,20.497-16.571,41.851-23.899,63.376
							c-17.162,50.423-30.542,101.502-42.533,152.998C515.899,677.561,510.518,700.153,503.942,722.44z"/>
						<g>
							<g>
								<path style="fill:#FFB278;" d="M457.648,997.149c-4.369-3.176-14.786-9.951-19.057-14.397
									c-0.523-4.98-1.668-9.994-1.815-12.978c-0.576-11.639-1.282-23.467-1.288-35.034c-0.005-7.475,6.057-41.399,2.606-43.832
									l-28.679,43.016c0,11.381,1.996,22.121,4.4,33.243c0.488,2.256,1.304,6.272,2.555,10.671
									c0.034,6.411-0.454,12.97-0.436,19.311c0.014,5.52-3.178,9.211,1.288,11.731c3.824,2.159,11.854,3.158,16.31,3.928
									c9.438,1.633,31.407,2.703,40.41-0.67C487.684,1006.992,463.815,1001.634,457.648,997.149z"/>
								<g>
									<path style="fill:#FFFFFF;" d="M485.347,1012.551c-14.528,7.243-66.961,1.777-72.672-1.064
										c-1.304-4.563,1.22-12.983,1.302-14.338c0.317-5.126,25.705-11.402,25.705-11.402c4.639,7.809,4.003-6.986,10.144-0.329
										c5.159,5.594,17.255,14.455,26.802,15.543c4.725,0.536,7.883,2.092,9.649,3.927c0.725,0.76,1.214,1.567,1.477,2.368
										C488.448,1009.362,487.572,1011.443,485.347,1012.551z"/>
									<path style="fill:#FFFFFF;" d="M448.383,982.162c-1.978-4.149-4.138-5.57-10.614-5.113
										c-5.178,0.367-9.485,5.363-8.727,9.665c0.642,3.636-1.058,5.654,0.34,8.747l28.451,0.864
										C452.852,991.253,450.323,986.23,448.383,982.162z"/>
								</g>
							</g>
							<g>
								<path style="fill:#FFB278;" d="M556.799,997.768c-4.368-3.176-14.786-9.951-19.057-14.395
									c-0.522-4.982-1.668-9.993-1.814-12.978c-0.578-11.64-1.283-23.469-1.29-35.038c-0.004-7.472,6.057-41.397,2.607-43.827
									l-28.68,43.018c0,11.379,1.998,22.116,4.401,33.24c0.488,2.256,1.304,6.271,2.556,10.671
									c0.033,6.411-0.455,12.968-0.438,19.309c0.016,5.522-3.178,9.213,1.288,11.732c3.825,2.159,11.856,3.156,16.309,3.928
									c9.439,1.634,31.41,2.705,40.412-0.667C586.839,1007.612,562.969,1002.253,556.799,997.768z"/>
								<g>
									<path style="fill:#FFFFFF;" d="M584.5,1013.171c-14.53,7.245-66.961,1.776-72.673-1.062
										c-1.303-4.564,1.222-12.986,1.304-14.341c0.317-5.124,25.707-11.4,25.707-11.4c4.637,7.808,4.003-6.986,10.141-0.333
										c5.162,5.598,17.256,14.457,26.804,15.545c4.725,0.536,7.883,2.094,9.648,3.927c0.725,0.759,1.215,1.567,1.479,2.369
										C587.601,1009.984,586.725,1012.062,584.5,1013.171z"/>
									<path style="fill:#FFFFFF;" d="M547.535,982.782c-1.977-4.15-4.139-5.57-10.615-5.11c-5.178,0.365-9.484,5.36-8.727,9.665
										c0.642,3.635-1.058,5.65,0.342,8.743l28.45,0.864C552.004,991.874,549.474,986.85,547.535,982.782z"/>
								</g>
							</g>
							<g>
								<path style="fill:#50A393;" d="M540.586,884.819c-0.369,37.521-1.032,67.65-2.078,81.202
									c-19.001,0.602-36.97,1.522-54.465-0.786c-2.646-66.885-4.853-210.082-12.467-318.787
									c-4.134-59.098-9.868-108-18.139-128.907l78.495,13.32c-4.586,3.5,6.042,54.083,6.951,65.758
									C540.332,615.235,541.617,779.293,540.586,884.819z"/>
								<path style="fill:#3E7F73;" d="M540.586,884.819c-0.369,37.521-1.032,67.65-2.078,81.202
									c-19.001,0.602-36.97,1.522-54.465-0.786c-2.646-66.885-4.853-210.082-12.467-318.787c0.2-10.333,0.69-20.626,1.75-30.858
									l1.026-26.647c7.181,9.213,7.607,38.006,8.255,51.485c1.026,21.351,1.71,42.108,2.967,63.329
									c2.673,44.973,6.213,91.002,16.43,134.292C506.849,858.587,519.8,888.461,540.586,884.819z"/>
							</g>
							<g>
								<path style="fill:#50A393;" d="M498.545,508.171c-19.791,47.39-33.899,246.387-41.813,376.1
									c-1.921,31.534-3.479,58.984-4.663,79.153c-17.529,1.994-35.484,0.738-54.471-0.206
									c-3.015-51.718-1.573-238.875-1.573-284.997c0-21.139,3.91-47.611,6.65-70.376c0.588-4.859,1.121-9.547,1.552-13.975
									c1.127-11.653,12.712-62.039,8.201-65.612L498.545,508.171z"/>
								<path style="fill:#3E7F73;" d="M456.732,884.272c-1.921,31.534-3.479,58.984-4.663,79.153
									c-17.529,1.994-35.484,0.738-54.471-0.206c-3.015-51.718-1.573-238.875-1.573-284.997c0-21.139,3.91-47.611,6.65-70.376
									l22.472-31.206c3.083,22.712-5.105,53.495-6.151,78.14c-1.318,31.228-1.134,62.858-2.05,94.086
									c-0.703,23.996-1.225,48.8-0.056,72.789c0.821,16.874,1.702,35.93,13.609,49.203
									C437.642,878.819,446.93,882.406,456.732,884.272z"/>
							</g>
						</g>
						<path style="fill:#71D3C0;" d="M627.214,306.929l-44.012-39.502c-6.538,3.239-14.828,3.029-22.347,3.808
							c3.648,18.745-153.096,203.607-165.578,280.674c-4.955,30.586,113.707,54.66,142.999,58.847
							c4.883-1.208,17.774-114.501,32.117-140.061C609.517,400.975,631.74,309.366,627.214,306.929z"/>
						<g>
							<path style="fill:#FFB278;" d="M610.658,223.39c-2.635,8.412-7.147,16.386-12.466,23.967
								c-6.998,10.001-14.576,16.952-23.429,22.363c0.645,45.421,31.268,77.673,31.268,77.673s17.262-19.81,22.723-43.267
								c0.136-0.593,0.693-1.043,1.066-1.6c2.818-4.183,6.553-9.543,8.394-12.231l-26.398-68.638l-0.375-0.978
								C611.206,221.591,610.943,222.494,610.658,223.39z"/>
							<path style="fill:#E5804E;" d="M610.658,223.39c-2.635,8.412-1.46,8.561-6.782,16.142
								c-17.405,42.95,20.809,64.09,25.944,62.994c2.818-4.183,6.553-9.543,8.394-12.231l-26.398-68.638
								C611.433,222.229,611.045,222.808,610.658,223.39z"/>
						</g>
						<path style="fill:#DFEAE8;" d="M629.318,302.889c-1.62,0.5-75.057,201.299-78.254,247.124
							c12.788-44.759,82.237-193.064,82.237-193.064s-4.677-11.914-5.92-20.788c3.104,0.231,13.106-5.141,16.243-5.299
							C643.679,322.217,629.318,302.889,629.318,302.889z"/>
						<g>
							<g>
								<path style="fill:#FFFFFF;" d="M512.113,488.313c-8.243,17.15-16.919,33.963-25.678,50.15
									c-41.37,76.511-39.561,163.12-46.201,180.995c-59.035-7.36-78.486-26.9-96.977-44.759
									c28.773-142.801,83.297-226.65,138.066-380.313c12.557-35.233,42.286-26.346,75.475-26.196l8.328,1.896
									C575.391,333.223,547.876,413.901,512.113,488.313z"/>
								<path style="fill:#DFEAE8;" d="M534.849,446.642c-6.728,15.758-13.755,30.942-20.846,44.945
									c-9.463,18.7-19.041,35.297-28.156,48.364c7.822-19.447,14.743-38.225,20.789-56.129
									c8.242-24.413,14.856-47.219,19.922-67.916c13.393-54.743,15.95-94.772,9.073-110.992c6.004-2.025,12.86-2.693,18.381-5.428
									c-3.517-10.039-7.339-21.13-9.94-31.219c9.911-0.661,41.735-7.24,41.735-7.24
									C586.381,302.854,563.319,379.934,534.849,446.642z"/>
							</g>
							<path style="fill:#DFEAE8;" d="M409.956,534.867c-3.805,5.52-7.943,10.854-12.075,16.196
								c11.066,7.925,24.04,14.495,37.912,19.218c3.803,1.294,7.677,2.446,11.594,3.455c3.684-5.885,7.26-11.839,10.644-17.936
								C440.092,552.15,423.107,544.711,409.956,534.867z"/>
						</g>
						<g>
							<polygon style="fill:#8C8C8C;" points="554.306,385.154 548.721,382.577 553.767,363.076 567.419,369.376 							"/>
							<g>
								<g>
									
										<rect x="538.112" y="372.58" transform="matrix(0.4189 -0.908 0.908 0.4189 -36.1186 724.9416)" style="fill:#FFFFFF;" width="20.506" height="36.223"/>
									<path style="fill:#8C8C8C;" d="M560.85,408.496l-34.134-15.749l9.163-19.859l34.131,15.748L560.85,408.496z
										 M528.531,392.078l31.65,14.602l8.017-17.375l-31.65-14.603L528.531,392.078z"/>
								</g>
								
									<rect x="548.341" y="375.876" transform="matrix(0.419 -0.908 0.908 0.419 -33.5744 724.5722)" style="fill:#8C8C8C;" width="2.051" height="25.288"/>
							</g>
						</g>
						<g>
							<path style="fill:#2B3F44;" d="M552.952,326.315c2.062-27.923,12.026-49.14,29.07-61.68c1.161-0.854,2.633-1.71,4.225-2.512
								c0.783-1.095,1.92-2.333,1.986-3.347c-3.592,0.984-6.178,2.49-7.808,3.688c-9.899,7.286-17.552,17.451-22.746,30.211
								c-4.021,9.885-6.508,21.172-7.423,33.643C551.153,326.219,552.058,326.219,552.952,326.315z"/>
							<g>
								<path style="fill:#C6C6C6;" d="M564.067,333.733c-1.204,6.395-7.368,10.604-13.762,9.397
									c-6.395-1.204-10.603-7.366-9.397-13.761c1.204-6.395,7.365-10.603,13.76-9.398
									C561.063,321.175,565.273,327.337,564.067,333.733z"/>
								<path style="fill:#9B9B9B;" d="M560.47,333.054c-0.831,4.41-5.079,7.31-9.488,6.48c-4.41-0.831-7.308-5.079-6.478-9.488
									c0.832-4.408,5.078-7.31,9.488-6.479C558.399,324.399,561.3,328.646,560.47,333.054z"/>
								<path style="fill:#C6C6C6;" d="M557.519,332.498c-0.522,2.78-3.201,4.609-5.982,4.085c-2.778-0.524-4.605-3.201-4.082-5.98
									c0.522-2.78,3.2-4.608,5.979-4.085C556.216,327.042,558.042,329.719,557.519,332.498z"/>
							</g>
						</g>
						<g>
							<path style="fill:#2B3F44;" d="M628.696,296.514c3.146,14.315,0.336,29.63-8.14,45.095l2.321,0.686
								c2.291-4.243,4.179-8.497,5.653-12.744c4.014-11.582,4.857-22.872,2.506-33.555c-0.383-1.755-1.232-4.28-3.057-7.047
								c-0.552,0.718-0.516,2.212-0.634,3.405C627.94,293.827,628.421,295.263,628.696,296.514z"/>
							<g>
								<g>
									<g>
										<path style="fill:#9B9B9B;" d="M595.451,385.412c-3.748-0.175-5.568-1.704-6.447-3.075
											c-2.014-3.124-1.203-8.159,2.341-14.557c2.145-3.871,6.283-9.22,9.304-13.128c1.478-1.908,3.007-3.879,3.168-4.275
											c-0.047,0.116-0.056,0.38,0.122,0.603l1.137-0.908c0.436,0.545,0.012,1.122-0.831,2.27
											c-0.594,0.809-1.451,1.919-2.445,3.201c-2.993,3.869-7.094,9.166-9.182,12.941c-3.224,5.818-4.073,10.458-2.393,13.066
											c1.181,1.833,3.703,2.654,7.293,2.369l0.114,1.451C596.84,385.431,596.116,385.443,595.451,385.412z"/>
										<path style="fill:#1C1818;" d="M601.682,384.958c-0.065,1.405-1.69,2.468-3.628,2.377
											c-1.938-0.09-3.456-1.302-3.391-2.705c0.067-1.404,1.692-2.468,3.63-2.378
											C600.232,382.344,601.75,383.554,601.682,384.958z"/>
									</g>
									<g>
										<path style="fill:#9B9B9B;" d="M608.965,390.028c2.775,2.524,5.146,2.726,6.738,2.382
											c3.63-0.792,6.612-4.927,8.625-11.961c1.216-4.255,2.066-10.964,2.685-15.864c0.302-2.393,0.617-4.87,0.779-5.262
											c-0.048,0.115-0.228,0.308-0.513,0.34l-0.16-1.445c-0.694,0.078-0.802,0.784-1.017,2.191
											c-0.151,0.993-0.327,2.383-0.532,3.993c-0.612,4.852-1.455,11.499-2.641,15.646c-1.826,6.394-4.504,10.278-7.538,10.94
											c-2.128,0.463-4.493-0.738-6.833-3.475l-1.105,0.944C607.967,389.06,608.472,389.581,608.965,390.028z"/>
										<path style="fill:#1C1818;" d="M604.874,385.305c-0.944,1.04-0.546,2.94,0.89,4.246c1.436,1.305,3.365,1.519,4.31,0.48
											c0.944-1.04,0.548-2.941-0.889-4.245C607.75,384.48,605.819,384.266,604.874,385.305z"/>
									</g>
									<g>
										<path style="fill:#2B3F44;" d="M627.769,365.908c-0.096-0.016-0.192-0.072-0.283-0.051
											c-1.889,0.453-2.351-0.053-3.573,0.131c0.267-1.559,0.41-3.02,0.445-4.386c0.309-13.031-9.487-17.113-18.682-9.092
											c-1.32,1.148-2.623,2.544-3.883,4.199c-1.434-1.209-1.176-0.934-2.649-2.094c4.419-6.7,19.238-20.889,24.997-19.419
											C631.247,337.007,628.354,357.652,627.769,365.908z"/>
									</g>
									<g style="opacity:0.5;">
										<g>
											<path style="fill:#1D6693;" d="M624.358,361.602c0.309-13.031-9.487-17.113-18.682-9.092
												c4.457-5.477,14.237-15.088,17.586-14.233C628.03,339.489,625.065,359.542,624.358,361.602z"/>
										</g>
										<path style="fill:#FF981D;" d="M623.573,363.895c0.009,0.072,0.001,0.152-0.028,0.233
											C623.025,365.567,623.169,365.091,623.573,363.895z"/>
									</g>
								</g>
							</g>
						</g>
						<g>
							<path style="fill:#3A1818;" d="M722.631,223.546c3.135-11.351-0.818-28.626-14.198-31.313l-20.051,11.554
								c5.054,4.153,8.751,9.071,10.639,15.438c1.515,5.11,2.687,11.41,1.847,16.691c-1.291,8.127-4.963,16.696-9.466,23.311
								c1.517-0.865,2.799-2.056,4.183-3.028C706.702,248.403,718.896,237.075,722.631,223.546z"/>
							<g>
								<path style="fill:#FFB278;" d="M675.513,268.278c1.931-2.958,5.048-6.409,5.048-6.409c5.271-5.968,15.861-6.7,17.379-0.823
									c1.527,5.901-2.444,12.684-6.176,16.041c-3.683,3.317-12.287,7.928-16.999,3.428
									C670.738,276.674,673.445,271.448,675.513,268.278z"/>
								<path style="fill:#E5804E;" d="M682.597,263.937c0.508-0.694,3.57-2.193,4.344-2.603c5.918-3.146,10.199,1.538,7.329,7.148
									c0.864-5.858-4.589-4.071-8.051-2.711c1.698,1.013,0.517,4.8-0.61,5.907c-1.989,1.95-4.189,1.303-6.383,0.467l0.134-0.175
									c1.338-1.528,4.667-2.557,4.627-5.568C683.968,264.752,681.65,265.226,682.597,263.937z"/>
							</g>
							<path style="fill:#FFB278;" d="M700.465,241.88c15.364-23.421,8.908-63.084-23.549-70.872
								c-6.88-1.652-19.497-0.846-26.231,2.67c0,0-12.636,11.668-29.035,35.368c-8.879,12.832-9.278,15.782-17.835,33.211
								c-10.271,20.917,8.211,51.416,28.933,58.409c14.95,5.045,29.442-10.515,37.398-16.293
								C681.336,276.255,693.056,253.175,700.465,241.88z"/>
							<g>
								<path style="fill:#E5804E;" d="M651.39,229.478c0.077-2.756-0.71-5.341-2.863-6.236c-2.643-1.094-6.236-0.907-8.91-0.151
									c-1.178,0.332-3.268,1.295-4.89,2.225c-3.285,1.881-3.751,3.947-3.751,3.947c0.494,0.482,2.245-1.559,2.863-1.036
									c3.328,2.845,8.218,6.105,12.594,7.737c0.898,0.335,1.773,0.6,2.61,0.784C650.362,235.17,651.309,232.24,651.39,229.478z"/>
								<g>
									<path style="fill:#FFFFFF;" d="M647.75,239.475c-0.814-0.228-1.67-0.529-2.548-0.891c-4.305-1.764-9.234-4.956-12.642-7.66
										c-0.63-0.496-1.205-0.975-1.719-1.43c0,0,1.019-0.451,2.312-0.97c1.498-0.599,3.367-1.288,4.458-1.471
										c2.481-0.412,5.879-0.262,8.486,0.895c2.124,0.947,3.095,3.212,3.258,5.548
										C649.517,235.836,648.869,238.247,647.75,239.475z"/>
									<path style="fill:#260F0E;" d="M648.944,234.261c-1.016,1.773-2.31,3.236-3.741,4.322
										c-4.305-1.764-9.234-4.956-12.642-7.66c0.121-0.788,0.317-1.596,0.593-2.399c1.498-0.599,3.367-1.288,4.458-1.471
										c2.481-0.412,5.879-0.262,8.486,0.895c2.124,0.947,3.095,3.212,3.258,5.548
										C649.227,233.75,649.089,234.008,648.944,234.261z"/>
									<path style="fill:#FFFFFF;" d="M639.113,231.358c-0.343,0.599-1.045,0.839-1.567,0.541c-0.524-0.3-0.668-1.026-0.327-1.625
										c0.346-0.598,1.045-0.839,1.568-0.54C639.308,230.032,639.456,230.761,639.113,231.358z"/>
								</g>
							</g>
							<g>
								<path style="fill:#E5804E;" d="M690.029,250.182c0.17-2.704-0.479-5.209-2.469-6.01c-2.443-0.98-5.824-0.67-8.362,0.163
									c-1.115,0.368-3.111,1.382-4.666,2.35c-3.152,1.959-3.663,4.002-3.663,4.002c0.45,0.455,2.164-1.607,2.725-1.117
									c3.025,2.67,7.503,5.695,11.558,7.14c0.827,0.297,1.642,0.526,2.421,0.677C688.866,255.798,689.859,252.891,690.029,250.182
									z"/>
								<g>
									<path style="fill:#FFFFFF;" d="M686.264,260.106c-0.756-0.194-1.549-0.459-2.362-0.783
										c-3.979-1.577-8.496-4.533-11.6-7.064c-0.576-0.464-1.099-0.915-1.563-1.339c0,0,0.97-0.479,2.202-1.032
										c1.429-0.642,3.21-1.381,4.24-1.596c2.339-0.493,5.528-0.466,7.936,0.577c1.96,0.853,2.789,3.037,2.862,5.324
										C688.05,256.479,687.358,258.864,686.264,260.106z"/>
									<path style="fill:#260F0E;" d="M687.565,254.955c-1.016,1.774-2.283,3.251-3.664,4.368
										c-3.979-1.577-8.496-4.533-11.6-7.064c0.138-0.778,0.352-1.576,0.639-2.371c1.429-0.642,3.21-1.381,4.24-1.596
										c2.339-0.493,5.528-0.466,7.936,0.577c1.96,0.853,2.789,3.037,2.862,5.324
										C687.849,254.444,687.711,254.704,687.565,254.955z"/>
									<path style="fill:#FFFFFF;" d="M678.435,252.456c-0.341,0.598-1.007,0.86-1.488,0.583c-0.48-0.274-0.591-0.983-0.25-1.581
										c0.343-0.597,1.011-0.859,1.491-0.583C678.668,251.15,678.78,251.858,678.435,252.456z"/>
								</g>
							</g>
							<path style="fill:#E5804E;" d="M660.391,251.303c-1.539,1.109-7.598,13.585-8.26,16.283c-2.44,0.505-6.326-1.902-8.807-1.516
								c2.734,1.944,5.737,4.13,10.771,4.448L660.391,251.303z"/>
							<g>
								<path style="fill:#E5804E;" d="M629.286,259.037c1.697,10.312,7.002,16.651,10.738,18.794
									c2.327,1.333,4.604,2.105,6.807,2.371c3.505,0.418,6.816-0.462,9.799-2.47c0,0-2.303-0.677-5.871-2.384
									C645.309,272.739,636.909,267.727,629.286,259.037z"/>
								<path style="fill:#FFFFFF;" d="M629.286,259.037c1.697,10.312,7.002,16.651,10.738,18.794
									c2.327,1.333,4.604,2.105,6.807,2.371c1.107-1.784,2.464-3.357,3.928-4.855
									C645.309,272.739,636.909,267.727,629.286,259.037z"/>
							</g>
							<path style="fill:#260F0E;" d="M636.157,209.285l-4.314,5.88c7.133,6.337,17.58,8.913,24.816,15.846
								c1.99-2.129,5.139-6.134,6.712-8.391C656.564,216.06,644.968,212.068,636.157,209.285z"/>
							<path style="fill:#260F0E;" d="M677.243,231.43l-4.451,6.62c6.153,6.252,15.676,8.223,21.882,15.104
								c2.009-2.431,5.239-6.955,6.873-9.493C695.708,237.15,685.226,233.747,677.243,231.43z"/>
							<g>
								<path style="fill:#FFFFFF;" d="M642.085,248.765c-0.001,0-0.001,0-0.001,0c-0.217-0.094-0.432-0.199-0.646-0.312
									l-13.21-7.031c-5.112-2.722-6.603-9.923-3.348-16.096c0.896-2.682,3.16-8.755,5.569-9.777
									c3.775-1.6,9.473-0.987,15.633,1.681c6.974,3.02,14.538,8.83,15.71,15.003c0.486,2.562-3.322,7.814-5.065,10.048
									C653.55,248.107,647.139,250.955,642.085,248.765z M645.038,219.634c-5.404-2.34-10.454-2.964-13.51-1.667
									c-0.867,0.385-2.808,4.269-4.152,8.314l-0.035,0.104l-0.051,0.097c-2.639,4.92-1.662,10.587,2.177,12.631l13.211,7.032
									c3.862,2.053,9.128-0.331,11.749-5.219l0.121-0.184c2.626-3.36,4.787-7.126,4.626-8.059
									C658.331,228.239,652.517,222.873,645.038,219.634z"/>
								<path style="fill:#FFFFFF;" d="M679.055,269.059L679.055,269.059c-0.192-0.084-0.381-0.176-0.57-0.277l-11.615-6.342
									c-4.493-2.453-5.529-9.46-2.335-15.657c0.925-2.671,3.225-8.728,5.439-9.832c3.473-1.732,8.582-1.374,14.025,0.983
									c6.165,2.67,12.736,8.05,13.531,14.058c0.33,2.497-3.328,7.813-4.993,10.079
									C689.423,267.924,683.518,270.991,679.055,269.059z M682.959,240.339c-4.777-2.069-9.302-2.465-12.115-1.063
									c-0.799,0.413-2.712,4.309-4.097,8.336l-0.036,0.104l-0.051,0.097c-2.589,4.943-1.948,10.462,1.428,12.307l11.614,6.339
									c3.398,1.855,8.246-0.713,10.818-5.618l0.116-0.187c2.51-3.41,4.621-7.2,4.516-8.108
									C694.578,248.218,689.567,243.199,682.959,240.339z"/>
								<path style="fill:#FFFFFF;" d="M667.379,241.143c-0.347-2.042-1.173-3.476-2.455-4.263c-1.31-0.807-3.118-0.923-4.959-0.326
									l-0.697-2.483c2.532-0.821,5.082-0.614,7,0.561c1.319,0.81,3.015,2.506,3.606,5.987L667.379,241.143z"/>
							</g>
							<path style="fill:#3A1818;" d="M719.955,198.844c-0.154,0.354-0.324,0.68-0.52,0.988c-1.055,1.707-2.655,2.749-3.789,3.77
								c-4.812,4.336-12.498,9.012-19.091,9.876c-16.884,2.221-31.917-14.779-47.897-10.688c1.635-6.645,8.434-7.228,13.381-9.549
								c-10.752-4.833-19.319,5.337-26.086,12.41c-4.323,4.523-9.618,7.436-13.563,12.132c-3.26,3.879-7.959,14.552-12.638,16.404
								l-0.353-22.859c1.533-7.367,2.325-14.992,5.836-24.339c3.304-8.815,9.224-18.672,16.841-24.835
								c4.836-3.91,10.38-6.621,16.209-8.217c11.141-3.056,23.329-2.048,33.675,2.417c14.505,6.252,27.883,15.308,35.427,29.448
								c1.181,2.203,1.979,4.106,2.472,5.753C720.861,194.852,720.677,197.143,719.955,198.844z"/>
							<g>
								<path style="fill:#140808;" d="M719.955,198.844c-0.176,0.337-0.343,0.665-0.52,0.988c-1.055,1.707-2.655,2.749-3.789,3.77
									c-4.812,4.336-12.498,9.012-19.091,9.876c-16.884,2.221-31.917-14.779-47.897-10.688c1.635-6.645,8.434-7.228,13.381-9.549
									c-10.752-4.833-19.319,5.337-26.086,12.41c-4.323,4.523-9.618,7.436-13.563,12.132c-3.26,3.879-7.959,14.552-12.638,16.404
									l-0.353-22.859c1.533-7.367,2.325-14.992,5.836-24.339c3.304-8.815,9.224-18.672,16.841-24.835
									c4.836-3.91,10.38-6.621,16.209-8.217c-6.079,6.557-14.769,19.93-12.089,28.957c4.146-7.1,16.431-2.708,21.826-0.143
									c5.088,2.425,9.702,5.307,14.648,7.784c4.362,2.175,9.814,2.387,13.802,4.962c-2.484,0.689-5.706,0.729-7.836,2.598
									c1.801,3.493,8.732,5.122,12.249,6.039c4.871,1.266,9.656,1.082,14.479-0.079c7.531-1.814,11.317-6.7,14.494-12.501
									C720.861,194.852,720.677,197.143,719.955,198.844z"/>
							</g>
							<g>
								<path style="fill:#FFB278;" d="M614.099,229.578c1.686-3.378,3.18-8.113,3.18-8.113c2.657-8.079-2.386-18.234-8.623-16.46
									c-6.259,1.78-10.367,9.099-11.449,14.351c-1.064,5.188-0.672,15.602,6.02,17.518
									C608.942,238.509,612.294,233.195,614.099,229.578z"/>
								<path style="fill:#E5804E;" d="M614.279,220.705c0.363-0.846,0.092-4.475,0.051-5.41c-0.293-7.151-6.923-8.57-10.545-2.896
									c4.934-3.957,6.229,2.034,6.847,5.957c-1.853-1.018-4.706,2.113-5.117,3.751c-0.722,2.885,1.059,4.563,3.014,6.133
									l0.092-0.217c0.684-2.059-0.161-5.684,2.631-7.271C612.786,219.883,613.601,222.275,614.279,220.705z"/>
							</g>
							<path style="fill:#E5804E;" d="M636.608,284.164c1.203,0.634,2.264,1.502,3.129,2.533c0.976-1.674,1.896-3.797,2.233-5.138
								c-0.061-0.013-0.122-0.02-0.183-0.034c-0.88-0.321-1.762-0.643-2.642-0.965c-0.899-0.392-1.812-0.964-2.434-1.681
								c-0.104-0.121-0.202-0.234-0.296-0.341c-0.731,1.109-2.442,2.915-3.819,4.457
								C633.988,283.113,635.359,283.505,636.608,284.164z"/>
						</g>
					</g>
					<g>
						<g>
							<path style="fill:#DFEAE8;" d="M492.222,288.6c-0.036-0.178-0.077-0.343-0.13-0.482L492.222,288.6z"/>
							<path style="fill:#DFEAE8;" d="M534.849,446.642c-6.728,15.758-13.755,30.942-20.846,44.945
								c-2.615-2.344-5.073-4.952-7.367-7.765c-14.735-18.011-23.084-44.257-25.912-63.554c-3.473-23.688-3.701-48.69-1.385-72.783
								c1.271-13.279,14.31-51.695,12.881-58.885l34.338,127.305L534.849,446.642z"/>
						</g>
						<g>
							<path style="fill:#FFB278;" d="M606.245,536.893c-5.476-7.504-10.399-14.602-14.684-22.828
								c-2.8-5.375-6.586-14.284-9.947-18.01l-39.787-1.895c9.628,15.852,16.969,33.861,29.498,47.723
								c10.08,11.154,19.962,23.491,32.089,32.682c5.294,4.012,6.807,4.397,13.144,2.367c5.212-1.668,11.287-3.64,14.835-7.934
								C622.9,558.429,614.269,547.891,606.245,536.893z"/>
							<path style="fill:#FFFFFF;" d="M688.495,578.933c0.204-3.775-2.75-5.753-5.925-6.51c6.092,0.365,0.123-4.915-5.276-5.793
								c-5.096-0.828-14.339-3.475-19.669-4.353c-5.832-0.962-11.016-1.737-16.993-0.743c-13.545,2.254-19.23-5.324-19.23-5.324
								c-0.843,1.406-0.627,13.414-3.105,14.861c-4.174,2.436-9.566,5.045-14.383,5.461c3.361,6.856,14.3,12.744,21.624,14.051
								c10.767,1.921,21.756-0.301,32.657,2.216c5.648,1.304,10.032,1.295,15.642,0.289c3.993-0.715,11.414-1.087,14.079-4.375
								c-1.241-3.022-5.91-1.546-7.879-3.232c3.15,0.303,8.372,1.224,11.361-0.182C696.593,582.856,692.049,579.797,688.495,578.933
								z"/>
							<path style="fill:#FFFFFF;" d="M585.737,564.498c7.718-3.078,22.624-9.5,29.981-27.708
								c-21.657-24.698-45.344-72.209-55.164-131.285c-4.566-27.462-13.983-60.292-19.009-87.674
								c-3.172-17.273-6.367-45.279-23.621-47.071c-18.222-1.891-38.259,18.162-38.259,50.132
								C479.664,357.482,524.629,514.919,585.737,564.498z"/>
							<g>
								<path style="fill:#F91510;" d="M689.849,576.661c0.23,1.895,3.228,3.139,4.41,1.294
									C696.041,575.176,690.671,576.161,689.849,576.661z"/>
								<path style="fill:#F91510;" d="M700.26,573.823c0.003-0.001,0.007-0.003,0.009-0.004c-0.016-0.126-0.019-0.255-0.009-0.387
									V573.823z"/>
							</g>
						</g>
					</g>
				</g>
			</g>
			<g>
				<g>
					<path style="fill:#D0D7E2;" d="M1007.961,758.427h-235.53c28.09-9.9,60.553-167.041,72.86-210.111
						c16.43-57.51,70.393-83.433,113.824-69.398c10.319,3.332,20.037,8.917,28.521,16.87
						C1041.853,546.622,1022.775,725.517,1007.961,758.427z"/>
					<g>
						<polygon style="fill:#4C4C4C;" points="717.042,1009.541 750.296,756.736 724.879,758.347 708.358,1009.541 						"/>
						<polygon style="fill:#4C4C4C;" points="931.393,1009.541 898.14,756.736 923.556,758.347 940.077,1009.541 						"/>
						<polygon style="fill:#4C4C4C;" points="1011.032,1009.541 977.779,756.736 1003.195,758.347 1019.718,1009.541 						"/>
						<polygon style="fill:#4C4C4C;" points="836.502,1009.541 803.247,756.736 828.665,758.347 845.186,1009.541 						"/>
					</g>
					<g>
						<path style="fill:#FFFFFF;" d="M1007.961,758.427h-61.797c25.912-52.969,38.066-118.421,38.072-176.225
							c0.007-27.436-1.835-54.861-12.329-79.632c-2.264-5.338-6.879-14.487-12.792-23.652c10.319,3.332,20.037,8.917,28.521,16.87
							C1041.853,546.622,1022.775,725.517,1007.961,758.427z"/>
					</g>
					<g>
						<path style="fill:#D0D7E2;" d="M1011.457,758.43c0,4.679-3.793,8.473-8.473,8.473H803.037c-4.679,0-8.472-3.794-8.472-8.473
							l0,0c0-4.679,3.793-8.472,8.472-8.472h199.947C1007.664,749.959,1011.457,753.751,1011.457,758.43L1011.457,758.43z"/>
						<path style="fill:#FFFFFF;" d="M933.511,758.43c0,4.679-3.795,8.473-8.473,8.473H725.092c-4.68,0-8.474-3.794-8.474-8.473l0,0
							c0-4.679,3.794-8.472,8.474-8.472h199.946C929.716,749.959,933.511,753.751,933.511,758.43L933.511,758.43z"/>
					</g>
				</g>
				<g>
					<g>
						<g>
							<path style="fill:#301F23;" d="M631.99,1010.723c1.055,0.778,3.1,1.382,5.822,1.84c12.099,2.052,37.541,1.227,48.375-0.363
								c0.038-0.008,0.077-0.015,0.115-0.019c0.916-0.133,1.717-0.285,2.38-0.439c0.899-0.218,1.547-0.452,1.902-0.703
								c0.05-0.035,0.092-0.075,0.127-0.108c1.002-0.938,1.327-3.535,1.19-7.108c-0.021-0.555-0.051-1.137-0.096-1.737
								c-0.168-2.43-0.506-5.203-0.96-8.148c-2.074-13.415-6.537-30.391-8.353-34.702l-18.416,1.995
								c-5.532,13.111-13.851,20.746-20.706,27c-5.892,5.372-10.7,9.728-11.746,15.666
								C631.256,1005.946,631.345,1008.189,631.99,1010.723z"/>
						</g>
						<g>
							<path style="fill:#140D0F;" d="M631.99,1010.723c1.055,0.778,3.1,1.382,5.822,1.84c14.507,1.463,39.182,0.693,50.24-0.735
								c0.043-0.009,0.085-0.016,0.127-0.018c0.173-0.021,0.337-0.048,0.503-0.068c0.899-0.218,1.547-0.452,1.902-0.703
								c0.05-0.035,0.092-0.075,0.127-0.108c1.002-0.938,1.327-3.535,1.19-7.108c-1.358,0.062-2.687,0.128-3.576,0.248
								c-0.042,0.003-0.084,0.011-0.126,0.019c-12.913,1.668-44.398,2.434-56.576-0.193
								C631.256,1005.946,631.345,1008.189,631.99,1010.723z"/>
						</g>
					</g>
					<g>
						<g>
							<path style="fill:#301F23;" d="M800.465,1013.49c1.08,0.797,3.175,1.416,5.962,1.885c12.391,2.102,38.448,1.256,49.544-0.371
								c0.039-0.009,0.078-0.016,0.116-0.02c0.938-0.136,1.759-0.292,2.438-0.449c0.922-0.223,1.585-0.464,1.948-0.72
								c0.052-0.035,0.095-0.077,0.13-0.111c1.027-0.961,1.36-3.62,1.219-7.28c-0.021-0.568-0.052-1.165-0.098-1.779
								c-0.172-2.489-0.519-5.33-0.984-8.346c-2.124-13.738-6.695-31.126-8.556-35.54l-18.861,2.045
								c-5.666,13.427-14.186,21.245-21.207,27.652c-6.033,5.502-10.959,9.963-12.03,16.044
								C799.714,1008.599,799.804,1010.896,800.465,1013.49z"/>
						</g>
						<g>
							<path style="fill:#140D0F;" d="M800.465,1013.49c1.08,0.797,3.175,1.416,5.962,1.885c14.857,1.498,40.129,0.711,51.454-0.753
								c0.045-0.009,0.086-0.017,0.13-0.019c0.177-0.022,0.345-0.049,0.514-0.069c0.922-0.223,1.585-0.464,1.948-0.72
								c0.052-0.035,0.095-0.077,0.13-0.111c1.027-0.961,1.36-3.62,1.219-7.28c-1.39,0.063-2.751,0.131-3.662,0.253
								c-0.043,0.003-0.086,0.011-0.13,0.02c-13.225,1.708-45.471,2.493-57.943-0.197
								C799.714,1008.599,799.804,1010.896,800.465,1013.49z"/>
						</g>
					</g>
					<path style="fill:#381E1A;" d="M945.386,686.466c0,0-53.998,9.474-95.917,2.368c-35.836-6.074-52.576-15.867-52.576-15.867
						c-39.443,9.545-53.297,11.677-76.743,18.071c-41.574,11.338-65.006,24.511-56.476,45.829
						c11.323,28.3,102.307,20.246,244.766,15.99c8.029-0.24,21.298-5.23,25.572-12.872
						C939.681,729.849,945.859,698.781,945.386,686.466z"/>
					<path style="fill:#140808;" d="M829.575,709.439c-7.816-4.974-23.182-3.381-30.264,1.081
						c-9.543,6.013-14.581,14.597-22.414,22.088c-8.052,7.701-21.987,14.215-32.47,16.814c-10.034,2.488-24.472-0.568-33.432,4.5
						c13.287,8.239,45.172,4.016,61.377,3.197c17.516-0.885,46.029,1.371,61.809-6.394L829.575,709.439z"/>
					<path style="fill:#381E1A;" d="M720.154,746.453l-33.041-37.298c-63.94-7.46-23.444,180.1-37.295,261.092
						c10.41,0.691,37.849,0.208,47.958-1.062c1.546-16.046,26.642-141.737,30.906-183.298
						C729.453,778.362,723.354,752.85,720.154,746.453z"/>
					<path style="fill:#381E1A;" d="M867.214,718.745c0,0-16.479-18.921-40.419-18.294c-59.733,1.565-11.321,256.403-15.346,272.981
						c12.139,2.632,44.136,1.733,54.199-1.029c-0.773-16.492,4.763-118.154,4.763-160.943
						C870.412,769.986,870.412,743.256,867.214,718.745z"/>
					<g>
						<g>
							<g>
								<path style="fill:#425B28;" d="M947.786,639.931c0,0.676,0,1.336-0.007,1.989c0,0.313-0.007,0.625-0.007,0.93
									c-0.008,0.853-0.022,1.691-0.029,2.515c-0.008,0.369-0.008,0.732-0.022,1.094c-0.014,0.81-0.028,1.613-0.042,2.395
									c-0.021,1.037-0.05,2.046-0.078,3.041c-0.043,1.414-0.093,2.785-0.149,4.114c-0.021,0.583-0.05,1.158-0.078,1.727
									c-0.036,0.718-0.071,1.428-0.107,2.124c-0.015,0.313-0.029,0.618-0.05,0.916c-0.028,0.497-0.057,0.988-0.092,1.464
									c-0.028,0.483-0.057,0.959-0.093,1.428c-0.036,0.469-0.064,0.931-0.099,1.385c-0.036,0.455-0.071,0.902-0.107,1.35
									c-0.008,0.149-0.021,0.298-0.036,0.448c-0.071,0.81-0.143,1.591-0.213,2.352c0,0,0.007,0,0,0.007
									c-0.07,0.761-0.15,1.507-0.228,2.232c-0.17,1.591-0.355,3.091-0.554,4.504c-0.051,0.355-0.1,0.704-0.15,1.045
									c-0.021,0.134-0.043,0.27-0.064,0.405v0.036c-0.789,5.215-1.748,9.286-2.813,12.668c-0.079,0.256-0.164,0.505-0.242,0.753
									c-0.171,0.504-0.341,1.001-0.512,1.485c-9.798,2.365-20.072,3.921-30.58,4.682c-0.007,0-0.007,0-0.014,0
									c-2.003-0.327-4.007-0.639-6.011-0.931c-0.604-0.092-1.214-0.178-1.826-0.263c-0.909-0.135-1.826-0.263-2.735-0.383
									c-0.774-0.107-1.542-0.206-2.317-0.306c-0.214-0.028-0.419-0.057-0.632-0.085c-1.754-0.227-3.517-0.44-5.272-0.646
									c-3.659-0.426-7.325-0.81-11-1.158c-0.681-0.064-1.37-0.128-2.052-0.191c-11.751-1.052-23.545-1.506-35.34-1.521
									c-16.533-3.929-32.434-9.755-46.792-17.443c0.476-2.508,0.917-5.08,1.329-7.723c0.07-0.455,0.141-0.917,0.212-1.379
									c0.44-2.92,0.838-5.904,1.201-8.952c0.099-0.845,0.198-1.698,0.291-2.55c0.192-1.705,0.362-3.432,0.526-5.172
									c0.085-0.867,0.162-1.741,0.241-2.615c0.128-1.513,0.256-3.041,0.362-4.575c0.022-0.235,0.036-0.476,0.05-0.71
									c0.065-0.845,0.121-1.691,0.178-2.537c0.114-1.826,0.22-3.666,0.313-5.506c0.036-0.717,0.071-1.428,0.099-2.146
									c0.05-1.087,0.092-2.181,0.128-3.268c0.072-1.812,0.121-3.624,0.157-5.443c0.021-0.909,0.035-1.819,0.049-2.721
									c0-0.12,0-0.241,0.007-0.362c0.021-1.698,0.036-3.396,0.036-5.087c0.014-24.561-2.309-48.732-7.148-66.452
									c-5.343-19.553-7.439-39.425-9.314-59.44c-1.493-15.95,2.799-25.67,11.212-34.309c2.06-2.124,4.376-4.178,6.906-6.252
									c0.718-0.583,1.442-1.165,2.195-1.741c1.819-1.428,3.73-2.863,5.741-4.341l0.398-0.263l0.107-0.057l0.212-0.142l8.555-5.556
									l18.756-12.192l8.662-5.648l16.632-10.8l1.584-1.03l0.221-0.149c2.963,2.593,6.472,5.385,10.217,8.071
									c3.958,2.842,8.192,5.563,12.355,7.78c4.185,2.224,9.187,3.503,14.068,4.853c2.742,0.753,5.435,1.541,7.943,2.522
									c1.91,0.753,3.701,1.619,5.301,2.693c9.115,6.089,14.785,20.49,18.109,34.437c2.089,8.704,3.261,17.237,3.801,23.461
									c1.386,16.057,2.586,30.82,3.609,44.391C946.471,582.566,947.878,616.287,947.786,639.931z"/>
								<g>
									<g>
										<path style="fill:#FFB278;" d="M867.908,449.012c-22.499,17.151-31.463,21.754-39.986,23.134
											c-5.193,0.84-7.502-13.605-10.831-21.062c-4.536-10.186-8.682-21.858-13.219-28.545c-1.131-1.676-2.292-3.041-3.487-3.988
											l36.086-31.374l16.828-14.633c0.982,2.741,1.963,5.522,2.933,8.33C864.404,404.558,888.097,433.622,867.908,449.012z"/>
										<path style="fill:#E5804E;" d="M843.512,428.786c-6.627,9.633-17.042,12.806-29.916,13.687
											c-4.537-10.186-5.188-13.248-9.725-19.935l32.599-35.362l18.25-19.8c0.032,4.676,0.712,9.12,1.511,13.498
											C857.527,387.939,850.05,419.298,843.512,428.786z"/>
									</g>
									<path style="fill:#6B8E43;" d="M877.488,412.59c-3.52-2.483-10.23-10.835-12.761-12.554
										c7.721,36.967-36.806,72.109-36.806,72.109c6.953,4.164,31.904-19.406,37.061-13.727
										c8.549,9.413,16.328,0.045,22.017,0.045C887.852,439.339,877.674,415.448,877.488,412.59z"/>
									<path style="fill:#6B8E43;" d="M830.378,473.025c-11.284-1.4-7.979-18.665-18.535-34.4
										c-4.108,3.716-6.006,2.921-7.662,8.61c2.968,9.884-2.56,14.713-0.611,25.583
										C807.183,465.888,830.378,473.025,830.378,473.025z"/>
								</g>
								<g>
									<path style="fill:#6B8E43;" d="M837.144,498.969c0.47,1.424-0.303,2.958-1.726,3.428c-1.422,0.47-2.957-0.302-3.427-1.725
										c-0.471-1.422,0.303-2.957,1.726-3.427C835.139,496.774,836.674,497.547,837.144,498.969z"/>
									<path style="fill:#6B8E43;" d="M853.255,566.248c0.47,1.423-0.303,2.957-1.726,3.428c-1.422,0.47-2.956-0.302-3.427-1.725
										c-0.47-1.422,0.303-2.957,1.725-3.427C851.252,564.053,852.785,564.825,853.255,566.248z"/>
									<path style="fill:#6B8E43;" d="M861.967,629.651c0.471,1.423-0.302,2.957-1.725,3.427c-1.424,0.47-2.958-0.301-3.428-1.724
										c-0.47-1.422,0.302-2.957,1.724-3.427C859.963,627.456,861.498,628.229,861.967,629.651z"/>
								</g>
								<path style="fill:#6B8E43;" d="M833.698,471.866c0.058,0.394-0.08,0.81-0.527,1.096c-0.755,0.472-1.51,0.943-2.188,1.519
									c-6.385,5.402-6.702,14.146-6.501,21.902c0.232,9.118,1.563,18.149,3.474,27.057c3.888,18.159,9.705,35.85,13.351,54.072
									c3.44,17.158,4.145,34.853,4.745,52.317c0.409,12.088-0.329,41.735-1.865,61.705c-1.472,0.001-2.944,0.003-4.415,0.025
									c2.125-22.211,4.154-58.438,3.306-73.6c-0.485-8.689-0.761-17.495-1.841-26.132c-1.163-9.321-3.154-18.499-5.444-27.593
									c-4.441-17.611-9.99-35.082-12.485-53.119c-1.792-12.933-8.375-30.574,4.389-38.824l0.02-0.009
									c0.066-0.051,0.132-0.094,0.206-0.138l3.905-1.204c0.434-0.271,0.868-0.233,1.204-0.035
									C833.391,471.099,833.639,471.472,833.698,471.866z"/>
								<path style="fill:#685851;" d="M776.762,335.957l-18.473-2.842c-6.73,1.572-3.214,21.039-1.42,25.577
									c2.798,7.083,10.07,16.969,17.572,20.189c-1.791-6.251-3.606-12.625-3.257-19.241
									C771.37,356.076,773.873,336.73,776.762,335.957z"/>
								<path style="fill:#381E1A;" d="M911.928,428.199c-28.497,16.42-25.968,51.654-23.721,82.926
									c0.168,2.383,0.341,4.737,0.495,7.058c0.945,14.23,2.411,28.979,3.822,43.234c3.698,37.17,7.523,75.605,3.121,112.336
									c-0.48,4.001-1.569,8.736-2.619,13.322c-0.849,3.706-1.71,7.485-2.239,10.791c-0.417,2.592-0.616,4.888-0.442,6.62
									l-6.363,0.645c-0.218-2.192-0.037-4.772,0.387-7.615c0.541-3.636,1.466-7.687,2.425-11.87
									c1.011-4.417,2.063-8.991,2.501-12.651c4.317-36.035,0.53-74.117-3.135-110.941c-1.418-14.311-2.89-29.11-3.839-43.446
									c-0.152-2.314-0.323-4.661-0.497-7.022c-1.254-17.49-2.552-35.569,1.013-51.914c3.257-14.966,10.216-26.181,21.148-33.997
									C906.724,426.432,909.422,427.215,911.928,428.199z"/>
								<path style="fill:#381E1A;" d="M814.797,559.111c6.85,36.723,13.941,74.69,12.683,111.661
									c-0.134,4.026-0.815,8.836-1.471,13.493c-0.639,4.548-1.295,9.205-1.417,12.943c-0.063,1.794-0.006,3.375,0.229,4.636
									l-6.28,1.186c-0.315-1.652-0.409-3.558-0.35-5.645c0.1-4.129,0.784-8.982,1.491-14.009c0.63-4.496,1.281-9.139,1.41-12.821
									c1.23-36.266-5.793-73.891-12.583-110.27c-2.635-14.139-5.359-28.754-7.531-42.959c-0.351-2.292-0.72-4.617-1.091-6.955
									c-2.742-17.316-5.572-35.222-3.421-51.808c0.241-1.857,0.54-3.658,0.907-5.415c2.063-2.127,4.376-4.182,6.911-6.255
									c0.713-0.58,1.442-1.163,2.191-1.741c-7.476,18.701-3.725,42.431-0.273,64.214c0.373,2.36,0.743,4.692,1.095,6.991
									C809.449,530.456,812.168,545.022,814.797,559.111z"/>
								<g>
									<g>
										<path style="fill:#FFB278;" d="M858.159,367.059c0.503,6.373,0.297,12.579-0.583,18.3
											c-2.536,16.544-15.574,45.656-37.903,49.821c-14.334,2.673-23.785-8.88-31.804-20.605
											c-6.626-9.685-11.225-21.125-14.003-29.082c-2.948-8.452-8.86-36.399-9.632-45.431
											c-3.065-35.877,54.876-40.093,70.546-25.432C849.131,328.059,856.7,348.266,858.159,367.059z"/>
										<g>
											<path style="fill:#E5804E;" d="M817.277,374.033c-0.149,4.387,3.6,8.28,7.153,8.909c3.919,0.693,7.305-1.513,9.329-5.081
												c0.976-1.721,2.16-4.421,1.882-6.504L817.277,374.033z"/>
											<g>
												<g>
													<path style="fill:#FFFFFF;" d="M835.835,371.489c-1.412,1.837-2.758,3.28-4.034,4.396
														c-4.744,4.178-8.464,3.873-10.881,2.69c-1.665-0.805-2.703-2.025-3.04-2.483c-0.426-1.001-0.654-2.333-0.679-3.763
														c-0.03-1.254,0.106-2.587,0.407-3.82c0.017-0.074,0.036-0.148,0.053-0.217c0.656-2.543,2.022-4.648,4.151-4.866
														c2.696-0.267,5.918,0.961,8.162,2.456c0.027,0.016,0.052,0.033,0.078,0.055c0.843,0.577,2.084,1.745,3.204,2.868
														c0.2,0.207,0.406,0.415,0.606,0.615c0.411,0.415,0.785,0.807,1.099,1.138c0,0,0.007,0.005,0.012,0.011
														c0.219,0.237,0.408,0.444,0.555,0.595c0.005,0.005,0.005,0.005,0.005,0.005
														C835.722,371.372,835.835,371.489,835.835,371.489z"/>
													<path style="fill:#3A2E2E;" d="M831.802,375.885c-4.744,4.178-8.464,3.873-10.881,2.69
														c-0.462-0.963-0.886-1.974-1.268-3.04c-0.469-1.306-0.885-2.696-1.231-4.123c-0.057-0.231-0.403-1.656-0.759-3.119
														c0.656-2.543,2.022-4.648,4.151-4.866c2.696-0.267,5.918,0.961,8.162,2.456c0.027,0.016,0.052,0.033,0.078,0.055
														C831.25,368.43,832.012,371.392,831.802,375.885z"/>
													<path style="fill:#FFFFFF;" d="M828.722,374.388c0.156,0.655,0.598,1.109,0.986,1.017
														c0.387-0.093,0.575-0.699,0.421-1.352c-0.156-0.654-0.598-1.109-0.985-1.017
														C828.757,373.129,828.565,373.734,828.722,374.388z"/>
												</g>
												<path style="fill:#E5804E;" d="M827.937,368.521c2.594-0.106,5.514,2.234,7.898,2.969
													c-0.367-1.161-1.466-4.715-2.788-6.434c-8.131-10.583-15.968-3.52-16.468-0.29c-0.367,2.388-0.403,4.454-0.028,6.34
													C820.209,369.733,823.958,368.683,827.937,368.521z"/>
											</g>
										</g>
										<g>
											<path style="fill:#E5804E;" d="M778.62,382.799c-0.147,4.387,3.604,8.28,7.154,8.908
												c3.918,0.694,7.306-1.512,9.331-5.082c0.974-1.719,2.159-4.421,1.883-6.504L778.62,382.799z"/>
											<g>
												<g>
													<path style="fill:#FFFFFF;" d="M797.181,380.255c-1.413,1.838-2.757,3.281-4.034,4.398
														c-4.742,4.177-8.464,3.871-10.882,2.689c-1.664-0.805-2.702-2.027-3.037-2.483c-0.426-1-0.656-2.333-0.681-3.762
														c-0.027-1.254,0.106-2.587,0.407-3.821c0.017-0.073,0.037-0.147,0.053-0.216c0.656-2.542,2.024-4.649,4.151-4.867
														c2.697-0.267,5.917,0.961,8.163,2.457c0.025,0.016,0.053,0.031,0.076,0.054c0.844,0.577,2.085,1.744,3.205,2.868
														c0.199,0.207,0.405,0.415,0.605,0.616c0.411,0.413,0.784,0.807,1.098,1.138c0,0,0.006,0.005,0.013,0.011
														c0.221,0.235,0.409,0.443,0.554,0.594c0.007,0.006,0.007,0.006,0.007,0.006
														C797.068,380.138,797.181,380.255,797.181,380.255z"/>
													<path style="fill:#3A2E2E;" d="M793.147,384.652c-4.742,4.177-8.464,3.871-10.882,2.689
														c-0.456-0.962-0.883-1.975-1.266-3.041c-0.47-1.306-0.886-2.696-1.232-4.122c-0.057-0.232-0.401-1.657-0.759-3.12
														c0.656-2.542,2.024-4.649,4.151-4.867c2.697-0.267,5.917,0.961,8.163,2.457c0.025,0.016,0.053,0.031,0.076,0.054
														C792.596,377.197,793.358,380.158,793.147,384.652z"/>
													<path style="fill:#FFFFFF;" d="M790.067,383.154c0.156,0.654,0.598,1.109,0.986,1.017
														c0.389-0.092,0.577-0.698,0.42-1.351c-0.156-0.655-0.596-1.109-0.985-1.018
														C790.101,381.895,789.913,382.501,790.067,383.154z"/>
												</g>
												<path style="fill:#E5804E;" d="M785.73,377.938c3.988-0.109,7.639,0.802,10.874,2.496
													c0.191-0.06,0.387-0.12,0.577-0.179c0,0-0.08-2.913-2.788-6.435c-8.132-10.582-15.969-3.518-16.468-0.29
													c-0.332,2.155-0.401,4.05-0.137,5.786C780.359,378.463,783.089,378.009,785.73,377.938z"/>
											</g>
										</g>
										<path style="fill:#87756C;" d="M828.501,352.161c-6.109,0.452-11.049,2.631-16.127,5.82
											c-0.582,0.366-1.373,1.063-2.162,1.94c1.401,2.654,2.655,5.391,3.904,8.062c0.108,0.23,0.21,0.461,0.317,0.69
											c0.162-0.05,0.317-0.102,0.46-0.151c5.716-1.969,10.949-5.661,16.883-7.182c2.541-0.65,4.781-0.961,7.018-0.982
											c0.062-1.984,0.12-3.972,0.168-5.959C836.104,352.904,832.582,351.859,828.501,352.161z"/>
										<path style="fill:#87756C;" d="M776.71,363.845c5.732-2.166,11.13-2.274,17.08-1.522c0.68,0.087,1.692,0.384,2.778,0.848
											c-0.151,2.996-0.135,6.007-0.142,8.957c-0.001,0.254,0.004,0.506,0.004,0.759c-0.168,0.022-0.332,0.042-0.482,0.057
											c-6.013,0.624-12.317-0.517-18.337,0.605c-2.577,0.482-4.741,1.145-6.777,2.068c-0.892-1.776-1.784-3.552-2.664-5.333
											C770.132,367.725,772.885,365.29,776.71,363.845z"/>
										<path style="fill:#E5804E;" d="M801.479,394.114c2.619,6.241,10.525,4.299,12.85-0.935L801.479,394.114z"/>
										<g>
											<path style="fill:#E5804E;" d="M773.404,350.92c0,0,0.186-0.117,0.535-0.342c0.174-0.112,0.389-0.25,0.643-0.411
												c0.257-0.155,0.562-0.316,0.902-0.503c0.17-0.093,0.35-0.192,0.538-0.294c0.194-0.094,0.395-0.19,0.606-0.29
												c0.42-0.199,0.873-0.431,1.375-0.626c0.996-0.423,2.14-0.858,3.419-1.227c0.319-0.093,0.645-0.188,0.976-0.284
												c0.337-0.08,0.683-0.163,1.031-0.246c0.695-0.181,1.429-0.301,2.181-0.436c1.505-0.249,3.099-0.435,4.751-0.599
												c1.65-0.17,3.352-0.332,5.066-0.573c0.86-0.108,1.718-0.27,2.58-0.419c0.859-0.19,1.702-0.357,2.555-0.609
												c1.671-0.484,3.305-1.148,4.891-1.847c1.591-0.698,3.149-1.416,4.7-2.025c1.548-0.615,3.112-1.079,4.611-1.364
												c1.513-0.281,2.951-0.404,4.284-0.448c2.661-0.079,4.869,0.145,6.41,0.249c1.542,0.127,2.423,0.199,2.423,0.199
												s-0.884-0.034-2.427-0.093c-1.544-0.06-3.757-0.172-6.394-0.044c-1.316,0.072-2.745,0.224-4.211,0.529
												c-1.481,0.315-2.989,0.805-4.519,1.416c-3.063,1.214-6.178,2.938-9.626,3.958c-0.844,0.245-1.737,0.417-2.599,0.601
												c-0.874,0.146-1.74,0.3-2.609,0.403c-1.732,0.232-3.44,0.382-5.088,0.54c-1.645,0.161-3.24,0.302-4.737,0.519
												c-0.746,0.118-1.473,0.22-2.166,0.385c-0.347,0.074-0.689,0.149-1.024,0.221c-0.329,0.088-0.658,0.176-0.975,0.261
												c-0.642,0.158-1.239,0.367-1.812,0.547c-0.579,0.167-1.107,0.389-1.615,0.571c-0.505,0.176-0.96,0.39-1.387,0.574
												c-0.215,0.093-0.419,0.181-0.614,0.268c-0.19,0.096-0.371,0.187-0.544,0.273c-0.341,0.177-0.655,0.325-0.919,0.466
												c-0.261,0.15-0.482,0.278-0.661,0.381C773.596,350.81,773.404,350.92,773.404,350.92z"/>
											<path style="fill:#E5804E;" d="M777.734,355.08c0,0,0.161-0.105,0.466-0.3c0.301-0.201,0.748-0.491,1.35-0.806
												c0.293-0.17,0.625-0.344,1-0.514c0.37-0.175,0.763-0.379,1.205-0.551c0.87-0.374,1.867-0.756,2.99-1.079
												c0.279-0.083,0.564-0.166,0.856-0.251c0.293-0.071,0.592-0.142,0.9-0.216c0.61-0.159,1.252-0.266,1.91-0.386
												c1.319-0.219,2.711-0.384,4.157-0.526c1.443-0.15,2.934-0.29,4.432-0.505c1.506-0.201,3.012-0.482,4.487-0.9
												c1.458-0.423,2.89-1.002,4.278-1.613c1.391-0.609,2.758-1.238,4.113-1.77c1.356-0.538,2.729-0.942,4.04-1.189
												c1.326-0.246,2.587-0.349,3.753-0.387c2.333-0.064,4.261,0.137,5.611,0.23c1.349,0.115,2.118,0.182,2.118,0.182
												s-0.775-0.027-2.124-0.074c-1.352-0.05-3.287-0.142-5.593-0.028c-1.151,0.064-2.399,0.201-3.68,0.469
												c-1.295,0.277-2.611,0.707-3.95,1.242c-2.678,1.063-5.4,2.572-8.424,3.469c-1.503,0.413-3.047,0.687-4.561,0.876
												c-1.515,0.204-3.012,0.334-4.453,0.472c-1.439,0.138-2.836,0.26-4.145,0.446c-0.651,0.103-1.289,0.192-1.892,0.334
												c-0.306,0.065-0.602,0.13-0.896,0.192c-0.292,0.078-0.575,0.155-0.855,0.228c-1.114,0.3-2.119,0.637-2.997,0.971
												c-0.444,0.154-0.843,0.34-1.216,0.499c-0.377,0.154-0.713,0.313-1.013,0.472c-0.301,0.151-0.572,0.286-0.807,0.403
												c-0.227,0.131-0.422,0.243-0.579,0.333C777.901,354.985,777.734,355.08,777.734,355.08z"/>
											<path style="fill:#E5804E;" d="M783.149,359.143c0,0,0.132-0.087,0.38-0.248c0.244-0.165,0.605-0.403,1.095-0.66
												c0.236-0.14,0.507-0.282,0.81-0.422c0.299-0.143,0.619-0.311,0.978-0.453c0.706-0.306,1.517-0.621,2.426-0.886
												c0.454-0.141,0.928-0.274,1.428-0.384c0.497-0.13,1.018-0.22,1.554-0.318c1.071-0.181,2.203-0.321,3.38-0.436
												c2.34-0.251,4.844-0.462,7.237-1.147c1.178-0.339,2.343-0.81,3.469-1.305c1.129-0.493,2.241-1.004,3.346-1.435
												c1.102-0.438,2.222-0.765,3.292-0.961c1.081-0.197,2.106-0.28,3.055-0.307c1.896-0.049,3.464,0.125,4.559,0.206
												c1.096,0.101,1.722,0.158,1.722,0.158s-0.628-0.019-1.726-0.051c-1.099-0.036-2.671-0.101-4.544-0.002
												c-0.932,0.056-1.945,0.169-2.985,0.389c-1.05,0.228-2.111,0.58-3.198,1.013c-2.171,0.863-4.384,2.094-6.845,2.828
												c-1.224,0.334-2.483,0.557-3.716,0.71c-1.233,0.162-2.448,0.269-3.621,0.378c-1.168,0.115-2.303,0.207-3.366,0.357
												c-0.529,0.082-1.046,0.153-1.536,0.268c-0.497,0.094-0.968,0.211-1.42,0.337c-0.906,0.24-1.72,0.51-2.437,0.778
												c-0.361,0.124-0.685,0.273-0.988,0.401c-0.307,0.125-0.582,0.252-0.827,0.379c-0.492,0.234-0.873,0.443-1.128,0.592
												C783.286,359.065,783.149,359.143,783.149,359.143z"/>
										</g>
										<path style="fill:#87756C;" d="M855.41,382.015c-3.093-5.692-5.383-11.756-7.227-17.785
											c-2.119-6.915,1.898-10.157-5.044-11.699c-13.437-2.988-7.9-28.627-19.168-30.309
											c-8.638-1.287-24.544,10.892-37.232,15.009c-8.723,2.831-24.525,5.935-31.545-0.034c0,0-8.2-10.823-7.133-26.139
											c0.038-0.561,0.138-1.091,0.301-1.597c2.302-7.426,16.666-9.321,23.265-10.668c22.952-4.69,33.194-4.352,50.331-6.52
											c13.472-1.703,26.699,6.302,35.248,17.337c3.082,3.977,5.56,8.344,7.219,12.794
											C871.406,341.132,863.887,364.034,855.41,382.015z"/>
										<path style="fill:#E5804E;" d="M801.798,410.548c3.133,2.681,8.906,4.934,13.098,4.043c4.696-1,6.917-5.381,8.296-9.207
											L801.798,410.548z"/>
										<path style="fill:#87756C;" d="M826.058,396.344c-5.992-1.257-20.646,3.281-20.646,3.281
											c-4.07,1.58-9.618,2.41-12.415,6.527c-2.07,3.05-1.885,7.129-3.761,10.018c3.062,0.344,9.866,1.886,23.426-7.112
											c9.897,2.161,23.066-0.592,27.142-11.105C835.12,400.52,830.957,397.37,826.058,396.344z"/>
										<path style="fill:#685851;" d="M855.41,382.015c-3.093-5.692-5.383-11.756-7.227-17.785
											c-2.119-6.915,1.898-10.157-5.044-11.699c-13.437-2.988-7.9-28.627-19.168-30.309
											c-8.638-1.287-24.544,10.892-37.232,15.009c-8.723,2.831-24.525,5.935-31.545-0.034c0,0-8.2-10.823-7.133-26.139
											c0.038-0.561,0.138-1.091,0.301-1.597c2.27,3.349,5.819,6.339,8.173,7.91c8.368,5.586,19.893,5.007,29.3,2.961
											c14.005-3.041,27.565-11.46,42.104-8.524c4.433,0.896,9.099,4.039,12.647,6.945c2.941,2.417,4.499,7.724,8.487,6.194
											c6.009-2.302,7.885-8.667,8.134-15.337c3.082,3.977,5.56,8.344,7.219,12.794
											C871.406,341.132,863.887,364.034,855.41,382.015z"/>
										<g>
											<path style="fill:#FFB278;" d="M852.316,376.874c-0.282-3.89-0.009-9.013-0.009-9.013
												c0.381-8.776,7.298-16.572,11.557-12.464c4.277,4.125,5.238,12.734,4.494,18.189c-0.735,5.388-4.161,15.229-9.877,14.485
												C853.602,387.435,852.62,381.042,852.316,376.874z"/>
											<path style="fill:#E5804E;" d="M854.84,368.292c-0.027-0.95,1.268-4.328,1.581-5.211c2.371-6.748,7.886-5.55,8.97,1.293
												c-2.604-5.703-5.396-0.454-7.046,3.072c1.728-0.262,2.982,3.845,2.804,5.574c-0.309,3.048-2.181,3.968-4.155,4.723
												l-0.006-0.244c0.094-2.239,1.83-5.391,0.16-7.994C856.234,368.078,854.89,370.059,854.84,368.292z"/>
										</g>
									</g>
									<g>
										<path style="fill:#FFFFFF;" d="M799.456,382.987c-0.413-0.611-0.864-1.176-1.357-1.679
											c-0.328-0.334-0.668-0.644-1.027-0.925c-0.021-0.021-0.044-0.033-0.065-0.053c-0.009-0.004-0.011-0.01-0.025-0.013
											c-0.065-0.053-0.138-0.111-0.21-0.162c-1.237-0.903-2.615-1.474-4.06-1.629c-0.326-0.042-0.657-0.055-0.988-0.047
											c-0.114,0.004-0.228,0.007-0.341,0.017c-0.386,0.025-0.773,0.086-1.158,0.178l-10.228,2.421l-1.254,0.298
											c-0.063,0.014-0.127,0.028-0.187,0.048c-1.985,0.533-3.65,1.858-4.772,3.813c-0.143,0.244-0.275,0.505-0.401,0.778
											c-1.095,2.368-1.332,5.206-0.669,7.999c1.107,4.671,4.487,8.13,8.302,8.685c0.417,0.067,0.841,0.096,1.266,0.085
											c0.498-0.015,1.001-0.079,1.493-0.194l11.486-2.728c2.327-0.551,4.229-2.199,5.354-4.638
											c1.097-2.361,1.334-5.2,0.671-7.992C800.913,385.667,800.273,384.227,799.456,382.987z M799.439,387.69
											c0.561,2.378,0.369,4.78-0.548,6.755c-0.877,1.894-2.323,3.174-4.069,3.588l-11.488,2.721
											c-0.36,0.085-0.732,0.133-1.095,0.144c-0.781,0.021-1.561-0.137-2.307-0.441c-2.468-1.007-4.593-3.615-5.363-6.869
											c-0.469-1.973-0.421-3.968,0.144-5.718c0.112-0.356,0.244-0.699,0.399-1.036c0.783-1.7,2.022-2.891,3.51-3.424
											l0.159-0.052c0.136-0.045,0.261-0.08,0.399-0.112l1.355-0.325l4.407-1.042l5.725-1.361c0.359-0.085,0.73-0.133,1.102-0.14
											c0.424-0.011,0.848,0.033,1.272,0.124c0.159,0.029,0.323,0.077,0.488,0.124c0.817,0.247,1.61,0.672,2.337,1.246
											c0.309,0.238,0.602,0.509,0.889,0.801c0.2,0.213,0.396,0.435,0.588,0.663c0.093,0.118,0.188,0.244,0.288,0.374
											C798.445,384.845,799.083,386.198,799.439,387.69z"/>
										<path style="fill:#FFFFFF;" d="M834.357,367.404c-0.221-0.009-0.439-0.012-0.662-0.006
											c-0.567,0.011-1.139,0.071-1.693,0.186c-0.135,0.024-0.262,0.052-0.394,0.083l-0.771,0.179l-2.829,0.676l-9.728,2.304
											l-0.587,0.139c-0.157,0.039-0.314,0.077-0.468,0.128c-3.562,1.028-6.173,3.909-7.102,7.412
											c-0.184,0.699-0.303,1.432-0.347,2.181c-0.067,1.075,0.021,2.182,0.285,3.292c1.191,5.024,5.637,8.586,10.583,8.469
											c0.696-0.013,1.397-0.108,2.081-0.267l10.993-2.612l0.701-0.163l2.219-0.529c4.172-0.991,7.143-4.488,7.808-8.631
											c0.097-0.61,0.142-1.237,0.138-1.867c-0.01-0.833-0.111-1.67-0.308-2.516
											C843.141,371.069,839.025,367.602,834.357,367.404z M841.694,382.635c-0.997,1.961-2.694,3.508-4.843,4.211l-0.103,0.034
											c-0.18,0.053-0.362,0.099-0.544,0.146l-13.914,3.299c-0.554,0.135-1.121,0.207-1.689,0.218
											c-4.048,0.093-7.704-2.845-8.69-7c-1.06-4.503,1.285-8.991,5.322-10.454c0.29-0.109,0.595-0.196,0.903-0.271l0.612-0.147
											l12.609-2.99l0.39-0.096l0.295-0.07c0.563-0.131,1.129-0.203,1.698-0.214l0.005-0.002
											c0.466-0.011,0.931,0.019,1.389,0.085c3.468,0.52,6.417,3.25,7.289,6.919c0.359,1.52,0.331,3.038-0.021,4.44
											C842.234,381.41,841.993,382.04,841.694,382.635z"/>
										<path style="fill:#FFFFFF;" d="M810.125,378.504c-2.028-1.485-4.462-2.041-6.77-1.496c-2.303,0.543-4.153,2.079-5.255,4.3
											c-0.117,0.242-0.23,0.497-0.335,0.756l-0.164-0.04c-0.02,0.04-0.043,0.069-0.069,0.097
											c-0.124,0.177-0.418,0.587-0.237,1.118c0.013,0.037,0.023,0.068,0.049,0.1c0.061,0.15,0.156,0.274,0.288,0.374
											c0.133,0.119,0.31,0.203,0.522,0.269l0.898,0.268l0.281-0.895c0.042-0.122,0.083-0.245,0.124-0.367
											c0.776-2.159,2.343-3.65,4.34-4.126c2.056-0.489,4.258,0.191,5.981,1.824c0.09,0.086,0.182,0.178,0.273,0.27l1.373-1.317
											C811.012,379.217,810.58,378.836,810.125,378.504z M798.642,382.291l0.043-0.136c0.046,0.019,0.17,0.086,0.274,0.215
											L798.642,382.291z"/>
									</g>
								</g>
							</g>
							<g style="opacity:0.4;">
								<path style="fill:#425B28;" d="M947.786,639.931c0,0.676,0,1.336-0.007,1.989c0,0.313-0.007,0.625-0.007,0.93
									c-0.008,0.853-0.022,1.691-0.029,2.515c-0.008,0.369-0.008,0.732-0.022,1.094c-0.014,0.81-0.028,1.613-0.042,2.395
									c-0.021,1.037-0.05,2.046-0.078,3.041c-0.043,1.414-0.093,2.785-0.149,4.114c-0.021,0.583-0.05,1.158-0.078,1.727
									c-0.029,0.725-0.065,1.428-0.107,2.124c-0.015,0.313-0.029,0.618-0.05,0.916c-0.028,0.497-0.057,0.988-0.092,1.464
									c-0.028,0.483-0.057,0.959-0.093,1.428c-0.036,0.469-0.064,0.931-0.099,1.385c-0.036,0.455-0.071,0.902-0.107,1.35
									c-0.008,0.149-0.021,0.298-0.036,0.448c-0.071,0.81-0.143,1.591-0.213,2.352c0,0,0.007,0,0,0.007
									c-0.07,0.761-0.142,1.507-0.228,2.232c-0.17,1.591-0.355,3.091-0.554,4.504c-0.051,0.355-0.1,0.704-0.15,1.045
									c-0.021,0.149-0.043,0.298-0.064,0.44c-0.789,5.215-1.748,9.286-2.813,12.668c-0.079,0.256-0.164,0.505-0.242,0.753
									c-0.171,0.504-0.341,1.001-0.512,1.485c-9.798,2.365-20.072,3.921-30.58,4.682c-0.007,0-0.007,0-0.014,0
									c-2.003-0.327-4.007-0.639-6.011-0.931c-0.604-0.092-1.214-0.178-1.826-0.263c-0.909-0.135-1.826-0.263-2.735-0.383
									c-0.774-0.107-1.542-0.206-2.317-0.306c-0.214-0.028-0.419-0.057-0.632-0.085c-1.754-0.227-3.517-0.44-5.272-0.646
									c-3.659-0.426-7.325-0.81-11-1.158c-0.681-0.064-1.37-0.128-2.052-0.191c-11.751-1.052-23.545-1.506-35.34-1.521
									c-16.533-3.929-32.434-9.755-46.792-17.443c0.476-2.508,0.917-5.08,1.329-7.723c0.07-0.455,0.141-0.917,0.212-1.379
									c0.44-2.92,0.838-5.904,1.201-8.952c0.099-0.845,0.198-1.698,0.291-2.55c0.192-1.705,0.362-3.432,0.526-5.172
									c0.085-0.867,0.162-1.741,0.241-2.615c0.128-1.513,0.256-3.041,0.362-4.575c0.022-0.235,0.036-0.476,0.05-0.71
									c0.065-0.845,0.121-1.691,0.178-2.537c0.114-1.826,0.22-3.666,0.313-5.506c0.036-0.717,0.071-1.428,0.099-2.146
									c0.05-1.087,0.092-2.181,0.128-3.268c0.072-1.812,0.121-3.624,0.157-5.443c0.021-0.909,0.035-1.819,0.049-2.721
									c0-0.12,0-0.241,0.007-0.362c0.021-1.698,0.036-3.396,0.036-5.087c12.39,2.636,25.706,4.199,38.316,3.73
									c23.674-0.881,34.892,4.476,53.287-11.368c13.009-11.204,3.979-63.376,7.105-79.575
									c3.496-18.082,26.018-8.639,28.384-26.998c1.336-10.395,3.403-20.953,5.166-31.283c0.142-0.825,0.292-1.67,0.455-2.523
									c2.089,8.704,3.261,17.237,3.801,23.461c1.386,16.057,2.586,30.82,3.609,44.391
									C946.471,582.566,947.878,616.287,947.786,639.931z"/>
							</g>
							<path style="fill:#7A3920;" d="M945.86,674.148c-0.134,1.151-0.22,2.231-0.277,3.247v0.036
								c-0.292,5.123,0.078,8.888-1.826,14.487c-0.575,0.142-1.157,0.292-1.74,0.42c-9.798,2.365-20.072,3.921-30.58,4.682
								c-0.007,0-0.007,0-0.014,0c-22.068,1.619-45.187-0.249-67.184-5.485c-16.533-3.929-32.434-9.755-46.792-17.443
								c-0.264-0.128-0.526-0.27-0.789-0.412l3.417-17.805c0.035,0.057,0.071,0.106,0.114,0.163
								C812.26,673.58,887.302,688.081,945.86,674.148z"/>
							<path style="fill:#4C2622;" d="M827.992,680.796c-0.288,2.468-2.523,4.235-4.991,3.947l0,0
								c-2.469-0.289-4.235-2.524-3.947-4.992l1.21-10.35c0.289-2.468,2.523-4.235,4.992-3.947l0,0
								c2.468,0.289,4.235,2.523,3.946,4.993L827.992,680.796z"/>
							<path style="fill:#4C2622;" d="M894.778,691.217c-0.288,2.468-2.524,4.235-4.992,3.946l0,0
								c-2.468-0.289-4.235-2.524-3.946-4.992l1.211-10.35c0.288-2.468,2.523-4.235,4.99-3.946l0,0
								c2.469,0.288,4.235,2.523,3.948,4.992L894.778,691.217z"/>
						</g>
						<g>
							<path style="fill:#FFB278;" d="M965.259,552.499c-0.667-13.427-6.347-15.71-6.394-27.709l-51.152-1.066
								c5.144,14.762,7.852,35.646,8.58,51.098c0.773,16.4,3.876,36.699,0.178,52.511c-3.176,13.574-34.34,46.655-51.39,55.18
								c4.861,6.666-0.662,16.334,3.723,23.316c25.247-9.073,63.518-22.907,82.6-46.761
								C968.456,637.754,967.003,587.604,965.259,552.499z"/>
							<g>
								<path style="fill:#425B28;" d="M923.07,435.06c-7.716-5.019-16.832-3.854-25.731,7.404
									c-9.742,12.324-6.059,39.675-4.586,49.411c2.2,14.533,16.669,63.381,19.518,81.416c0,0,61.041-19.247,60.154-25.702
									C969.963,529.607,949.965,452.555,923.07,435.06z"/>
								<path style="fill:#6B8E43;" d="M907.73,557.015l3.316,20.975c13.209-1.192,63.148-20.677,61.379-30.4
									c-1.129-6.205-2.011-13.634-3.762-19.474C958.679,533.244,915.922,556.527,907.73,557.015z"/>
							</g>
							<g>
								<path style="fill:#FFB278;" d="M865.081,682.513c-12.223-0.053-32.41,1.427-42.861,7.168
									c-7.358,4.042-26.49,26.067-12.555,24.803c5.19-0.471,12.181-6.048,17.05-7.452c4.974-1.435,12.442,4.109,18.141,5.32
									c11.436,2.432,29.627,0,33.013-13.854L865.081,682.513z"/>
								<path style="fill:#FFB278;" d="M811.105,712.954c-7.537,18.071,17.07-2.096,22.023-6.358l6.394-13.499
									C826.586,687.547,815.542,702.318,811.105,712.954z"/>
								<path style="fill:#FFB278;" d="M822.473,714.375c-7.537,18.071,17.07-2.097,22.023-6.358l6.394-13.499
									C837.954,688.969,826.909,703.739,822.473,714.375z"/>
								<path style="fill:#FFB278;" d="M836.683,713.665c-7.538,18.071,17.07-2.097,22.022-6.357l6.394-13.5
									C852.164,688.258,841.119,703.029,836.683,713.665z"/>
							</g>
						</g>
					</g>
				</g>
			</g>
		</g>
	</g>
</g>
</svg>
